<?xml version="1.0" encoding="UTF-8"?>
<!DOCTYPE svg PUBLIC "-//W3C//DTD SVG 1.1//EN" "http://www.w3.org/Graphics/SVG/1.1/DTD/svg11.dtd">
<!-- Creator: CorelDRAW 2018 (64 Bit Versão de avaliação) -->
<svg xmlns="http://www.w3.org/2000/svg" xml:space="preserve" width="29.6756mm" height="17.4412mm" version="1.1" style="shape-rendering:geometricPrecision; text-rendering:geometricPrecision; image-rendering:optimizeQuality; fill-rule:evenodd; clip-rule:evenodd"
viewBox="0 0 2967.56 1744.12"
 xmlns:xlink="http://www.w3.org/1999/xlink">
 <defs>
  <style type="text/css">
   <![CDATA[
    .fil1 {fill:#373435;fill-rule:nonzero}
    .fil0 {fill:#FFF212;fill-opacity:0.349020}
   ]]>
  </style>
 </defs>
 <g id="Camada_x0020_1">
  <metadata id="CorelCorpID_0Corel-Layer"/>
  <g id="_4920925312">
   <path class="fil0" d="M382.33 -1.06l2202.91 0c209.75,0 381.35,171.63 381.35,381.35l0 983.53c0,209.73 -171.62,381.35 -381.35,381.35l-2202.91 0c-209.72,0 -381.35,-171.6 -381.35,-381.35l0 -983.53c0,-209.74 171.61,-381.35 381.35,-381.35z"/>
   <polygon class="fil1" points="617.52,1164.06 617.52,515.48 768.7,515.48 768.7,1047.76 911.84,1047.76 911.84,1164.06 "/>
   <path id="1" class="fil1" d="M1104.77 845.74l0 179.81c0,18.04 2.53,30.12 7.45,36.23 4.92,6.12 14.91,9.24 30.12,9.24 14.61,0 24.3,-3.12 29.22,-9.24 4.92,-6.11 7.46,-18.19 7.46,-36.23l0 -179.81c0,-18.35 -2.39,-30.57 -7.16,-36.69 -4.92,-6.11 -14.61,-9.09 -29.52,-9.09 -14.92,0 -24.9,3.13 -29.97,9.39 -5.07,6.26 -7.6,18.34 -7.6,36.39zm-135.98 33.25c0,-70.53 11.92,-118.39 35.78,-143.44 24.01,-25.05 69.93,-37.58 137.77,-37.58 67.69,0 113.46,12.53 137.46,37.58 24.02,25.05 36.09,72.91 36.09,143.44l0 113.46c0,69.93 -11.93,117.34 -35.78,142.25 -24.01,24.89 -69.93,37.42 -137.77,37.42 -67.84,0 -113.76,-12.38 -137.77,-37.13 -23.86,-24.75 -35.78,-72.31 -35.78,-142.54l0 -113.46z"/>
   <path id="2" class="fil1" d="M1718.45 1151.39c0,69.63 -10.89,117.19 -32.8,142.69 -21.77,25.5 -61.28,38.17 -118.39,38.17 -66.94,0 -111.97,-9.1 -135.08,-27.14 -23.26,-18.04 -34.74,-50.99 -34.74,-99l0 -2.69 114.51 0c0,12.83 2.68,21.62 8.06,26.55 5.36,4.92 14.9,7.45 28.62,7.45 14.76,0 24.75,-2.98 29.82,-8.8 5.07,-5.81 7.6,-18.03 7.6,-36.97l0 -66.95c-14.01,14.31 -28.48,24.61 -43.68,30.86 -15.06,6.26 -33.25,9.4 -54.57,9.4 -39.06,0 -66.2,-10.59 -81.7,-31.91 -15.36,-21.32 -23.13,-60.23 -23.13,-116.75l0 -169.67c0,-54.72 7.77,-93.33 23.13,-115.41 15.5,-22.21 41.73,-33.25 78.72,-33.25 25.19,0 46.66,5.22 64.11,15.51 17.44,10.44 31.91,26.4 43.24,48.01l0 -55.46 126.28 0 0 445.36zm-132.4 -130.61l0 -175.04c0,-18.35 -2.23,-30.57 -6.71,-36.69 -4.47,-6.11 -13.27,-9.09 -26.39,-9.09 -13.12,0 -21.91,2.98 -26.39,9.09 -4.47,6.12 -6.71,18.34 -6.71,36.69l0 175.04c0,18.34 2.24,30.56 6.71,36.68 4.48,6.11 13.27,9.09 26.39,9.09 13.42,0 22.22,-2.98 26.54,-8.79 4.33,-5.82 6.56,-18.19 6.56,-36.98z"/>
   <path id="3" class="fil1" d="M1803.29 609.41l0 -105.57 132.4 0 0 105.57 -132.4 0zm132.4 554.65l-132.4 0 0 -458.03 132.4 0 0 458.03z"/>
   <path id="4" class="fil1" d="M2019.04 1164.06l0 -458.03 123.59 0 0 59.19c13.43,-23.86 28.78,-41 46.08,-51.59 17.29,-10.44 38.91,-15.66 64.85,-15.66 35.78,0 60.84,9.84 75.16,29.53 14.15,19.53 21.31,56.21 21.31,109.74l0 326.82 -132.4 0 0 -319.52c0,-16.25 -2.38,-27.29 -7.15,-33.1 -4.78,-5.81 -13.42,-8.8 -25.95,-8.8 -12.52,0 -21.17,2.99 -25.94,8.8 -4.77,5.81 -7.16,16.85 -7.16,33.1l0 319.52 -132.39 0z"/>
  </g>
 </g>
</svg>
