<?xml version="1.0" encoding="UTF-8"?>
<!DOCTYPE svg PUBLIC "-//W3C//DTD SVG 1.1//EN" "http://www.w3.org/Graphics/SVG/1.1/DTD/svg11.dtd">
<!-- Creator: CorelDRAW 2018 (64 Bit Versão de avaliação) -->
<svg xmlns="http://www.w3.org/2000/svg" xml:space="preserve" width="30.3952mm" height="22.9022mm" version="1.1" style="shape-rendering:geometricPrecision; text-rendering:geometricPrecision; image-rendering:optimizeQuality; fill-rule:evenodd; clip-rule:evenodd"
viewBox="0 0 3039.52 2290.22"
 xmlns:xlink="http://www.w3.org/1999/xlink">
 <defs>
  <style type="text/css">
   <![CDATA[
    .fil4 {fill:#FEFEFE}
    .fil1 {fill:#F9DC26}
    .fil0 {fill:black}
    .fil2 {fill:#F9DC26;fill-rule:nonzero}
    .fil3 {fill:black;fill-rule:nonzero}
   ]]>
  </style>
 </defs>
 <g id="Camada_x0020_1">
  <metadata id="CorelCorpID_0Corel-Layer"/>
  <g id="_4920939168">
   <path class="fil0" d="M468.99 1232.02c242.88,358.37 680.59,504.98 1047.88,693.31 43.55,-17.92 129.55,-55.75 174.78,-75.13l0.06 0.22c362.04,-167.39 946.92,-459.17 1016.17,-943 47.5,-256.77 7.62,-512.29 -200.71,-684.65 -222.03,-183.71 -527.62,-269.16 -791.18,-131.47 -75.03,39.2 -124.91,79.51 -188.13,132.97 -245.28,-162.02 -499.46,-249.54 -794.96,-125.95 -219.36,91.75 -356.78,278.94 -402.93,502.29 -46.62,225.64 8.7,439.13 139.02,631.41z"/>
   <path class="fil1" d="M1311.83 781.88c18.97,139.09 -177.08,107.48 -151.79,0l151.79 0zm284.58 6.32c37.95,139.1 -183.4,126.45 -158.1,-6.32l158.1 6.32zm-202.37 -120.13c0,132.77 44.27,240.26 126.48,335.1 164.43,196 284.59,227.61 518.59,259.23 -82.22,31.61 -202.38,18.96 -284.59,-6.33 -75.89,-18.96 -164.43,-69.54 -215.02,-113.8 -120.16,-94.84 -221.35,-271.88 -221.35,-442.59 0,-265.55 145.46,-385.68 151.78,-423.62 -31.62,-25.29 -132.81,-82.19 -170.75,-94.83 -107.52,-44.26 -240.32,-82.2 -379.45,-56.91 -189.73,31.61 -328.86,120.13 -430.05,278.2 -101.19,158.06 -126.48,404.65 -56.92,581.68 164.43,442.59 594.48,619.62 967.61,809.3 18.97,6.32 107.51,56.9 120.15,56.9l366.81 -170.71c113.83,-50.58 594.47,-341.42 594.47,-480.52 -120.16,-6.32 -158.1,-37.94 -202.37,-120.13 -139.13,-297.16 240.32,-581.68 75.89,-746.07 82.21,12.64 132.8,113.8 113.83,202.32 -12.65,56.91 -132.81,202.33 -132.81,398.33 0,63.23 12.65,120.13 44.27,151.74 37.95,37.94 88.54,37.94 158.11,37.94 107.51,-151.74 132.81,-417.3 82.21,-600.65 -44.27,-145.42 -132.81,-227.62 -246.64,-303.49 -227.67,-139.1 -467.99,-177.03 -701.99,-12.64 -151.78,107.48 -278.26,265.55 -278.26,461.55z"/>
   <path class="fil0" d="M692.05 598.52c37.95,-6.32 -56.91,-189.68 0,-227.62 31.63,-18.96 113.84,63.23 132.81,113.81 18.98,31.61 18.98,56.91 37.95,37.94 18.97,-63.23 -170.76,-366.72 -240.32,-189.68 -25.3,88.52 18.97,252.9 69.56,265.55z"/>
   <path class="fil0" d="M1596.41 788.2l-158.1 -6.32c-25.3,132.77 196.05,145.42 158.1,6.32z"/>
   <path class="fil0" d="M1311.83 781.88l-151.79 0c-25.29,107.48 170.76,139.09 151.79,0z"/>
   <path class="fil0" d="M981.06 644.73c32.21,0 58.33,26.1 58.33,58.31 0,32.21 -26.12,58.32 -58.33,58.32 -32.22,0 -58.33,-26.11 -58.33,-58.32 0,-32.21 26.11,-58.31 58.33,-58.31z"/>
   <path class="fil0" d="M1963.46 644.73c32.21,0 58.33,26.1 58.33,58.31 0,32.21 -26.12,58.32 -58.33,58.32 -32.22,0 -58.33,-26.11 -58.33,-58.32 0,-32.21 26.11,-58.31 58.33,-58.31z"/>
   <polygon class="fil0" points="833.31,863.44 830.81,817.64 1065.95,873.94 1062.99,912.96 "/>
   <polygon class="fil0" points="843.64,948.57 841.44,910.93 1048.44,934.82 1045.83,967.37 "/>
   <polygon class="fil0" points="898.43,1039.07 890.15,1012.38 1043.34,992.74 1047.26,1016.62 "/>
   <g>
    <path class="fil2" d="M1846.55 1646.41l-106.8 238.09 -48.26 -21.64 106.8 -238.09 0.05 -0.11 48.21 21.75zm-43.71 -34.16l52.9 0 0 0 -0.02 1.27 -0.04 1.01 -0.07 1.22 -0.1 1.21 -0.1 0.98 -0.14 1.16 -0.17 1.16 -0.19 1.16 -0.22 1.16 -0.18 0.91 -0.24 1.1 -0.26 1.08 -0.23 0.96 -0.25 0.94 -0.28 1.04 -0.32 1.12 -0.33 1.11 -0.34 1.06 -0.3 0.91 -0.38 1.12 -0.32 0.91 -0.38 1.08 -0.42 1.11 -0.35 0.94 -0.44 1.12 -0.38 0.95 -0.46 1.14 -0.46 1.07 -0.41 0.99 -0.5 1.14 -0.49 1.1 -0.47 1.04 -48.16 -21.86 0.37 -0.82 0.33 -0.74 0.28 -0.66 0.35 -0.81 0.28 -0.67 0.24 -0.6 0.3 -0.75 0.22 -0.56 0.27 -0.72 0.2 -0.51 0.18 -0.54 0.24 -0.65 0.14 -0.44 0.2 -0.61 0.14 -0.44 0.11 -0.35 0.1 -0.34 0.1 -0.38 0.11 -0.44 0.11 -0.42 0.06 -0.26 0.04 -0.22 0.08 -0.37 0.02 -0.1 0.01 -0.08 0.01 -0.06 0 -0.02 0.02 -0.18 0 0.07 -0.01 0.12 0 -0.07 0 0.21 0 0zm-19.6 -16.56l52.9 0 -21.43 -25.96 1.75 0.36 1.67 0.37 1.77 0.44 1.62 0.45 1.73 0.51 1.76 0.59 1.63 0.59 1.6 0.62 1.74 0.75 1.75 0.82 1.56 0.81 1.74 0.97 1.61 0.99 1.64 1.1 1.61 1.19 1.47 1.18 1.63 1.43 1.58 1.56 1.44 1.57 1.22 1.47 1.38 1.84 1.36 2.08 1.04 1.82 0.99 1.96 0.91 2.09 0.78 2.14 0.67 2.23 0.48 2.02 0.42 2.2 0.27 2.21 0.15 2.02 0.06 2.14 -52.9 0 0.02 0.56 0.03 0.48 0.09 0.71 0.14 0.74 0.14 0.58 0.25 0.83 0.28 0.78 0.33 0.75 0.33 0.66 0.32 0.56 0.56 0.84 0.48 0.66 0.26 0.31 0.42 0.45 0.46 0.46 0.45 0.39 0.19 0.16 0.27 0.19 0.22 0.16 0.13 0.07 0.16 0.09 -0.08 -0.03 0.03 0 -0.06 -0.01 -0.28 -0.12 -0.31 -0.11 -0.28 -0.09 -0.37 -0.11 -0.56 -0.15 -0.47 -0.12 -0.67 -0.15 -0.65 -0.14 -21.43 -25.96zm21.43 25.96c-14.34,-2.77 -23.72,-16.65 -20.95,-30.98 2.77,-14.33 16.65,-23.71 30.99,-20.94l-10.04 51.92zm31.47 -35.66l0 9.7 -52.9 0 0 -9.7 26.45 -26.44 26.45 26.44zm-52.9 0c0,-14.6 11.85,-26.44 26.45,-26.44 14.6,0 26.45,11.84 26.45,26.44l-52.9 0zm164.87 26.44l-138.42 0 0 -52.88 138.42 0 26.45 26.44 -26.45 26.44zm0 -52.88c14.6,0 26.45,11.84 26.45,26.44 0,14.6 -11.85,26.44 -26.45,26.44l0 -52.88zm-26.45 36.14l0 -9.7 52.9 0 0 9.7 -22.8 26.19 -30.1 -26.19zm52.9 0c0,14.6 -11.85,26.44 -26.45,26.44 -14.6,0 -26.45,-11.84 -26.45,-26.44l52.9 0zm-24.78 24.95l-39.52 -35.16 0.29 -0.32 0.82 -0.87 1.03 -1.02 1.19 -1.09 0.93 -0.79 0.81 -0.66 1.1 -0.85 1.25 -0.89 1.13 -0.76 0.86 -0.53 0.96 -0.58 0.97 -0.55 1.16 -0.63 1.25 -0.62 0.98 -0.46 1.16 -0.52 0.98 -0.4 0.9 -0.36 1.23 -0.47 1.17 -0.4 0.98 -0.32 1.04 -0.33 1.12 -0.33 1.16 -0.31 1.04 -0.26 1 -0.25 1.17 -0.26 1.01 -0.21 1.01 -0.2 1.18 -0.22 1.18 -0.2 1.06 -0.16 1.08 -0.16 7.3 52.38 -0.54 0.08 -0.52 0.08 -0.36 0.06 -0.34 0.06 -0.47 0.1 -0.45 0.09 -0.25 0.06 -0.4 0.09 -0.32 0.08 -0.16 0.05 -0.18 0.05 -0.24 0.07 -0.24 0.08 -0.05 0.02 0.07 -0.03 -0.24 0.1 -0.14 0.06 0.08 -0.04 -0.08 0.04 0.23 -0.12 0.18 -0.09 0.01 -0.01 0.04 -0.02 -0.04 0.03 0.25 -0.18 0.41 -0.29 0.3 -0.23 0.03 -0.02 0.17 -0.15 0.47 -0.43 0.35 -0.34 0.16 -0.17 0.29 -0.32zm-13.14 26.06l-48 -22.22 0 -0.01 0.78 -1.68 0.79 -1.69 0.78 -1.65 0.75 -1.59 0.75 -1.57 0.73 -1.51 0.67 -1.4 0.73 -1.5 0.71 -1.43 0.66 -1.36 0.67 -1.32 0.64 -1.28 0.69 -1.34 0.61 -1.17 0.61 -1.18 0.68 -1.29 0.6 -1.11 0.51 -0.94 0.6 -1.11 0.67 -1.17 0.57 -1 0.57 -0.97 0.68 -1.13 0.5 -0.81 0.57 -0.91 0.72 -1.11 0.6 -0.89 0.63 -0.89 0.72 -1 0.7 -0.9 0.74 -0.94 0.99 -1.15 39.52 35.16 0.35 -0.41 0.08 -0.1 0 0 0 0 -0.13 0.19 -0.18 0.27 -0.1 0.13 -0.25 0.43 -0.38 0.59 -0.22 0.37 -0.35 0.61 -0.39 0.66 -0.31 0.57 -0.4 0.73 -0.53 0.98 -0.48 0.87 -0.42 0.79 -0.51 0.98 -0.55 1.07 -0.51 1 -0.56 1.12 -0.59 1.18 -0.6 1.2 -0.61 1.23 -0.59 1.24 -0.69 1.42 -0.67 1.39 -0.67 1.41 -0.71 1.49 -0.7 1.49 -0.71 1.53 -0.76 1.64 0 -0.01zm-187.94 279.81l139.94 -302.03 48 22.22 -139.94 302.03 -0.01 0.03 -47.99 -22.25zm41.56 36.26l-52.9 0 0 0 0.03 -1.38 0.09 -1.58 0.16 -1.48 0.11 -0.87 0.2 -1.33 0.23 -1.22 0.2 -0.95 0.27 -1.18 0.25 -1 0.23 -0.89 0.3 -1.07 0.35 -1.16 0.29 -0.93 0.29 -0.89 0.36 -1.1 0.39 -1.09 0.33 -0.92 0.36 -0.98 0.44 -1.17 0.37 -0.96 0.42 -1.1 0.49 -1.2 0.44 -1.05 0.43 -1.04 0.5 -1.2 0.53 -1.21 0.48 -1.1 0.51 -1.17 0.56 -1.27 0.59 -1.29 0.56 -1.22 0.59 -1.29 47.98 22.28 -0.51 1.09 -0.5 1.1 -0.45 0.99 -0.42 0.95 -0.45 1.01 -0.44 1.02 -0.37 0.85 -0.34 0.82 -0.39 0.92 -0.34 0.85 -0.27 0.66 -0.28 0.72 -0.31 0.78 -0.2 0.53 -0.24 0.68 -0.25 0.68 -0.15 0.45 -0.14 0.4 -0.17 0.55 -0.15 0.45 -0.05 0.18 -0.06 0.23 -0.09 0.33 -0.05 0.18 0.01 -0.04 -0.02 0.13 0.03 -0.2 0.06 -0.37 -0.01 0.05 0.06 -0.6 0.05 -0.76 0.01 -0.62 0 0zm18.7 17.78l-52.9 0 22.62 26.16 -1.82 -0.28 -1.84 -0.35 -1.71 -0.37 -1.82 -0.44 -1.82 -0.5 -1.83 -0.57 -1.81 -0.64 -1.76 -0.69 -1.8 -0.78 -1.82 -0.88 -1.73 -0.93 -1.78 -1.05 -1.86 -1.23 -1.61 -1.18 -1.66 -1.33 -1.72 -1.54 -1.55 -1.56 -1.56 -1.74 -1.39 -1.74 -1.24 -1.74 -1.2 -1.88 -1.16 -2.07 -0.96 -1.98 -0.86 -2.01 -0.77 -2.13 -0.63 -2.08 -0.51 -2.05 -0.43 -2.14 -0.29 -2.03 -0.22 -1.99 -0.12 -2.1 -0.04 -1.94 52.9 0 0 -0.08 -0.02 -0.28 -0.02 -0.21 -0.05 -0.31 -0.09 -0.48 -0.11 -0.41 -0.15 -0.52 -0.23 -0.61 -0.22 -0.53 -0.28 -0.56 -0.38 -0.69 -0.36 -0.56 -0.32 -0.46 -0.41 -0.5 -0.5 -0.56 -0.41 -0.42 -0.52 -0.46 -0.38 -0.31 -0.25 -0.18 -0.44 -0.29 -0.28 -0.17 -0.17 -0.09 -0.16 -0.08 -0.1 -0.04 0.04 0.01 0.05 0.02 0.11 0.03 0.18 0.06 0.26 0.06 0.43 0.09 0.38 0.07 0.48 0.08 22.62 26.16zm-22.62 -26.16c14.45,2.11 24.45,15.55 22.34,29.99 -2.11,14.44 -15.55,24.44 -30,22.33l7.66 -52.32zm-30.28 35.86l0 -9.7 52.9 0 0 9.7 -26.45 26.44 -26.45 -26.44zm52.9 0c0,14.6 -11.85,26.44 -26.45,26.44 -14.6,0 -26.45,-11.84 -26.45,-26.44l52.9 0zm-165.59 -26.44l139.14 0 0 52.88 -139.14 0 -26.45 -26.44 26.45 -26.44zm0 52.88c-14.6,0 -26.45,-11.84 -26.45,-26.44 0,-14.6 11.85,-26.44 26.45,-26.44l0 52.88zm26.45 -36.14l0 9.7 -52.9 0 0 -9.7 22.62 -26.16 30.28 26.16zm-52.9 0c0,-14.6 11.85,-26.44 26.45,-26.44 14.6,0 26.45,11.84 26.45,26.44l-52.9 0zm18.7 -18.08l52.9 0 0 0 -0.04 1.93 -0.12 2.11 -0.21 1.98 -0.28 2.01 -0.43 2.17 -0.49 2.03 -0.62 2.08 -0.75 2.11 -0.84 2.02 -0.98 2.04 -1.1 1.99 -1.17 1.89 -1.34 1.9 -1.38 1.74 -1.47 1.67 -1.54 1.57 -1.61 1.47 -1.74 1.44 -1.71 1.26 -1.74 1.17 -1.88 1.14 -1.74 0.93 -1.69 0.84 -1.93 0.85 -1.87 0.74 -1.81 0.64 -1.83 0.57 -1.7 0.47 -1.83 0.46 -1.82 0.39 -1.84 0.35 -1.82 0.28 -7.66 -52.32 0.48 -0.08 0.38 -0.07 0.32 -0.07 0.25 -0.06 0.3 -0.09 0.11 -0.03 0.05 -0.02 -0.07 0.04 -0.23 0.09 -0.03 0.02 -0.18 0.09 -0.38 0.24 -0.32 0.21 -0.35 0.26 -0.46 0.38 -0.41 0.37 -0.4 0.41 -0.41 0.47 -0.4 0.5 -0.42 0.6 -0.33 0.53 -0.32 0.59 -0.3 0.6 -0.2 0.5 -0.21 0.57 -0.14 0.48 -0.09 0.37 -0.09 0.47 -0.04 0.25 -0.01 0.18 -0.02 0.25 0 0.03 0 0zm-6.44 -13.73l48 -22.24 -0.01 -0.02 0.59 1.29 0.56 1.22 0.59 1.29 0.54 1.23 0.52 1.16 0.49 1.14 0.51 1.17 0.5 1.19 0.45 1.08 0.42 1 0.45 1.1 0.44 1.13 0.41 1.05 0.41 1.07 0.34 0.91 0.36 1.01 0.37 1.04 0.35 1.03 0.32 0.98 0.28 0.87 0.32 1.04 0.33 1.16 0.23 0.88 0.23 0.88 0.29 1.23 0.2 0.93 0.23 1.21 0.22 1.38 0.11 0.83 0.16 1.46 0.1 1.61 0.03 1.42 -52.9 0 0.01 0.7 0.06 0.83 0.06 0.62 -0.01 -0.07 0.08 0.44 0.03 0.23 -0.02 -0.13 0.03 0.13 -0.07 -0.26 -0.09 -0.34 -0.03 -0.1 -0.08 -0.26 -0.16 -0.51 -0.14 -0.44 -0.15 -0.43 -0.17 -0.5 -0.22 -0.57 -0.26 -0.71 -0.23 -0.63 -0.27 -0.69 -0.26 -0.65 -0.31 -0.74 -0.36 -0.9 -0.37 -0.88 -0.34 -0.81 -0.39 -0.89 -0.43 -0.98 -0.44 -1 -0.44 -0.99 -0.45 -0.99 -0.5 -1.1 -0.51 -1.09 -0.01 -0.02zm-92.04 -324.27l140.04 302.03 -48 22.24 -140.04 -302.03 0 0 48 -22.24zm-61.11 -3.8l39.46 -35.22 0.03 0.03 0.99 1.15 0.74 0.94 0.7 0.9 0.72 1 0.63 0.89 0.6 0.89 0.72 1.11 0.57 0.91 0.5 0.81 0.68 1.13 0.57 0.97 0.57 1 0.67 1.17 0.6 1.11 0.51 0.94 0.6 1.11 0.68 1.29 0.61 1.18 0.61 1.17 0.69 1.34 0.64 1.28 0.67 1.32 0.66 1.36 0.71 1.43 0.73 1.5 0.67 1.4 0.73 1.51 0.75 1.57 0.75 1.59 0.78 1.65 0.79 1.69 0.78 1.68 -48 22.24 -0.76 -1.64 -0.71 -1.53 -0.7 -1.49 -0.71 -1.49 -0.67 -1.41 -0.67 -1.39 -0.69 -1.42 -0.59 -1.24 -0.61 -1.23 -0.6 -1.2 -0.59 -1.18 -0.56 -1.12 -0.51 -1 -0.55 -1.07 -0.51 -0.98 -0.42 -0.79 -0.48 -0.87 -0.53 -0.98 -0.4 -0.73 -0.31 -0.57 -0.39 -0.66 -0.35 -0.61 -0.22 -0.37 -0.38 -0.59 -0.25 -0.43 -0.1 -0.13 -0.18 -0.27 -0.13 -0.19 0 0 0 0 0.08 0.1 0.35 0.41 0.03 0.03zm-24.81 -24.98l52.9 0 -22.8 -26.19 1.08 0.16 1.06 0.16 1.15 0.19 1.19 0.22 1.04 0.21 1.01 0.21 1.17 0.26 0.96 0.23 1.04 0.26 1.16 0.32 1.18 0.34 1.03 0.33 0.93 0.29 1.16 0.41 1.24 0.46 0.97 0.39 0.98 0.4 1.16 0.52 0.98 0.46 1.16 0.57 1.26 0.68 0.96 0.55 0.86 0.51 1.08 0.68 1.25 0.84 1 0.73 1.11 0.85 1.06 0.88 0.93 0.8 1.05 0.99 1.03 1.03 0.93 1.02 -39.46 35.22 0.29 0.32 0.35 0.35 0.35 0.33 0.19 0.16 0.3 0.24 0.29 0.23 0.18 0.13 0.39 0.26 0.18 0.12 -0.08 -0.05 0.02 0.01 0.26 0.14 0.14 0.07 -0.08 -0.04 0.08 0.04 -0.14 -0.06 -0.17 -0.07 0.06 0.02 -0.06 -0.01 -0.31 -0.11 -0.23 -0.07 -0.14 -0.04 -0.16 -0.04 -0.34 -0.08 -0.44 -0.11 -0.25 -0.06 -0.45 -0.09 -0.44 -0.09 -0.35 -0.06 -0.39 -0.07 -0.52 -0.08 -0.54 -0.08 -22.8 -26.19zm22.8 26.19c-14.46,-2.01 -24.56,-15.38 -22.55,-29.84 2.01,-14.46 15.39,-24.55 29.85,-22.54l-7.3 52.38zm30.1 -35.89l0 9.7 -52.9 0 0 -9.7 26.45 -26.44 26.45 26.44zm-52.9 0c0,-14.6 11.85,-26.44 26.45,-26.44 14.6,0 26.45,11.84 26.45,26.44l-52.9 0zm170.23 26.44l-143.78 0 0 -52.88 143.78 0 26.45 26.44 -26.45 26.44zm0 -52.88c14.6,0 26.45,11.84 26.45,26.44 0,14.6 -11.85,26.44 -26.45,26.44l0 -52.88zm-26.45 36.14l0 -9.7 52.9 0 0 9.7 -21.43 25.96 -31.47 -25.96zm52.9 0c0,14.6 -11.85,26.44 -26.45,26.44 -14.6,0 -26.45,-11.84 -26.45,-26.44l52.9 0zm-19.5 16.56l-52.9 0 0 0 0.06 -2.14 0.15 -2.02 0.25 -2.04 0.39 -2.2 0.52 -2.19 0.67 -2.23 0.72 -1.98 0.89 -2.1 1.06 -2.11 1.04 -1.82 1.19 -1.84 1.36 -1.86 1.39 -1.69 1.35 -1.48 1.58 -1.57 1.63 -1.44 1.46 -1.19 1.61 -1.2 1.64 -1.1 1.61 -1 1.74 -0.98 1.62 -0.84 1.75 -0.82 1.7 -0.73 1.59 -0.63 1.63 -0.59 1.76 -0.59 1.76 -0.52 1.62 -0.45 1.77 -0.44 1.67 -0.37 1.75 -0.36 10.04 51.92 -0.65 0.14 -0.67 0.15 -0.47 0.12 -0.56 0.15 -0.34 0.1 -0.26 0.09 -0.31 0.11 -0.27 0.11 -0.1 0.03 0.03 0 -0.02 0 0.18 -0.1 0.13 -0.08 0.24 -0.16 0.27 -0.2 0.2 -0.17 0.45 -0.4 0.48 -0.47 0.33 -0.36 0.43 -0.53 0.5 -0.68 0.39 -0.6 0.32 -0.56 0.4 -0.81 0.33 -0.76 0.22 -0.62 0.25 -0.83 0.18 -0.75 0.13 -0.74 0.07 -0.54 0.03 -0.48 0.02 -0.56 0 0zm4.45 12.51l-48.26 21.66 0.05 0.12 -0.47 -1.06 -0.49 -1.1 -0.5 -1.14 -0.46 -1.1 -0.45 -1.08 -0.41 -1.02 -0.38 -0.95 -0.44 -1.12 -0.4 -1.07 -0.41 -1.12 -0.38 -1.08 -0.31 -0.92 -0.38 -1.12 -0.33 -1.06 -0.29 -0.92 -0.28 -0.95 -0.32 -1.12 -0.33 -1.21 -0.23 -0.95 -0.24 -0.95 -0.24 -1.1 -0.24 -1.11 -0.21 -1.11 -0.16 -0.96 -0.16 -0.96 -0.17 -1.16 -0.14 -1.16 -0.12 -1.21 -0.09 -1.21 -0.05 -0.99 -0.04 -1.01 -0.02 -1.27 52.9 0 0 -0.21 0 0.07 0.01 0.11 -0.01 -0.07 0 -0.05 0 0.02 0.01 0.06 0.04 0.28 0.06 0.3 0.03 0.17 0.04 0.21 0.06 0.24 0.1 0.43 0.11 0.43 0.05 0.21 0.1 0.34 0.16 0.51 0.17 0.58 0.15 0.46 0.14 0.44 0.23 0.64 0.18 0.54 0.19 0.5 0.22 0.59 0.22 0.56 0.3 0.75 0.29 0.72 0.27 0.66 0.3 0.7 0.28 0.66 0.33 0.74 0.37 0.8 0.05 0.12zm58.64 259.75l-106.9 -238.09 48.26 -21.66 106.9 238.09 0 21.65 -48.26 0.01zm48.26 -21.66c5.98,13.32 0.02,28.97 -13.3,34.95 -13.32,5.98 -28.98,0.03 -34.96,-13.29l48.26 -21.66zm296.99 67.4l0 -81.22 52.9 0 0 81.22 -26.45 26.44 -26.45 -26.44zm52.9 0c0,14.6 -11.85,26.44 -26.45,26.44 -14.6,0 -26.45,-11.84 -26.45,-26.44l52.9 0zm183.31 26.44l-209.76 0 0 -52.88 209.76 0 0 0 0 52.88zm-3 -50.7l34.08 40.44 0 0 -0.95 0.77 -0.84 0.65 -1.07 0.78 -0.94 0.63 -1.01 0.65 -1.12 0.66 -0.6 0.33 -1.13 0.61 -1.26 0.61 -0.76 0.35 -1.02 0.45 -0.98 0.39 -1.05 0.4 -1.03 0.36 -0.96 0.3 -1.05 0.32 -0.85 0.23 -1.13 0.29 -1.05 0.23 -0.79 0.17 -1.1 0.21 -1.1 0.18 -0.79 0.11 -0.82 0.12 -1.08 0.12 -1.07 0.11 -0.8 0.06 -0.79 0.06 -1.3 0.06 -0.81 0.02 -0.8 0.03 -1.03 0 0 -52.88 0.09 0 0.32 -0.01 0.29 0 -0.22 0 0.27 -0.02 0.26 -0.02 -0.03 0.01 -0.06 0 0.18 -0.02 0.19 -0.03 -0.12 0.02 -0.16 0.03 0.15 -0.03 -0.13 0.03 -0.21 0.05 0.03 -0.01 -0.17 0.06 -0.1 0.02 -0.21 0.08 -0.21 0.08 -0.18 0.07 -0.24 0.11 0.02 -0.01 -0.5 0.25 -0.41 0.21 0.12 -0.07 -0.4 0.24 -0.33 0.21 -0.28 0.19 -0.41 0.3 -0.22 0.17 -0.33 0.27 0 0zm24.82 -20.97l0 52.88 25.55 -19.6 -0.26 0.97 -0.29 0.98 -0.24 0.8 -0.3 0.98 -0.3 0.92 -0.33 0.98 -0.32 0.9 -0.29 0.79 -0.37 0.97 -0.36 0.89 -0.4 0.97 -0.43 0.98 -0.4 0.88 -0.38 0.78 -0.37 0.76 -0.55 1.08 -0.54 0.97 -0.38 0.66 -0.57 0.98 -0.53 0.85 -0.63 0.98 -0.68 0.96 -0.46 0.65 -0.59 0.79 -0.64 0.82 -0.94 1.14 -0.56 0.62 -0.71 0.8 -1.08 1.09 -0.62 0.61 -0.81 0.75 -0.96 0.83 -34.08 -40.44 -0.36 0.31 -0.21 0.19 -0.04 0.05 -0.48 0.49 -0.15 0.16 0.02 -0.02 -0.38 0.46 -0.1 0.12 -0.05 0.07 0.08 -0.11 -0.14 0.2 -0.11 0.16 -0.01 0.03 -0.07 0.12 0.12 -0.22 -0.04 0.07 -0.07 0.14 0.09 -0.18 0.1 -0.22 0.06 -0.12 0.03 -0.06 0.04 -0.09 0.08 -0.21 0.05 -0.13 0.13 -0.37 0.1 -0.26 0.07 -0.22 0.1 -0.3 0.08 -0.26 0.14 -0.48 0.09 -0.32 0.1 -0.37 25.55 -19.6zm-25.55 19.6c3.77,-14.1 18.28,-22.47 32.39,-18.7 14.11,3.77 22.48,18.28 18.71,32.38l-51.1 -13.68zm34.04 33.28l-8.49 0 0 -52.88 8.49 0 26.45 26.44 -26.45 26.44zm0 -52.88c14.6,0 26.45,11.84 26.45,26.44 0,14.6 -11.85,26.44 -26.45,26.44l0 -52.88zm-26.45 124.02l0 -97.58 52.9 0 0 97.58 -26.45 26.44 -26.45 -26.44zm52.9 0c0,14.6 -11.85,26.44 -26.45,26.44 -14.6,0 -26.45,-11.84 -26.45,-26.44l52.9 0zm-34.94 -26.44l8.49 0 0 52.88 -8.49 0 -25.57 -19.67 25.57 -33.21zm0 52.88c-14.6,0 -26.45,-11.84 -26.45,-26.44 0,-14.6 11.85,-26.44 26.45,-26.44l0 52.88zm-24.81 -20.84l34.26 -40.3 -0.03 -0.02 0.76 0.66 0.99 0.9 1.08 1.08 0.44 0.46 0.74 0.79 0.95 1.1 0.68 0.81 0.63 0.82 0.63 0.84 0.59 0.83 0.62 0.91 0.67 1.05 0.45 0.73 0.46 0.77 0.55 0.98 0.47 0.87 0.45 0.87 0.47 0.97 0.42 0.88 0.39 0.87 0.33 0.77 0.38 0.89 0.46 1.17 0.33 0.9 0.25 0.69 0.27 0.77 0.38 1.1 0.28 0.91 0.24 0.78 0.27 0.92 0.26 0.91 0.26 0.95 -51.14 13.54 -0.08 -0.33 -0.1 -0.33 -0.09 -0.32 -0.14 -0.42 -0.08 -0.27 -0.02 -0.06 -0.13 -0.37 -0.15 -0.41 -0.07 -0.2 0.04 0.11 -0.06 -0.15 -0.11 -0.25 -0.05 -0.11 -0.04 -0.1 0.01 0.03 -0.03 -0.05 -0.01 -0.03 0.05 0.1 -0.04 -0.07 -0.05 -0.09 0.15 0.23 0.08 0.13 0.07 0.09 0.07 0.1 0.09 0.12 0.1 0.11 0.39 0.44 0.14 0.17 -0.14 -0.16 0.48 0.48 0.37 0.34 0.14 0.12 -0.03 -0.02zm2.99 2.05l0 -52.88 0 0 1.03 0 1.04 0.03 0.81 0.04 0.81 0.04 1.04 0.06 1.05 0.1 0.82 0.08 1.08 0.12 1.08 0.16 1.05 0.17 1.06 0.19 0.84 0.17 0.85 0.19 1.05 0.25 1.12 0.29 1.12 0.33 0.78 0.25 0.78 0.25 1.14 0.4 1.13 0.44 1.02 0.43 1.13 0.5 0.88 0.43 1.12 0.57 0.98 0.54 0.74 0.43 1.23 0.76 0.71 0.47 0.94 0.63 1.2 0.89 0.68 0.53 0.96 0.79 -34.26 40.3 0.32 0.27 0.04 0.03 0.54 0.39 0.24 0.17 0.03 0.01 0.51 0.32 0 0.01 0.24 0.12 0.36 0.19 0.1 0.05 0.33 0.14 0.2 0.09 0.31 0.12 0.28 0.1 -0.08 -0.03 -0.1 -0.03 0.24 0.07 0.2 0.05 0.13 0.03 -0.09 -0.01 -0.12 -0.03 0.08 0.01 0.07 0.01 0.08 0.02 0.06 0 -0.22 -0.02 -0.01 0 -0.02 0 -0.27 -0.02 -0.29 0 -0.08 -0.01 -0.09 0 0 0zm-307.97 -52.88l307.97 0 0 52.88 -307.97 0 -26.45 -26.44 26.45 -26.44zm0 52.88c-14.6,0 -26.45,-11.84 -26.45,-26.44 0,-14.6 11.85,-26.44 26.45,-26.44l0 52.88zm26.45 -34.93l0 8.49 -52.9 0 0 -8.49 19.71 -25.57 33.19 25.57zm-52.9 0c0,-14.6 11.85,-26.44 26.45,-26.44 14.6,0 26.45,11.84 26.45,26.44l-52.9 0zm20.82 -24.76l40.36 34.18 -0.02 0.03 -0.64 0.74 -0.9 0.98 -1.08 1.08 -0.63 0.6 -0.62 0.57 -1.1 0.96 -0.82 0.67 -0.81 0.64 -0.84 0.62 -0.83 0.6 -1.1 0.74 -0.66 0.42 -0.73 0.46 -1.17 0.69 -0.78 0.43 -0.87 0.48 -1.07 0.54 -0.77 0.38 -0.68 0.32 -1.08 0.49 -0.97 0.41 -0.68 0.29 -0.97 0.38 -0.9 0.35 -0.89 0.32 -0.97 0.34 -0.91 0.3 -0.91 0.29 -0.96 0.29 -0.73 0.21 -0.92 0.27 -0.98 0.26 -13.48 -51.14 0.3 -0.08 0.32 -0.09 0.51 -0.15 0.24 -0.07 0.27 -0.09 0.25 -0.08 0.17 -0.06 0.21 -0.08 0.2 -0.07 0.09 -0.04 0.36 -0.15 0.05 -0.01 -0.1 0.03 0.3 -0.14 0.17 -0.08 -0.15 0.08 0.03 -0.02 0.1 -0.05 -0.33 0.19 0.09 -0.06 0.16 -0.1 -0.32 0.22 -0.09 0.06 -0.1 0.08 -0.11 0.08 -0.12 0.11 -0.44 0.38 0 -0.01 -0.01 0.02 -0.48 0.48 -0.34 0.36 -0.1 0.12 -0.02 0.03zm-2.02 2.84l52.9 0 0 0 -0.01 1.03 -0.03 1.05 -0.03 0.81 -0.04 0.81 -0.06 1.06 -0.1 1.07 -0.11 1.04 -0.13 1.05 -0.12 0.83 -0.13 0.84 -0.18 1.09 -0.23 1.11 -0.17 0.78 -0.31 1.32 -0.24 0.85 -0.23 0.86 -0.44 1.39 -0.3 0.87 -0.28 0.77 -0.39 1.04 -0.47 1.13 -0.51 1.12 -0.42 0.88 -0.5 0.99 -0.62 1.12 -0.5 0.87 -0.45 0.73 -0.69 1.09 -0.79 1.13 -0.63 0.85 -0.64 0.83 -0.77 0.93 -40.36 -34.18 -0.25 0.29 -0.14 0.19 -0.13 0.17 -0.31 0.45 -0.25 0.39 -0.01 0.01 -0.08 0.15 -0.2 0.36 -0.12 0.23 -0.04 0.1 -0.15 0.32 -0.13 0.31 -0.07 0.2 0.02 -0.07 0 0.01 -0.16 0.51 0.01 -0.04 0.02 -0.07 -0.09 0.38 0.03 -0.16 -0.03 0.15 -0.02 0.11 0.03 -0.16 0.02 -0.19 0.01 0.01 -0.01 0 0 0.01 0 -0.02 0.02 -0.29 0.01 -0.31 0.01 -0.09 -0.01 -0.11 0 0zm52.9 -270.71l0 270.71 -52.9 0 0 -270.71 0 0 52.9 0zm-50.57 3.4l39.94 -34.68 -0.04 -0.04 0.64 0.75 0.85 1.04 0.79 1.08 0.6 0.86 0.58 0.87 0.6 0.95 0.65 1.12 0.49 0.88 0.58 1.13 0.36 0.76 0.53 1.14 0.47 1.14 0.34 0.87 0.41 1.14 0.26 0.78 0.28 0.86 0.41 1.4 0.28 1.12 0.12 0.52 0.26 1.11 0.22 1.11 0.15 0.83 0.18 1.1 0.14 1.05 0.13 1.07 0.08 0.82 0.1 1.07 0.06 1.06 0.04 0.8 0.03 0.81 0.03 1.05 0.01 1.03 -52.9 0 0.01 -0.11 -0.01 -0.09 -0.01 -0.29 -0.02 -0.3 0 -0.02 0 0.01 -0.02 -0.22 0.01 0.05 0 0.05 0.02 0.1 -0.03 -0.13 0.04 0.15 0.04 0.19 -0.1 -0.4 0.06 0.22 0.15 0.52 0 0 -0.02 -0.06 0.11 0.3 0.02 0.07 0.15 0.34 0.17 0.38 0 0 0.2 0.39 0.09 0.16 0.25 0.42 0.16 0.27 0.14 0.19 0.14 0.22 0.33 0.44 0.35 0.44 0.14 0.15 -0.04 -0.04zm-21.13 -25.32l52.9 0 -18.86 -25.33 0.85 0.26 0.99 0.31 0.93 0.3 0.92 0.32 0.99 0.35 0.79 0.3 0.8 0.3 0.89 0.35 0.91 0.38 0.86 0.36 0.88 0.39 0.89 0.42 0.97 0.46 0.69 0.35 0.78 0.39 0.97 0.53 0.86 0.48 0.98 0.57 0.65 0.41 0.67 0.41 1.1 0.72 0.83 0.59 0.65 0.46 0.97 0.73 0.79 0.62 0.62 0.52 0.99 0.85 0.78 0.71 0.62 0.58 0.94 0.95 0.77 0.81 0.7 0.79 -39.94 34.68 0.18 0.21 0.23 0.23 0.36 0.37 0.02 0.02 0.16 0.13 0.33 0.29 -0.04 -0.02 0.09 0.06 0.25 0.19 -0.11 -0.08 0.07 0.05 0.3 0.2 -0.17 -0.11 -0.19 -0.11 0.1 0.05 -0.04 -0.02 0.05 0.03 -0.18 -0.09 -0.29 -0.15 -0.03 -0.02 -0.15 -0.06 -0.16 -0.07 -0.22 -0.1 -0.21 -0.08 -0.23 -0.09 -0.36 -0.14 -0.39 -0.14 -0.23 -0.09 -0.32 -0.1 -0.33 -0.12 -0.29 -0.09 -0.47 -0.14 -18.86 -25.33zm18.86 25.33c-13.99,-4.19 -21.94,-18.94 -17.75,-32.92 4.19,-13.98 18.94,-21.93 32.93,-17.74l-15.18 50.66zm34.04 -33.82l0 8.49 -52.9 0 0 -8.49 26.45 -26.44 26.45 26.44zm-52.9 0c0,-14.6 11.85,-26.44 26.45,-26.44 14.6,0 26.45,11.84 26.45,26.44l-52.9 0zm325.63 26.44l-299.18 0 0 -52.88 299.18 0 0 0 0 52.88zm-2.5 -51.05l33.48 40.94 0.34 -0.28 -0.78 0.64 -1.05 0.82 -1.07 0.77 -0.86 0.59 -0.87 0.56 -0.96 0.59 -1.12 0.63 -0.88 0.47 -1 0.5 -1.13 0.53 -0.88 0.39 -0.87 0.36 -1.14 0.44 -1.04 0.37 -1.13 0.36 -0.86 0.26 -0.86 0.25 -1.12 0.29 -1.11 0.26 -1.05 0.22 -0.79 0.15 -0.89 0.16 -1.09 0.17 -1.05 0.14 -1.07 0.13 -0.83 0.08 -1.05 0.09 -1.05 0.06 -0.82 0.05 -0.81 0.03 -1.05 0.03 -1.04 0 0 -52.88 0.12 0 0.11 -0.01 0.31 -0.01 0.3 -0.01 0.03 0 0.03 -0.01 0.23 -0.02 -0.03 0.01 -0.03 0 -0.07 0.01 0.09 -0.02 0.17 -0.03 -0.09 0.02 -0.17 0.04 -0.2 0.05 0.04 -0.01 0.02 0 -0.27 0.08 -0.2 0.07 -0.3 0.12 -0.07 0.02 -0.08 0.05 -0.37 0.17 -0.24 0.12 -0.14 0.07 -0.4 0.23 -0.26 0.15 -0.17 0.12 -0.2 0.13 -0.41 0.31 -0.43 0.32 -0.16 0.14 0.34 -0.28zm24.63 -20.62l0 52.88 25.52 -19.51 -0.26 0.97 -0.29 0.98 -0.22 0.74 -0.31 0.98 -0.32 0.97 -0.31 0.91 -0.33 0.91 -0.36 0.98 -0.38 0.97 -0.29 0.69 -0.41 0.98 -0.43 0.97 -0.41 0.88 -0.42 0.88 -0.39 0.77 -0.51 0.97 -0.48 0.87 -0.49 0.86 -0.59 0.98 -0.62 0.97 -0.56 0.84 -0.55 0.78 -0.7 0.97 -0.64 0.82 -0.66 0.82 -0.81 0.95 -0.56 0.62 -0.73 0.8 -1.08 1.08 -0.79 0.75 -0.83 0.74 -0.94 0.79 -33.48 -40.94 -0.32 0.27 -0.21 0.18 -0.19 0.19 -0.48 0.48 -0.15 0.16 0.02 -0.02 -0.23 0.27 -0.1 0.12 -0.08 0.1 -0.16 0.23 -0.01 0 -0.02 0.04 -0.1 0.15 -0.07 0.12 0.01 -0.02 0.02 -0.03 -0.03 0.05 0.09 -0.19 0.06 -0.1 0.05 -0.12 0.03 -0.05 0.03 -0.08 0.15 -0.39 0.06 -0.13 0.06 -0.16 0.09 -0.25 0.09 -0.27 0.08 -0.23 0.07 -0.26 0.16 -0.52 0.09 -0.3 0.1 -0.35 25.52 -19.51zm-25.52 19.51c3.82,-14.09 18.36,-22.41 32.45,-18.59 14.09,3.82 22.41,18.36 18.59,32.45l-51.04 -13.86zm33.4 33.37l-7.88 0 0 -52.88 7.88 0 26.45 26.44 -26.45 26.44zm0 -52.88c14.6,0 26.45,11.84 26.45,26.44 0,14.6 -11.85,26.44 -26.45,26.44l0 -52.88zm-26.45 124.02l0 -97.58 52.9 0 0 97.58 -26.45 26.44 -26.45 -26.44zm52.9 0c0,14.6 -11.85,26.44 -26.45,26.44 -14.6,0 -26.45,-11.84 -26.45,-26.44l52.9 0zm-34.33 -26.44l7.88 0 0 52.88 -7.88 0 -25.55 -19.6 25.55 -33.28zm0 52.88c-14.6,0 -26.45,-11.84 -26.45,-26.44 0,-14.6 11.85,-26.44 26.45,-26.44l0 52.88zm-24.52 -20.71l33.46 -40.96 0.31 0.26 0.96 0.83 0.65 0.6 0.79 0.76 1.22 1.26 0.56 0.63 0.56 0.62 0.94 1.14 0.5 0.64 0.6 0.78 0.74 1.03 0.65 0.96 0.51 0.79 0.53 0.85 0.57 0.98 0.38 0.66 0.54 0.97 0.45 0.88 0.39 0.76 0.47 0.98 0.49 1.08 0.33 0.78 0.41 0.97 0.35 0.89 0.31 0.78 0.36 0.98 0.32 0.9 0.33 0.98 0.3 0.92 0.3 0.98 0.24 0.8 0.29 0.98 0.26 0.97 -51.1 13.68 -0.1 -0.37 -0.09 -0.32 -0.14 -0.48 -0.08 -0.26 -0.1 -0.3 -0.07 -0.22 -0.1 -0.26 -0.06 -0.18 -0.13 -0.32 -0.07 -0.21 -0.05 -0.09 -0.11 -0.26 0.03 0.08 -0.01 -0.02 -0.09 -0.18 -0.03 -0.06 0.04 0.07 -0.12 -0.22 0.07 0.12 0.01 0.03 -0.01 -0.03 0.13 0.2 0.2 0.27 0.04 0.06 -0.04 -0.06 0.38 0.46 -0.02 -0.02 0 -0.01 0.64 0.66 0.19 0.2 0.05 0.04 0.36 0.31 0.31 0.26zm2.39 1.92l0 -52.88 0 0 1.04 0 0.82 0.03 0.8 0.01 1.3 0.07 0.81 0.06 0.81 0.06 1.07 0.1 1.04 0.12 0.84 0.11 0.86 0.13 1.05 0.17 1.06 0.19 0.84 0.17 1.11 0.25 1.12 0.28 0.85 0.23 1.05 0.31 0.87 0.28 1.13 0.38 1.04 0.39 0.87 0.34 1.14 0.48 0.87 0.41 1.01 0.48 1 0.52 1.01 0.55 1.11 0.66 0.58 0.36 1.09 0.71 1.22 0.87 0.69 0.52 0.97 0.76 -33.46 40.96 0.33 0.26 0.05 0.04 0.56 0.39 0.39 0.27 -0.12 -0.08 0.41 0.24 0.27 0.15 0.24 0.12 0.25 0.12 0.09 0.05 0.34 0.14 0.05 0.02 0.2 0.07 0.29 0.1 -0.01 0 0.17 0.05 -0.05 -0.01 0.2 0.04 0.17 0.05 -0.12 -0.03 0.08 0.01 0.07 0.01 -0.14 -0.01 -0.2 -0.03 0 0 0.01 0 -0.27 -0.02 -0.27 -0.02 0.18 0.01 -0.32 -0.01 -0.34 -0.01 -0.12 0 0 0zm-200.97 -52.88l200.97 0 0 52.88 -200.97 0 -26.45 -26.44 26.45 -26.44zm0 52.88c-14.6,0 -26.45,-11.84 -26.45,-26.44 0,-14.6 11.85,-26.44 26.45,-26.44l0 52.88zm-26.45 46.29l0 -72.73 52.9 0 0 72.73 -26.45 26.44 -26.45 -26.44zm52.9 0c0,14.6 -11.85,26.44 -26.45,26.44 -14.6,0 -26.45,-11.84 -26.45,-26.44l52.9 0zm98.13 26.44l-124.58 0 0 -52.88 124.58 0 0 0 0 52.88zm-2.99 -50.8l34.08 40.44 0 0 -0.91 0.74 -0.89 0.69 -0.91 0.66 -1.01 0.7 -0.87 0.56 -0.96 0.59 -1.12 0.63 -0.88 0.47 -1 0.5 -1.13 0.53 -0.88 0.39 -0.77 0.32 -1.13 0.44 -1.14 0.41 -1.05 0.34 -0.85 0.26 -0.87 0.25 -1.05 0.28 -1.11 0.26 -1.11 0.24 -0.79 0.15 -0.84 0.15 -1.1 0.18 -1.04 0.15 -1.08 0.12 -0.8 0.08 -1.06 0.1 -1.06 0.06 -0.8 0.04 -0.8 0.04 -1.04 0.03 -1.04 0 0 -52.88 0.1 0 0.06 -0.01 0.3 0 0.28 -0.02 0.02 0 -0.02 0 0.24 -0.02 -0.06 0 -0.04 0.01 -0.1 0.02 0.12 -0.03 0.17 -0.03 -0.17 0.04 -0.19 0.04 -0.15 0.04 0.03 -0.01 0.01 0 -0.19 0.06 -0.3 0.11 -0.31 0.12 0.03 -0.02 -0.08 0.05 -0.37 0.17 -0.24 0.12 -0.14 0.07 -0.4 0.23 -0.26 0.15 -0.17 0.12 -0.35 0.24 -0.27 0.2 -0.25 0.19 -0.29 0.24 0 0zm25.12 -20.87l0 52.88 25.34 -18.86 -0.26 0.85 -0.31 0.99 -0.31 0.93 -0.31 0.92 -0.36 0.99 -0.29 0.8 -0.3 0.79 -0.36 0.9 -0.37 0.9 -0.45 1.06 -0.4 0.88 -0.33 0.7 -0.37 0.77 -0.43 0.88 -0.51 0.98 -0.53 0.97 -0.49 0.86 -0.47 0.78 -0.4 0.66 -0.54 0.85 -0.73 1.1 -0.59 0.83 -0.48 0.65 -0.59 0.78 -0.92 1.14 -0.54 0.63 -0.55 0.63 -0.87 0.95 -0.76 0.78 -0.95 0.92 -0.84 0.76 -0.77 0.66 -34.08 -40.44 -0.17 0.14 -0.24 0.22 -0.35 0.34 -0.18 0.18 -0.29 0.33 0.01 -0.03 0.04 -0.03 -0.36 0.44 -0.05 0.06 0.08 -0.11 -0.05 0.07 -0.19 0.3 -0.02 0.01 0.12 -0.18 0.05 -0.1 0.03 -0.04 -0.03 0.05 -0.01 0.02 0.05 -0.1 0.11 -0.23 0.15 -0.34 0.08 -0.16 0.01 -0.02 0.09 -0.22 0.08 -0.22 0.14 -0.37 0.15 -0.38 0.08 -0.23 0.11 -0.32 0.11 -0.33 0.09 -0.29 0.14 -0.47 25.34 -18.86zm-25.34 18.86c4.19,-13.98 18.94,-21.93 32.93,-17.75 13.99,4.18 21.94,18.93 17.75,32.91l-50.68 -15.16zm33.22 34.02l-7.88 0 0 -52.88 7.88 0 26.45 26.44 -26.45 26.44zm0 -52.88c14.6,0 26.45,11.84 26.45,26.44 0,14.6 -11.85,26.44 -26.45,26.44l0 -52.88zm-26.45 121.6l0 -95.16 52.9 0 0 95.16 -26.45 26.44 -26.45 -26.44zm52.9 0c0,14.6 -11.85,26.44 -26.45,26.44 -14.6,0 -26.45,-11.84 -26.45,-26.44l52.9 0zm-34.33 -26.44l7.88 0 0 52.88 -7.88 0 -25.5 -19.42 25.5 -33.46zm0 52.88c-14.6,0 -26.45,-11.84 -26.45,-26.44 0,-14.6 11.85,-26.44 26.45,-26.44l0 52.88zm-24.51 -20.61l33.46 -40.96 0.7 0.59 0.74 0.67 0.97 0.92 0.92 0.93 0.44 0.47 0.86 0.94 0.81 0.96 0.4 0.49 0.76 0.96 0.72 0.97 0.59 0.84 0.56 0.84 0.51 0.78 0.41 0.66 0.52 0.85 0.67 1.18 0.52 0.97 0.35 0.68 0.34 0.67 0.47 0.97 0.5 1.08 0.3 0.69 0.42 0.96 0.38 0.98 0.28 0.7 0.34 0.9 0.36 0.97 0.33 0.98 0.3 0.91 0.29 0.92 0.23 0.73 0.29 0.98 0.27 0.97 -51 14.04 -0.09 -0.33 -0.09 -0.28 -0.15 -0.51 -0.09 -0.3 -0.1 -0.29 -0.07 -0.2 -0.06 -0.17 -0.08 -0.22 -0.16 -0.4 -0.04 -0.1 -0.04 -0.08 -0.14 -0.33 0.04 0.08 -0.01 -0.01 -0.14 -0.27 -0.13 -0.26 0.04 0.07 0.17 0.3 0 0.01 -0.11 -0.18 -0.01 -0.02 0.04 0.06 0.05 0.08 0.18 0.23 0.2 0.26 -0.16 -0.19 0.25 0.28 0.28 0.32 -0.14 -0.15 0.34 0.33 0.37 0.36 0.14 0.13 0.7 0.59zm2.38 1.82l0 -52.88 0 0 1.04 0 1.05 0.03 0.81 0.03 0.81 0.05 1.06 0.06 1.06 0.09 0.83 0.08 1.07 0.13 1.05 0.14 1.09 0.17 0.84 0.15 1.05 0.2 1.17 0.26 0.52 0.13 1.06 0.25 1.19 0.34 1.04 0.31 1.13 0.38 0.61 0.22 1.04 0.38 1.13 0.46 1.13 0.49 1.13 0.54 0.5 0.25 1 0.51 1.25 0.7 0.87 0.52 0.8 0.51 1.09 0.72 1 0.72 0.69 0.52 0.97 0.76 -33.46 40.96 0.33 0.26 0.05 0.04 0.34 0.24 0.39 0.26 0.1 0.07 0.17 0.1 0.51 0.28 0.24 0.13 -0.26 -0.13 0.35 0.16 0.33 0.15 0.31 0.12 0.2 0.08 -0.23 -0.08 0.25 0.08 0.16 0.05 0.29 0.08 0.12 0.03 -0.4 -0.09 0.21 0.04 0.07 0.02 -0.14 -0.03 0.07 0.01 0.03 0 0.03 0.01 -0.23 -0.02 -0.02 -0.01 -0.04 0 -0.31 -0.01 -0.31 -0.01 -0.11 -0.01 -0.12 0 0 0zm-124.58 -52.88l124.58 0 0 52.88 -124.58 0 -26.45 -26.44 26.45 -26.44zm0 52.88c-14.6,0 -26.45,-11.84 -26.45,-26.44 0,-14.6 11.85,-26.44 26.45,-26.44l0 52.88zm450.96 84.17l0 -240.92 52.9 0 0 240.92 0 0 -52.9 0zm50.82 -3l-40.46 34.08 -0.23 -0.28 -0.63 -0.8 -0.69 -0.89 -0.76 -1.08 -0.58 -0.86 -0.45 -0.72 -0.68 -1.1 -0.62 -1.12 -0.33 -0.61 -0.57 -1.13 -0.58 -1.25 -0.33 -0.77 -0.32 -0.77 -0.45 -1.13 -0.37 -1.04 -0.38 -1.13 -0.26 -0.87 -0.22 -0.78 -0.3 -1.12 -0.26 -1.06 -0.23 -1.1 -0.17 -0.85 -0.14 -0.79 -0.18 -1.09 -0.15 -1.05 -0.13 -1.08 -0.08 -0.82 -0.09 -1.04 -0.07 -1.06 -0.04 -0.81 -0.03 -0.81 -0.03 -1.04 -0.01 -1.03 52.9 0 -0.01 0.09 0.01 0.08 0.01 0.29 0.02 0.27 -0.01 0 0.01 0 0.02 0.22 -0.01 -0.08 -0.01 -0.05 -0.02 -0.11 0.04 0.17 0.01 0.11 -0.03 -0.18 -0.04 -0.14 -0.06 -0.22 0.04 0.1 0 0.01 -0.1 -0.29 -0.07 -0.2 -0.13 -0.31 0.02 0.03 0.01 0.03 -0.22 -0.47 -0.19 -0.39 0.07 0.13 -0.22 -0.38 -0.24 -0.4 -0.01 -0.02 -0.12 -0.18 -0.3 -0.42 -0.19 -0.25 -0.13 -0.16 -0.23 -0.28zm20.87 25.12l-52.9 0 18.85 25.33 -0.84 -0.26 -0.99 -0.31 -0.93 -0.3 -0.98 -0.34 -0.98 -0.36 -0.73 -0.27 -0.72 -0.27 -0.98 -0.38 -0.98 -0.41 -0.89 -0.38 -0.78 -0.35 -0.98 -0.45 -0.87 -0.43 -0.69 -0.34 -0.97 -0.51 -0.78 -0.42 -0.86 -0.48 -0.86 -0.5 -0.98 -0.6 -0.96 -0.63 -0.66 -0.44 -0.78 -0.55 -0.97 -0.7 -0.82 -0.64 -0.64 -0.51 -0.96 -0.8 -0.79 -0.71 -0.63 -0.57 -1.09 -1.06 -0.76 -0.8 -0.6 -0.65 -0.83 -0.95 40.46 -34.08 -0.31 -0.35 -0.04 -0.05 -0.2 -0.2 -0.49 -0.48 0.01 0.01 -0.15 -0.13 -0.28 -0.24 0.06 0.05 -0.1 -0.08 -0.23 -0.16 0 -0.01 0.14 0.1 -0.14 -0.09 -0.12 -0.08 0.02 0.02 0.04 0.02 0.14 0.08 -0.01 -0.01 0.29 0.14 0.13 0.07 0.04 0.01 0.28 0.13 0.19 0.08 0.12 0.05 0.16 0.06 0.44 0.17 0.45 0.17 0.22 0.08 0.26 0.08 0.33 0.12 0.29 0.09 0.48 0.14 18.85 25.33zm-18.85 -25.33c13.98,4.19 21.92,18.95 17.73,32.93 -4.19,13.98 -18.95,21.92 -32.93,17.73l15.2 -50.66zm-34.05 33.82l0 -8.49 52.9 0 0 8.49 -26.45 26.44 -26.45 -26.44zm52.9 0c0,14.6 -11.85,26.44 -26.45,26.44 -14.6,0 -26.45,-11.84 -26.45,-26.44l52.9 0zm-143.45 -26.44l117 0 0 52.88 -117 0 -26.45 -26.44 26.45 -26.44zm0 52.88c-14.6,0 -26.45,-11.84 -26.45,-26.44 0,-14.6 11.85,-26.44 26.45,-26.44l0 52.88zm26.45 -34.93l0 8.49 -52.9 0 0 -8.49 19.71 -25.57 33.19 25.57zm-52.9 0c0,-14.6 11.85,-26.44 26.45,-26.44 14.6,0 26.45,11.84 26.45,26.44l-52.9 0zm20.82 -24.76l40.36 34.18 -0.02 0.03 -0.64 0.74 -0.9 0.98 -1.08 1.08 -0.63 0.6 -0.62 0.57 -1.1 0.96 -0.82 0.67 -0.81 0.64 -0.84 0.62 -0.83 0.6 -1.1 0.74 -0.66 0.42 -0.73 0.46 -1.17 0.69 -0.78 0.43 -0.87 0.48 -1.07 0.54 -0.77 0.38 -0.68 0.32 -1.08 0.49 -0.97 0.41 -0.68 0.29 -0.97 0.38 -0.9 0.35 -0.89 0.32 -0.97 0.34 -0.91 0.3 -0.91 0.29 -0.96 0.29 -0.73 0.21 -0.92 0.27 -0.98 0.26 -13.48 -51.14 0.3 -0.08 0.32 -0.09 0.51 -0.15 0.24 -0.07 0.27 -0.09 0.25 -0.08 0.17 -0.06 0.21 -0.08 0.2 -0.07 0.09 -0.04 0.36 -0.15 0.05 -0.01 -0.1 0.03 0.3 -0.14 0.17 -0.08 -0.15 0.08 0.03 -0.02 0.1 -0.05 -0.33 0.19 0.09 -0.06 0.16 -0.1 -0.32 0.22 -0.09 0.06 -0.1 0.08 -0.11 0.08 -0.12 0.11 -0.44 0.38 0 -0.01 -0.01 0.02 -0.48 0.48 -0.34 0.36 -0.1 0.12 -0.02 0.03zm-2.03 2.84l52.9 0 0 0 -0.01 1.03 -0.03 1.05 -0.03 0.81 -0.04 0.81 -0.06 1.06 -0.1 1.07 -0.08 0.79 -0.12 1.05 -0.15 1.08 -0.17 1.09 -0.2 1.1 -0.18 0.85 -0.17 0.78 -0.24 1.06 -0.3 1.11 -0.32 1.12 -0.27 0.87 -0.29 0.87 -0.37 1.03 -0.39 1.04 -0.47 1.13 -0.51 1.12 -0.42 0.88 -0.5 0.99 -0.62 1.12 -0.5 0.87 -0.59 0.95 -0.56 0.87 -0.63 0.92 -0.78 1.06 -0.64 0.83 -0.77 0.93 -40.36 -34.18 -0.25 0.29 -0.14 0.19 -0.28 0.38 -0.17 0.24 -0.1 0.17 -0.15 0.23 -0.08 0.15 -0.2 0.36 -0.12 0.23 -0.04 0.1 -0.15 0.32 -0.13 0.31 -0.07 0.2 -0.07 0.19 -0.01 0.01 0.01 -0.01 -0.06 0.22 -0.06 0.19 -0.02 0.12 0.03 -0.16 0.02 -0.11 -0.02 0.12 -0.01 0.09 -0.01 0.06 0 0.01 0.02 -0.25 0 0.01 0 -0.02 0.02 -0.29 0.01 -0.31 0.01 -0.09 -0.01 -0.11 0 0zm52.9 -241.12l0 241.12 -52.9 0 0 -241.12 26.45 -26.44 26.45 26.44zm-52.9 0c0,-14.6 11.85,-26.44 26.45,-26.44 14.6,0 26.45,11.84 26.45,26.44l-52.9 0zm-71.35 -26.44l97.8 0 0 52.88 -97.8 0 0 0 0 -52.88zm2.74 50.77l-34.18 -40.36 0.01 -0.01 0.78 -0.64 1.05 -0.82 1.07 -0.77 0.86 -0.59 0.87 -0.56 0.96 -0.59 1.12 -0.63 0.88 -0.47 1.12 -0.56 0.76 -0.36 1.13 -0.51 1.24 -0.49 0.78 -0.3 1.04 -0.37 0.95 -0.31 0.87 -0.27 1.3 -0.37 1.12 -0.27 0.59 -0.14 1.11 -0.25 1.1 -0.21 0.84 -0.15 1.05 -0.16 1.08 -0.15 1.1 -0.12 0.81 -0.08 1.06 -0.09 1.06 -0.06 0.81 -0.05 0.83 -0.03 1.05 -0.03 1.04 0 0 52.88 -0.14 0 -0.13 0.01 -0.31 0.01 -0.31 0.01 -0.06 0 -0.02 0.01 -0.27 0.02 0.04 0 0.06 -0.01 0.03 0 -0.16 0.03 0.12 -0.03 0.15 -0.03 -0.35 0.08 0.2 -0.05 0.4 -0.11 -0.03 0.01 0.09 -0.03 0.2 -0.07 -0.06 0.02 0.42 -0.17 0.35 -0.15 -0.02 0 0.36 -0.18 0.14 -0.07 0.4 -0.23 0.26 -0.15 0.17 -0.12 0.2 -0.13 0.41 -0.31 0.43 -0.32 0.16 -0.14 0.01 -0.01zm-24.97 20.9l0 -52.88 -25.4 19.08 0.23 -0.81 0.3 -0.98 0.3 -0.93 0.3 -0.91 0.25 -0.73 0.27 -0.79 0.43 -1.16 0.28 -0.71 0.27 -0.7 0.47 -1.17 0.34 -0.77 0.3 -0.69 0.5 -1.08 0.47 -0.97 0.34 -0.67 0.35 -0.68 0.52 -0.97 0.67 -1.18 0.52 -0.85 0.41 -0.66 0.51 -0.78 0.56 -0.84 0.83 -1.16 0.63 -0.82 0.5 -0.65 0.79 -0.95 0.7 -0.8 0.71 -0.78 0.75 -0.78 0.93 -0.92 0.99 -0.9 0.77 -0.67 34.18 40.36 0.15 -0.13 0.37 -0.34 0.33 -0.32 0.17 -0.18 0.13 -0.14 0.12 -0.14 0.23 -0.27 -0.06 0.07 0.07 -0.1 0.29 -0.4 0.04 -0.06 -0.01 0.02 -0.11 0.18 0 -0.01 0.17 -0.3 0.04 -0.07 -0.13 0.26 -0.14 0.27 -0.01 0.01 0.04 -0.08 -0.14 0.33 -0.12 0.27 0.03 -0.09 -0.15 0.4 -0.16 0.41 0.01 -0.02 -0.13 0.39 -0.17 0.47 -0.1 0.31 -0.1 0.31 -0.08 0.28 -0.15 0.49 -25.4 19.08zm25.4 -19.08c-4.06,14.02 -18.74,22.1 -32.76,18.04 -14.02,-4.06 -22.1,-18.74 -18.04,-32.76l50.8 14.72zm-33.28 -33.8l7.88 0 0 52.88 -7.88 0 -26.45 -26.44 26.45 -26.44zm0 52.88c-14.6,0 -26.45,-11.84 -26.45,-26.44 0,-14.6 11.85,-26.44 26.45,-26.44l0 52.88zm26.45 -124.02l0 97.58 -52.9 0 0 -97.58 26.45 -26.44 26.45 26.44zm-52.9 0c0,-14.6 11.85,-26.44 26.45,-26.44 14.6,0 26.45,11.84 26.45,26.44l-52.9 0zm34.33 26.44l-7.88 0 0 -52.88 7.88 0 25.57 19.67 -25.57 33.21zm0 -52.88c14.6,0 26.45,11.84 26.45,26.44 0,14.6 -11.85,26.44 -26.45,26.44l0 -52.88zm25.01 21.1l-34.86 39.78 0.03 0.02 -0.77 -0.69 -0.97 -0.92 -0.92 -0.93 -0.44 -0.47 -0.72 -0.79 -1.1 -1.28 -0.5 -0.65 -0.64 -0.82 -0.6 -0.84 -0.47 -0.64 -0.86 -1.3 -0.53 -0.86 -0.33 -0.53 -0.57 -0.97 -0.54 -0.98 -0.36 -0.67 -0.45 -0.87 -0.57 -1.17 -0.31 -0.68 -0.4 -0.87 -0.41 -0.97 -0.29 -0.69 -0.46 -1.17 -0.33 -0.9 -0.25 -0.69 -0.27 -0.77 -0.38 -1.1 -0.28 -0.91 -0.24 -0.78 -0.27 -0.92 -0.26 -0.91 -0.26 -0.95 51.14 -13.54 0.08 0.33 0.1 0.33 0.09 0.32 0.14 0.42 0.08 0.27 0.02 0.06 0.13 0.37 0.15 0.41 0.07 0.2 -0.04 -0.11 0.15 0.35 0.01 0.05 0.06 0.11 0.13 0.3 -0.11 -0.23 0.03 0.05 0.12 0.23 -0.06 -0.1 -0.07 -0.13 0.17 0.29 -0.03 -0.04 -0.34 -0.52 0.07 0.1 -0.08 -0.1 -0.08 -0.12 0.04 0.05 -0.54 -0.62 -0.14 -0.17 0.14 0.15 -0.34 -0.33 -0.37 -0.36 -0.17 -0.15 0.03 0.02zm-3.08 -2.31l0 52.88 0 0 -1.04 0 -1.04 -0.03 -0.83 -0.03 -0.81 -0.05 -1.03 -0.06 -1.07 -0.09 -0.85 -0.08 -1.04 -0.12 -1.05 -0.14 -1.13 -0.18 -1.1 -0.2 -0.74 -0.15 -0.85 -0.18 -1.17 -0.27 -1.12 -0.29 -1.04 -0.3 -0.79 -0.25 -0.95 -0.3 -1.13 -0.4 -1.03 -0.4 -1.13 -0.47 -1.13 -0.5 -0.76 -0.37 -1.12 -0.56 -1.24 -0.69 -0.73 -0.43 -1.1 -0.68 -0.86 -0.57 -0.93 -0.64 -1.21 -0.9 -0.82 -0.67 -0.94 -0.79 34.86 -39.78 -0.32 -0.27 -0.2 -0.17 -0.55 -0.4 -0.25 -0.18 -0.18 -0.11 -0.38 -0.24 -0.01 -0.01 -0.5 -0.27 -0.34 -0.18 0.02 0.01 -0.33 -0.14 -0.31 -0.13 -0.19 -0.08 -0.29 -0.1 -0.07 -0.02 0.11 0.03 -0.14 -0.04 -0.2 -0.05 -0.23 -0.05 0.13 0.02 0.24 0.05 -0.12 -0.02 -0.11 -0.02 -0.01 0 0 0 0.21 0.02 0.03 0.01 0.07 0 0.29 0.01 0.31 0.01 0.12 0.01 0.12 0 0 0zm275.33 52.88l-275.33 0 0 -52.88 275.33 0 0 0 0 52.88zm-2.4 -51.05l33.48 40.94 0.34 -0.28 -0.78 0.64 -1.05 0.82 -1.23 0.88 -0.71 0.48 -0.86 0.56 -1.11 0.67 -0.98 0.55 -1 0.53 -1.13 0.56 -1.01 0.47 -0.88 0.37 -0.77 0.32 -1.13 0.44 -1.22 0.43 -1.05 0.33 -0.86 0.25 -0.86 0.25 -1.05 0.27 -1.11 0.26 -1.1 0.23 -0.85 0.16 -0.84 0.15 -1.05 0.16 -1.08 0.15 -1.08 0.12 -0.8 0.08 -1.06 0.09 -1.06 0.06 -0.81 0.05 -0.81 0.03 -1.05 0.03 -1.04 0 0 -52.88 0.12 0 0.11 -0.01 0.31 -0.01 0.31 -0.01 0.04 0 0.02 -0.01 0.26 -0.02 -0.02 0 -0.06 0.01 -0.03 0 0.16 -0.03 0.13 -0.02 -0.14 0.03 -0.17 0.04 -0.13 0.03 0.06 -0.01 0.02 -0.01 -0.17 0.05 -0.36 0.13 -0.31 0.12 0.05 -0.02 -0.08 0.03 -0.23 0.11 -0.35 0.18 -0.26 0.13 -0.26 0.15 -0.39 0.23 -0.18 0.12 -0.03 0.02 -0.57 0.42 -0.43 0.32 -0.16 0.14 0.34 -0.28zm24.62 -20.62l0 52.88 25.43 -19.18 -0.23 0.82 -0.3 0.98 -0.29 0.93 -0.26 0.8 -0.32 0.97 -0.33 0.91 -0.26 0.72 -0.36 0.98 -0.38 0.97 -0.29 0.69 -0.41 0.98 -0.43 0.97 -0.41 0.88 -0.33 0.68 -0.37 0.77 -0.61 1.17 -0.48 0.87 -0.38 0.66 -0.57 0.98 -0.61 0.97 -0.55 0.85 -0.68 0.97 -0.56 0.78 -0.63 0.83 -0.8 1 -0.66 0.78 -0.7 0.79 -0.74 0.8 -0.91 0.92 -0.95 0.91 -0.83 0.74 -0.94 0.79 -33.48 -40.94 -0.32 0.27 -0.21 0.18 -0.35 0.35 -0.33 0.32 -0.14 0.16 -0.14 0.15 -0.08 0.1 -0.24 0.3 -0.09 0.11 -0.02 0.04 -0.14 0.19 -0.03 0.05 -0.09 0.15 -0.07 0.12 0.12 -0.22 0.02 -0.03 -0.13 0.25 0.09 -0.19 0.15 -0.3 0.05 -0.12 0.03 -0.05 0.03 -0.08 0.15 -0.39 0.06 -0.13 0.06 -0.16 0.16 -0.44 0.09 -0.27 0.08 -0.23 0.14 -0.44 0.11 -0.33 0.08 -0.3 0.15 -0.5 25.43 -19.18zm-25.43 19.18c4,-14.04 18.65,-22.17 32.69,-18.17 14.04,4 22.17,18.65 18.17,32.69l-50.86 -14.52zm33.31 33.7l-7.88 0 0 -52.88 7.88 0 26.45 26.44 -26.45 26.44zm0 -52.88c14.6,0 26.45,11.84 26.45,26.44 0,14.6 -11.85,26.44 -26.45,26.44l0 -52.88zm-26.45 124.02l0 -97.58 52.9 0 0 97.58 -26.45 26.44 -26.45 -26.44zm52.9 0c0,14.6 -11.85,26.44 -26.45,26.44 -14.6,0 -26.45,-11.84 -26.45,-26.44l52.9 0zm-34.33 -26.44l7.88 0 0 52.88 -7.88 0 -25.4 -19.08 25.4 -33.8zm0 52.88c-14.6,0 -26.45,-11.84 -26.45,-26.44 0,-14.6 11.85,-26.44 26.45,-26.44l0 52.88zm-24.96 -20.89l34.16 -40.38 -0.01 -0.01 0.79 0.69 0.99 0.9 0.93 0.92 0.59 0.61 0.88 0.95 0.69 0.8 0.65 0.78 0.79 1 0.62 0.83 0.56 0.78 0.58 0.84 0.63 0.97 0.53 0.86 0.51 0.85 0.44 0.78 0.54 0.97 0.55 1.08 0.33 0.66 0.37 0.78 0.41 0.88 0.4 0.89 0.41 0.96 0.32 0.78 0.35 0.9 0.34 0.9 0.29 0.78 0.35 0.98 0.3 0.91 0.24 0.73 0.3 0.93 0.3 0.98 0.23 0.81 -50.8 14.72 -0.15 -0.49 -0.08 -0.28 -0.1 -0.31 -0.16 -0.49 -0.1 -0.29 -0.07 -0.2 -0.13 -0.36 -0.08 -0.22 -0.09 -0.2 -0.12 -0.3 -0.03 -0.08 -0.06 -0.13 -0.05 -0.12 -0.11 -0.2 -0.13 -0.28 0.07 0.14 0.04 0.07 -0.06 -0.1 0.01 0.01 0.01 0.02 0.11 0.17 0.04 0.06 0.02 0.02 0.08 0.11 0.23 0.28 0.07 0.1 0.13 0.14 0.28 0.31 0.01 0.01 0.33 0.32 0.37 0.34 0.17 0.15 -0.01 -0.01zm2.74 2.1l0 -52.88 0 0 1.04 0 1.04 0.03 0.83 0.03 0.83 0.05 1.04 0.06 1.07 0.09 0.82 0.08 1.05 0.12 1.12 0.15 1.08 0.17 0.8 0.14 1.1 0.21 1.11 0.25 0.59 0.14 1.12 0.27 1.3 0.37 0.87 0.27 0.95 0.31 1.04 0.37 0.78 0.3 1.24 0.49 1.13 0.51 0.76 0.36 1.12 0.56 0.88 0.47 1.12 0.63 0.96 0.59 0.87 0.56 0.86 0.59 1.07 0.77 1.05 0.82 0.78 0.64 -34.16 40.38 0.16 0.14 0.43 0.32 0.41 0.31 0.2 0.13 0.17 0.12 0.26 0.15 0.4 0.23 0.14 0.07 0.36 0.18 -0.02 0 0.35 0.15 0.42 0.17 -0.06 -0.02 0.2 0.07 0.09 0.03 -0.03 -0.01 0.4 0.11 0.2 0.05 -0.35 -0.08 0.15 0.03 0.12 0.03 -0.2 -0.04 0.08 0.01 0.08 0.01 -0.01 0 -0.24 -0.02 -0.03 -0.01 -0.06 0 -0.29 -0.01 -0.33 -0.01 -0.12 -0.01 -0.14 0 0 0zm-97.81 -52.88l97.81 0 0 52.88 -97.81 0 -26.45 -26.44 26.45 -26.44zm0 52.88c-14.6,0 -26.45,-11.84 -26.45,-26.44 0,-14.6 11.85,-26.44 26.45,-26.44l0 52.88z"/>
    <path id="1" class="fil3" d="M1715.62 1873.68l106.8 -238.09c4.54,-10 6.87,-17.78 6.87,-23.34 0,-8.48 -6.57,-14.04 -19.6,-16.56l0 -9.7 138.42 0 0 9.7c-8.69,1.21 -14.65,3.63 -18.09,7.37 -3.33,3.74 -9.09,14.65 -17.38,32.53l-139.94 302.03c-5.96,12.83 -8.89,21.21 -8.89,25.15 0,10.1 6.27,15.96 18.7,17.78l0 9.7 -139.14 0 0 -9.7c12.43,-1.82 18.7,-7.78 18.7,-18.08 0,-3.74 -2.93,-12.02 -8.89,-24.85l-140.04 -302.03c-8.29,-17.88 -14.05,-28.79 -17.38,-32.53 -3.34,-3.74 -9.4,-6.16 -18.09,-7.37l0 -9.7 143.78 0 0 9.7c-13.03,2.52 -19.5,8.08 -19.5,16.56 0,5.56 2.22,13.34 6.77,23.34l106.9 238.09zm347.57 -24.65l0 81.22 209.76 0c6.06,0 10.81,-1.32 14.04,-4.04 3.24,-2.73 5.86,-7.58 7.78,-14.75l8.49 0 0 97.58 -8.49 0c-1.82,-6.87 -4.34,-11.72 -7.68,-14.55 -3.33,-2.83 -8.08,-4.24 -14.14,-4.24l-307.97 0 0 -8.49c6.87,-1.81 11.72,-4.34 14.55,-7.67 2.83,-3.34 4.25,-8.08 4.25,-14.25l0 -270.71c0,-6.17 -1.42,-10.81 -4.15,-13.94 -2.72,-3.13 -7.57,-5.86 -14.65,-7.98l0 -8.49 299.18 0c6.26,0 11.01,-1.41 14.24,-4.14 3.34,-2.73 5.97,-7.58 7.89,-14.65l7.88 0 0 97.58 -7.88 0c-1.92,-7.17 -4.55,-12.02 -7.79,-14.75 -3.33,-2.72 -8.08,-4.04 -14.34,-4.04l-200.97 0 0 72.73 124.58 0c6.07,0 10.81,-1.41 14.05,-4.14 3.23,-2.72 5.96,-7.57 8.08,-14.65l7.88 0 0 95.16 -7.88 0c-1.92,-6.97 -4.55,-11.82 -7.78,-14.65 -3.33,-2.72 -8.08,-4.14 -14.35,-4.14l-124.58 0zm477.41 -130.31l0 240.92c0,6.06 1.41,10.71 4.14,14.04 2.73,3.24 7.58,5.96 14.65,8.08l0 8.49 -117 0 0 -8.49c6.87,-1.81 11.72,-4.34 14.55,-7.67 2.83,-3.34 4.24,-8.08 4.24,-14.25l0 -241.12 -97.8 0c-6.37,0 -11.12,1.42 -14.35,4.15 -3.33,2.82 -5.86,7.67 -7.88,14.64l-7.88 0 0 -97.58 7.88 0c1.82,6.87 4.34,11.72 7.58,14.55 3.23,2.83 8.08,4.24 14.35,4.24l275.33 0c6.26,0 11.11,-1.41 14.34,-4.14 3.34,-2.73 5.86,-7.58 7.88,-14.65l7.88 0 0 97.58 -7.88 0c-2.02,-6.97 -4.54,-11.82 -7.88,-14.64 -3.23,-2.73 -7.98,-4.15 -14.34,-4.15l-97.81 0z"/>
   </g>
   <g>
    <path class="fil3" d="M1156.18 1311.76l-40.58 73 3.33 1.66 -6.02 -2.47 -5.67 -1.93 -5.34 -1.44 -4.98 -1 -4.66 -0.59 -4.35 -0.24 -4.06 0.1 -3.84 0.39 -3.64 0.66 -3.45 0.92 -3.37 1.19 -3.28 1.46 -3.24 1.75 -3.21 2.07 -3.15 2.37 -3.15 2.75 -3.14 3.12 -3.08 3.52 -3.05 3.93 -2.96 4.33 -2.87 4.74 -2.72 5.12 -2.6 5.57 -2.45 5.95 -2.25 6.31 -2.06 6.71 -1.84 7.03 -1.6 7.4 -1.37 7.72 -1.1 8.03 -0.83 8.35 -0.54 8.61 -83.46 -3.78 0.74 -11.59 1.13 -11.35 1.52 -11.17 1.93 -10.92 2.32 -10.7 2.74 -10.45 3.12 -10.17 3.55 -9.93 3.95 -9.61 4.36 -9.31 4.82 -9.04 5.25 -8.68 5.68 -8.31 6.13 -7.91 6.6 -7.52 7.08 -7.06 7.53 -6.57 8.03 -6.03 8.45 -5.43 8.86 -4.79 9.26 -4.12 9.61 -3.39 9.93 -2.64 10.16 -1.84 10.34 -1.05 10.52 -0.24 10.59 0.56 10.62 1.35 10.64 2.12 10.62 2.88 10.61 3.61 10.56 4.33 3.33 1.66zm-3.33 -1.66c21.08,9.36 30.57,34.05 21.21,55.12 -9.36,21.07 -34.05,30.56 -55.13,21.2l33.92 -76.32zm32.58 218.62l0 -83.52 -41.77 41.76 -0.02 -4.38 -0.04 -4.46 -0.09 -4.45 -0.13 -4.47 -0.17 -4.45 -0.23 -4.44 -0.28 -4.42 -0.35 -4.36 -0.42 -4.38 -0.48 -4.32 -0.54 -4.18 -0.62 -4.09 -0.71 -4.05 -0.77 -3.92 -0.85 -3.79 -0.93 -3.67 -0.99 -3.5 -1.04 -3.27 -1.14 -3.17 -1.19 -3.01 -1.23 -2.76 -1.29 -2.59 -1.3 -2.35 -1.35 -2.17 -1.4 -2.03 -1.36 -1.77 -1.4 -1.6 -1.44 -1.48 -1.45 -1.31 -1.56 -1.23 -1.59 -1.11 -1.7 -1.02 40.58 -73 6.44 3.86 6.07 4.21 5.68 4.51 5.37 4.83 4.96 5.06 4.6 5.28 4.24 5.47 3.84 5.55 3.53 5.69 3.22 5.81 2.89 5.83 2.63 5.9 2.35 5.89 2.12 5.91 1.92 6.01 1.69 5.96 1.49 5.91 1.33 5.93 1.17 5.9 1.01 5.85 0.9 5.87 0.76 5.84 0.64 5.72 0.54 5.68 0.45 5.66 0.36 5.58 0.29 5.5 0.21 5.43 0.15 5.29 0.09 5.21 0.06 5.06 0.02 5 -41.77 41.76zm41.77 -41.76c0,23.06 -18.71,41.76 -41.77,41.76 -23.06,0 -41.77,-18.7 -41.77,-41.76l83.54 0zm-249.87 -41.76l208.1 0 0 83.52 -208.1 0 -41.73 -43.65 41.73 -39.87zm0 83.52c-23.06,0 -41.77,-18.7 -41.77,-41.76 0,-23.06 18.71,-41.76 41.77,-41.76l0 83.52zm8.23 158.99l52.9 -64.64 -0.36 -0.29 2.63 1.99 2.79 1.87 2.95 1.77 3.12 1.65 3.27 1.55 3.45 1.41 3.65 1.33 3.77 1.19 3.94 1.06 4.12 0.93 4.21 0.81 4.36 0.65 4.53 0.54 4.6 0.39 4.66 0.25 4.74 0.11 4.84 -0.03 4.92 -0.16 4.94 -0.3 4.95 -0.43 4.97 -0.55 4.97 -0.68 4.98 -0.81 4.93 -0.91 4.92 -1.03 4.86 -1.13 4.72 -1.22 4.72 -1.33 4.6 -1.42 4.51 -1.5 4.38 -1.56 4.23 -1.63 30.94 77.58 -6.11 2.35 -6.2 2.22 -6.31 2.1 -6.42 1.96 -6.52 1.85 -6.66 1.72 -6.7 1.55 -6.76 1.43 -6.87 1.27 -6.9 1.11 -7.01 0.96 -7.05 0.79 -7.09 0.61 -7.14 0.42 -7.14 0.24 -7.2 0.05 -7.26 -0.17 -7.26 -0.39 -7.24 -0.63 -7.21 -0.84 -7.26 -1.11 -7.27 -1.37 -7.18 -1.65 -7.2 -1.94 -7.15 -2.25 -7.05 -2.55 -7.01 -2.91 -6.91 -3.25 -6.8 -3.61 -6.65 -3.99 -6.51 -4.37 -6.31 -4.77 -0.36 -0.29zm0.36 0.29c-18.01,-14.4 -20.93,-40.68 -6.53,-58.69 14.4,-18.01 40.7,-20.93 58.71,-6.53l-52.18 65.22zm-13.21 -207.86l9.24 83 36.15 -32.44 0.06 -0.3 -0.06 0.32 -0.15 0.78 -0.19 1.03 -0.25 1.59 -0.3 1.95 -0.31 2.26 -0.3 2.53 -0.29 2.78 -0.25 3.11 -0.22 3.36 -0.16 3.48 -0.08 3.67 0 3.83 0.1 3.91 0.21 4 0.32 4.03 0.46 4.06 0.59 4.04 0.74 4.02 0.88 3.94 1.02 3.85 1.18 3.74 1.31 3.57 1.47 3.44 1.59 3.24 1.76 3.09 1.9 2.93 2.03 2.73 2.22 2.58 2.42 2.47 2.66 2.34 -52.9 64.64 -7.12 -6.28 -6.54 -6.61 -5.94 -6.94 -5.35 -7.15 -4.74 -7.29 -4.2 -7.39 -3.69 -7.48 -3.19 -7.46 -2.75 -7.45 -2.32 -7.38 -1.96 -7.29 -1.6 -7.18 -1.3 -7.06 -1.01 -6.9 -0.76 -6.72 -0.54 -6.55 -0.33 -6.3 -0.16 -6.09 0 -5.81 0.12 -5.57 0.24 -5.3 0.32 -4.9 0.39 -4.61 0.43 -4.32 0.48 -3.93 0.47 -3.5 0.46 -3.05 0.43 -2.61 0.41 -2.33 0.33 -1.68 0.24 -1.18 0.18 -0.82 36.15 -32.44zm-36.15 32.44c5,-22.51 27.32,-36.7 49.83,-31.7 22.51,5 36.71,27.31 31.71,49.82l-81.54 -18.12zm301.25 9.06l83.54 0 -38.99 41.67 -7.97 0.46 -8.42 0.36 -8.85 0.27 -9.29 0.21 -9.72 0.14 -10.03 0.06 -10.37 0.02 -10.68 -0.04 -10.9 -0.08 -11.12 -0.12 -11.25 -0.16 -11.4 -0.17 -11.49 -0.2 -11.49 -0.22 -11.48 -0.22 -11.45 -0.23 -11.32 -0.24 -11.18 -0.22 -10.97 -0.22 -10.74 -0.19 -10.46 -0.18 -10.12 -0.15 -9.72 -0.11 -9.27 -0.08 -8.8 -0.03 -8.25 0.01 -7.63 0.06 -6.97 0.13 -6.19 0.17 -5.34 0.24 -4.39 0.28 -3.15 0.28 -9.24 -83 6.01 -0.56 6.31 -0.4 6.8 -0.3 7.29 -0.21 7.79 -0.13 8.31 -0.08 8.75 -0.01 9.2 0.03 9.63 0.08 9.98 0.13 10.32 0.15 10.58 0.18 10.86 0.19 11.07 0.22 11.22 0.22 11.34 0.24 11.37 0.23 11.44 0.22 11.43 0.22 11.31 0.2 11.22 0.17 11.09 0.14 10.86 0.12 10.62 0.08 10.28 0.04 9.95 -0.02 9.55 -0.06 9.04 -0.12 8.57 -0.19 7.99 -0.25 7.32 -0.32 6.59 -0.38 -38.99 41.67zm38.99 -41.67c23.01,-1.53 42.93,15.88 44.46,38.89 1.53,23.01 -15.89,42.92 -38.9,44.45l-5.56 -83.34zm-118.75 -126.2l44.86 -70.46 -1.71 -1.03 8.02 4.82 7.73 5.15 7.41 5.42 7.12 5.72 6.82 5.97 6.54 6.23 6.25 6.48 5.93 6.69 5.63 6.87 5.33 7.04 5.05 7.22 4.78 7.4 4.48 7.52 4.23 7.66 3.96 7.81 3.67 7.87 3.43 7.96 3.18 8.06 2.94 8.17 2.7 8.23 2.45 8.29 2.22 8.33 1.99 8.38 1.77 8.38 1.55 8.45 1.34 8.49 1.11 8.45 0.92 8.46 0.7 8.51 0.5 8.47 0.3 8.44 0.1 8.42 -83.54 0 -0.08 -6.46 -0.22 -6.5 -0.38 -6.47 -0.54 -6.45 -0.7 -6.48 -0.85 -6.45 -1 -6.37 -1.17 -6.33 -1.33 -6.32 -1.47 -6.22 -1.64 -6.13 -1.79 -6.05 -1.94 -5.93 -2.1 -5.83 -2.26 -5.72 -2.41 -5.62 -2.57 -5.49 -2.68 -5.29 -2.85 -5.16 -3 -5.04 -3.12 -4.82 -3.29 -4.7 -3.43 -4.54 -3.55 -4.35 -3.69 -4.15 -3.81 -3.96 -3.98 -3.79 -4.14 -3.63 -4.28 -3.42 -4.45 -3.26 -4.57 -3.05 -4.76 -2.86 -1.71 -1.03zm1.71 1.03c-20.03,-11.43 -26.99,-36.95 -15.55,-56.97 11.44,-20.02 36.96,-26.98 56.99,-15.55l-41.44 72.52zm-133.6 -4.09l-38.2 -74.26 0.42 -0.22 5.19 -2.48 5.35 -2.33 5.44 -2.15 5.62 -2.05 5.81 -1.91 5.87 -1.76 6.05 -1.64 6.21 -1.5 6.3 -1.35 6.4 -1.21 6.54 -1.07 6.65 -0.92 6.76 -0.76 6.87 -0.58 6.93 -0.41 7.01 -0.23 7.08 -0.05 7.18 0.16 7.21 0.37 7.21 0.58 7.31 0.8 7.35 1.06 7.34 1.31 7.33 1.56 7.36 1.84 7.33 2.14 7.29 2.43 7.26 2.75 7.2 3.08 7.16 3.45 7.03 3.8 6.89 4.15 -44.86 70.46 -3.47 -2.09 -3.59 -1.94 -3.72 -1.79 -3.88 -1.66 -4.04 -1.53 -4.17 -1.39 -4.27 -1.24 -4.38 -1.1 -4.49 -0.96 -4.58 -0.81 -4.61 -0.66 -4.69 -0.52 -4.79 -0.38 -4.79 -0.25 -4.76 -0.1 -4.82 0.03 -4.79 0.15 -4.75 0.29 -4.69 0.4 -4.62 0.52 -4.57 0.62 -4.46 0.73 -4.38 0.83 -4.24 0.91 -4.03 0.98 -3.91 1.06 -3.75 1.12 -3.49 1.15 -3.28 1.19 -3.08 1.23 -2.75 1.19 -2.47 1.18 0.42 -0.22zm-0.42 0.22c-20.63,10.31 -45.73,1.94 -56.04,-18.68 -10.31,-20.62 -1.95,-45.71 18.68,-56.02l37.36 74.7zm14.35 329.23l-26.42 79.24 5.02 1.33 -19.73 -4.94 -18.77 -6.73 -17.68 -8.37 -16.55 -9.91 -15.32 -11.31 -14.06 -12.56 -12.77 -13.66 -11.49 -14.64 -10.19 -15.48 -8.94 -16.21 -7.69 -16.84 -6.47 -17.38 -5.25 -17.83 -4.04 -18.18 -2.86 -18.47 -1.68 -18.71 -0.48 -18.84 0.7 -18.89 1.89 -18.92 3.12 -18.83 4.32 -18.67 5.57 -18.45 6.84 -18.13 8.12 -17.72 9.41 -17.2 10.74 -16.62 12.07 -15.91 13.44 -15.1 14.78 -14.15 16.1 -13.09 17.44 -11.93 18.7 -10.61 38.2 74.26 -12.68 7.21 -11.7 8.01 -10.8 8.77 -9.9 9.49 -9.04 10.18 -8.21 10.81 -7.36 11.4 -6.53 11.94 -5.68 12.4 -4.82 12.81 -3.97 13.13 -3.1 13.41 -2.24 13.57 -1.37 13.64 -0.5 13.67 0.34 13.58 1.2 13.37 2.04 13.15 2.84 12.78 3.63 12.33 4.39 11.82 5.13 11.24 5.82 10.57 6.49 9.84 7.13 9.1 7.73 8.28 8.34 7.46 8.94 6.61 9.59 5.75 10.28 4.87 11.03 3.95 11.89 2.98 5.02 1.33zm-5.02 -1.33c22.62,4.52 37.29,26.53 32.77,49.14 -4.52,22.61 -26.53,37.28 -49.15,32.76l16.38 -81.9zm151.44 -19.5l54.28 63.48 -0.04 0.04 -6.03 4.89 -6.19 4.55 -6.37 4.26 -6.55 3.98 -6.63 3.67 -6.81 3.44 -6.93 3.16 -7.01 2.91 -7.07 2.65 -7.18 2.44 -7.26 2.19 -7.27 1.96 -7.37 1.76 -7.41 1.53 -7.41 1.33 -7.45 1.11 -7.46 0.92 -7.48 0.72 -7.49 0.51 -7.48 0.32 -7.44 0.12 -7.45 -0.07 -7.4 -0.28 -7.33 -0.46 -7.35 -0.67 -7.26 -0.87 -7.18 -1.06 -7.12 -1.27 -7.04 -1.47 -7.01 -1.69 -6.89 -1.91 -6.76 -2.12 26.42 -79.24 4.02 1.26 4.19 1.17 4.35 1.05 4.56 0.95 4.7 0.83 4.84 0.72 4.92 0.59 4.99 0.45 5.15 0.32 5.18 0.2 5.21 0.05 5.28 -0.08 5.26 -0.22 5.27 -0.37 5.26 -0.5 5.24 -0.64 5.21 -0.79 5.15 -0.91 5.05 -1.05 4.95 -1.18 4.89 -1.32 4.72 -1.43 4.62 -1.56 4.47 -1.67 4.31 -1.79 4.11 -1.88 3.93 -1.98 3.77 -2.09 3.53 -2.14 3.33 -2.24 3.13 -2.29 2.87 -2.33 -0.04 0.04zm19.76 43.84l-30.94 -77.58 -0.02 0.01 7.11 -2.21 6.29 -1.01 5.62 -0.22 4.57 0.25 4.22 0.55 4.02 0.82 3.52 0.93 3.48 1.13 3.33 1.26 3.03 1.32 2.97 1.43 3.05 1.64 3.07 1.83 2.84 1.88 2.84 2.05 2.94 2.35 2.9 2.58 2.85 2.85 2.79 3.16 2.79 3.63 2.66 4.11 2.5 4.71 2.17 5.33 1.71 6.09 1.01 6.88 0.06 7.12 -1.02 7.43 -2.14 7.29 -3.15 6.8 -3.79 5.88 -4.22 5.04 -4.54 4.31 -54.28 -63.48 -1.94 1.85 -2.12 2.52 -2.15 3.36 -1.97 4.24 -1.38 4.71 -0.68 4.87 0.04 4.54 0.63 4.32 0.99 3.57 1.15 2.83 1.2 2.27 1.1 1.71 0.99 1.29 0.77 0.88 0.65 0.65 0.54 0.48 0.44 0.35 0.2 0.15 0.12 0.08 0.29 0.17 0.21 0.12 0.11 0.05 0.17 0.08 0.51 0.18 0.68 0.23 0.82 0.21 1.4 0.28 1.72 0.23 2.23 0.11 3.44 -0.14 4.29 -0.69 5.33 -1.67 -0.02 0.01zm155.41 -112.18l83.54 0 0 0 0.11 6.77 0.31 6.19 0.49 5.59 0.64 4.93 0.76 4.34 0.86 3.72 0.9 3.1 0.89 2.5 0.82 1.88 0.7 1.31 0.54 0.85 0.29 0.38 0.09 0.09 -0.11 -0.09 -0.3 -0.21 -0.36 -0.21 -0.29 -0.13 -0.1 -0.03 0.13 0.02 0.5 0.06 0.94 0.04 1.34 -0.04 1.79 -0.18 2.16 -0.35 2.55 -0.57 2.93 -0.81 3.22 -1.05 3.56 -1.34 3.85 -1.62 4.07 -1.87 4.28 -2.15 4.5 -2.42 40.62 72.98 -6.58 3.54 -6.6 3.31 -6.63 3.05 -6.63 2.78 -6.72 2.52 -6.8 2.23 -6.87 1.89 -6.99 1.55 -7.14 1.15 -7.21 0.7 -7.38 0.22 -7.5 -0.36 -7.62 -0.98 -7.69 -1.72 -7.58 -2.45 -7.43 -3.25 -7.16 -4.05 -6.74 -4.79 -6.17 -5.41 -5.59 -5.97 -5.01 -6.48 -4.34 -6.79 -3.78 -7.11 -3.22 -7.38 -2.73 -7.58 -2.26 -7.82 -1.86 -8.06 -1.48 -8.32 -1.12 -8.59 -0.77 -8.85 -0.47 -9.15 -0.15 -9.51 0 0zm0 0c0,-23.06 18.71,-41.76 41.77,-41.76 23.06,0 41.77,18.7 41.77,41.76l-83.54 0zm41.77 -289.45l0 83.52 41.66 -38.78 -0.41 6.18 -0.36 6.43 -0.31 6.65 -0.26 6.92 -0.23 7.12 -0.17 7.29 -0.15 7.47 -0.09 7.62 -0.07 7.79 -0.04 7.86 0 7.99 0.02 8.08 0.05 8.15 0.07 8.21 0.09 8.25 0.1 8.29 0.12 8.27 0.14 8.3 0.14 8.28 0.15 8.21 0.16 8.21 0.15 8.16 0.15 8.04 0.15 7.96 0.14 7.88 0.13 7.75 0.12 7.6 0.12 7.5 0.08 7.33 0.07 7.14 0.04 7 0.01 6.78 -83.54 0 -0.01 -6.46 -0.04 -6.66 -0.07 -6.92 -0.08 -7.13 -0.1 -7.3 -0.12 -7.52 -0.13 -7.65 -0.14 -7.8 -0.15 -7.94 -0.15 -8.06 -0.15 -8.12 -0.16 -8.21 -0.15 -8.33 -0.14 -8.34 -0.14 -8.4 -0.12 -8.43 -0.12 -8.43 -0.09 -8.45 -0.07 -8.41 -0.05 -8.39 -0.02 -8.34 0 -8.29 0.04 -8.24 0.07 -8.11 0.11 -8.06 0.15 -7.93 0.19 -7.83 0.25 -7.68 0.28 -7.54 0.35 -7.41 0.4 -7.23 0.47 -7.06 41.66 -38.78zm-41.66 38.78c1.64,-23 21.64,-40.31 44.64,-38.67 23,1.64 40.32,21.63 38.68,44.63l-83.32 -5.96zm135.8 44.74l-94.14 0 0 -83.52 94.14 0 41.77 41.76 -41.77 41.76zm0 -83.52c23.06,0 41.77,18.7 41.77,41.76 0,23.06 -18.71,41.76 -41.77,41.76l0 -83.52zm41.77 2.13l0 39.63 -83.54 0 0 -39.63 41.77 -41.76 41.77 41.76zm-83.54 0c0,-23.06 18.71,-41.76 41.77,-41.76 23.06,0 41.77,18.7 41.77,41.76l-83.54 0zm-52.37 -41.76l94.14 0 0 83.52 -94.14 0 -41.77 -41.76 41.77 -41.76zm0 83.52c-23.06,0 -41.77,-18.7 -41.77,-41.76 0,-23.06 18.71,-41.76 41.77,-41.76l0 83.52zm41.77 -200.18l0 158.42 -83.54 0 0 -158.42 0 0 83.54 0zm-83.54 0c0,-23.06 18.71,-41.76 41.77,-41.76 23.06,0 41.77,18.7 41.77,41.76l-83.54 0zm-0.7 3.67l-83.54 0 0 0 0.55 -9.11 1.72 -9.09 2.93 -8.85 4.16 -8.41 5.12 -7.48 5.9 -6.56 6.47 -5.55 6.66 -4.49 6.82 -3.61 6.83 -2.81 6.69 -2.1 6.63 -1.54 6.58 -1.03 6.5 -0.6 6.39 -0.18 6.22 0.17 6.15 0.5 6.17 0.84 6.07 1.16 5.92 1.47 5.87 1.8 5.82 2.15 5.76 2.56 5.75 3.03 5.64 3.55 5.58 4.2 5.47 5.03 5.2 5.99 4.77 7.23 3.88 8.37 2.63 9.5 0.93 10.19 -83.54 0 0.45 4.91 1.21 4.44 1.62 3.51 1.69 2.59 1.38 1.61 0.99 0.91 0.46 0.36 -0.02 -0.01 -0.41 -0.21 -0.84 -0.36 -1.14 -0.43 -1.39 -0.42 -1.6 -0.39 -1.63 -0.32 -1.67 -0.22 -1.73 -0.14 -1.66 -0.05 -1.45 0.04 -1.2 0.1 -0.94 0.15 -0.63 0.14 -0.27 0.08 0.23 -0.11 0.66 -0.35 1 -0.69 1.35 -1.17 1.42 -1.58 1.3 -1.92 1.08 -2.21 0.67 -2.01 0.3 -1.61 0.07 -0.97 0 0zm0 422.25l-83.54 0 0 0 0 -5.05 0 -6.4 0 -7.66 0 -8.85 0 -9.95 0 -10.96 0 -11.91 0 -12.76 0 -13.53 0 -14.22 0 -14.83 0 -15.35 0 -15.8 0 -16.16 0 -16.43 0 -16.64 0 -16.74 0 -16.78 0 -16.73 0 -16.6 0 -16.38 0 -16.09 0 -15.71 0 -15.24 0 -14.7 0 -14.08 0 -13.37 0 -12.57 0 -11.71 0 -10.75 0 -9.71 0 -8.59 83.54 0 0 8.59 0 9.71 0 10.75 0 11.71 0 12.57 0 13.37 0 14.08 0 14.7 0 15.24 0 15.71 0 16.09 0 16.38 0 16.6 0 16.73 0 16.78 0 16.74 0 16.64 0 16.43 0 16.16 0 15.8 0 15.35 0 14.83 0 14.22 0 13.53 0 12.76 0 11.91 0 10.96 0 9.95 0 8.85 0 7.66 0 6.4 0 5.05 0 0zm0 0c0,23.06 -18.71,41.76 -41.77,41.76 -23.06,0 -41.77,-18.7 -41.77,-41.76l83.54 0zm136.7 85.38l66.28 50.84 -0.01 0.01 -6.44 7.6 -6.97 6.94 -7.54 6.51 -8.07 6.07 -8.52 5.66 -9.01 5.3 -9.52 4.93 -9.94 4.49 -10.36 4.05 -10.77 3.52 -11.14 2.97 -11.53 2.33 -11.82 1.6 -12.12 0.8 -12.38 -0.11 -12.56 -1.13 -12.73 -2.28 -12.71 -3.55 -12.57 -4.9 -12.3 -6.36 -11.8 -7.85 -11.11 -9.33 -10.27 -10.76 -9.28 -12.11 -8.23 -13.38 -7.12 -14.59 -6.01 -15.74 -4.91 -16.91 -3.83 -18.1 -2.74 -19.34 -1.65 -20.61 -0.56 -21.95 83.54 0 0.44 17.65 1.27 15.83 1.98 14.02 2.61 12.32 3.09 10.65 3.47 9.08 3.7 7.59 3.85 6.26 3.92 5.11 3.95 4.14 4.01 3.35 4.1 2.73 4.28 2.2 4.59 1.78 4.87 1.35 5.21 0.92 5.58 0.49 5.88 0.05 6.14 -0.42 6.32 -0.86 6.39 -1.29 6.42 -1.71 6.33 -2.08 6.18 -2.41 5.92 -2.67 5.52 -2.87 5.13 -3.02 4.6 -3.06 3.93 -2.95 3.18 -2.73 2.39 -2.38 1.46 -1.7 -0.01 0.01zm30.22 36.12l-40.62 -72.98 0.04 -0.02 4.69 -2.37 5.04 -2.02 5.18 -1.57 5.33 -1.11 5.35 -0.62 5.28 -0.13 5.41 0.36 5.33 0.85 4.96 1.27 4.79 1.67 4.66 2.1 4.26 2.37 4.1 2.75 3.79 3.03 3.38 3.16 3.26 3.57 2.84 3.66 2.53 3.81 2.31 4.15 1.93 4.21 1.67 4.53 1.28 4.65 0.92 4.75 0.53 5.05 0.1 5.04 -0.35 5.14 -0.81 5.13 -1.28 5.13 -1.84 5.23 -2.26 4.89 -2.62 4.57 -3.12 4.47 -66.28 -50.84 -1.18 1.69 -1 1.73 -0.92 2.01 -0.82 2.31 -0.54 2.17 -0.35 2.19 -0.15 2.2 0.04 2.1 0.23 2.17 0.36 1.89 0.52 1.87 0.67 1.83 0.73 1.59 0.91 1.63 0.93 1.41 1.08 1.38 1.32 1.45 1.26 1.18 1.55 1.23 1.7 1.15 1.72 0.95 2 0.9 2.03 0.71 2.08 0.53 2.37 0.37 2.35 0.16 2.14 -0.05 2.17 -0.26 2.07 -0.43 1.88 -0.57 1.7 -0.68 1.33 -0.67 0.04 -0.02zm-963.28 -577.95l0 270.35 -83.54 0 0 -270.35 41.77 -41.76 41.77 41.76zm-83.54 0c0,-23.06 18.71,-41.76 41.77,-41.76 23.06,0 41.77,18.7 41.77,41.76l-83.54 0zm208.83 -43.77l0 83.52 0 0 -5.13 0.01 -5.13 0.01 -5.09 0.03 -5.17 0.04 -5.13 0.04 -5.13 0.06 -5.21 0.06 -5.13 0.05 -5.13 0.08 -5.21 0.08 -5.18 0.08 -5.17 0.09 -5.21 0.09 -5.22 0.09 -5.21 0.09 -5.18 0.09 -5.21 0.1 -5.26 0.09 -5.22 0.09 -5.22 0.09 -5.27 0.09 -5.26 0.08 -5.23 0.08 -5.3 0.08 -5.31 0.07 -5.24 0.06 -5.31 0.06 -5.31 0.04 -5.28 0.04 -5.36 0.03 -5.33 0.01 -5.32 0.01 0 -83.52 5.16 -0.01 5.17 -0.01 5.12 -0.03 5.2 -0.04 5.15 -0.04 5.15 -0.06 5.24 -0.06 5.15 -0.05 5.14 -0.08 5.23 -0.08 5.18 -0.08 5.19 -0.09 5.22 -0.09 5.22 -0.09 5.18 -0.09 5.21 -0.1 5.26 -0.09 5.21 -0.09 5.22 -0.09 5.21 -0.09 5.25 -0.09 5.26 -0.08 5.21 -0.08 5.29 -0.08 5.29 -0.07 5.21 -0.06 5.29 -0.06 5.29 -0.04 5.25 -0.04 5.33 -0.03 5.29 -0.01 5.29 -0.01 0 0zm0 353.88l0 -83.52 0 0 10.98 -0.56 9.78 -1.55 8.71 -2.39 7.82 -3.16 7.07 -3.84 6.41 -4.5 5.87 -5.18 5.33 -5.83 4.81 -6.52 4.29 -7.17 3.7 -7.75 3.09 -8.28 2.44 -8.73 1.76 -9.08 1.05 -9.28 0.32 -9.42 -0.4 -9.46 -1.12 -9.29 -1.84 -9.09 -2.52 -8.78 -3.16 -8.32 -3.78 -7.81 -4.34 -7.21 -4.88 -6.57 -5.39 -5.89 -5.88 -5.2 -6.43 -4.52 -7.04 -3.85 -7.73 -3.14 -8.59 -2.38 -9.59 -1.54 -10.74 -0.55 0 -83.52 19.4 1.01 18.61 2.98 17.71 4.9 16.63 6.74 15.4 8.39 14.09 9.9 12.7 11.2 11.25 12.29 9.84 13.21 8.42 13.95 7.04 14.53 5.72 15 4.42 15.36 3.16 15.63 1.9 15.81 0.68 15.86 -0.54 15.9 -1.79 15.82 -3.04 15.64 -4.32 15.41 -5.63 15.04 -6.98 14.59 -8.39 13.99 -9.81 13.26 -11.29 12.35 -12.73 11.22 -14.15 9.92 -15.49 8.4 -16.72 6.72 -17.81 4.89 -18.74 2.97 -19.54 1 0 0zm-208.83 -39.76l83.54 0 -41.77 -41.76 5.14 -0.01 5.14 -0.01 5.11 -0.03 5.19 -0.04 5.19 -0.04 5.11 -0.05 5.2 -0.07 5.2 -0.05 5.2 -0.08 5.19 -0.07 5.2 -0.09 5.24 -0.08 5.2 -0.09 5.2 -0.09 5.24 -0.1 5.27 -0.09 5.2 -0.09 5.23 -0.1 5.27 -0.09 5.27 -0.09 5.22 -0.08 5.26 -0.09 5.26 -0.07 5.25 -0.08 5.25 -0.07 5.25 -0.07 5.31 -0.05 5.24 -0.04 5.23 -0.04 5.3 -0.03 5.25 -0.01 5.25 -0.01 0 83.52 -5.09 0.01 -5.09 0.01 -5.06 0.03 -5.15 0.04 -5.16 0.04 -5.07 0.05 -5.17 0.07 -5.17 0.05 -5.17 0.08 -5.18 0.07 -5.18 0.09 -5.22 0.08 -5.19 0.09 -5.19 0.09 -5.23 0.1 -5.28 0.09 -5.19 0.09 -5.24 0.1 -5.28 0.09 -5.28 0.09 -5.24 0.08 -5.28 0.09 -5.27 0.07 -5.28 0.08 -5.28 0.07 -5.28 0.07 -5.35 0.05 -5.27 0.04 -5.27 0.04 -5.35 0.03 -5.3 0.01 -5.3 0.01 -41.77 -41.76zm41.77 41.76c-23.06,0 -41.77,-18.7 -41.77,-41.76 0,-23.06 18.71,-41.76 41.77,-41.76l0 83.52zm-145.82 -274.58l83.54 0 -0.06 -2.24 0.02 0.4 0.03 0.46 0.02 0.45 0.03 0.46 0.01 0.42 0.04 0.48 0.04 0.92 -0.01 -0.04 0.04 0.48 0.04 0.92 0 -0.01 0.03 0.46 0.04 0.89 0 0.01 0.03 0.46 0.04 0.91 0 0 0.02 0.42 0.05 0.94 0 0 0.03 0.45 0.04 0.92 0.02 0.43 0 0.01 0.03 0.46 0.04 0.91 0.02 0.46 0.02 0.45 0 0 0.03 0.45 0.04 0.92 0.01 0.3 -83.44 3.96 -0.03 -0.6 0 0 -0.03 -0.45 -0.04 -0.92 -0.02 -0.45 -0.02 -0.46 0 0.01 -0.03 -0.46 -0.04 -0.89 -0.02 -0.47 0 0 -0.03 -0.45 -0.04 -0.92 0.01 0.04 -0.04 -0.48 -0.04 -0.92 0 0.01 -0.03 -0.46 -0.04 -0.89 0 -0.01 -0.03 -0.46 -0.04 -0.91 0 0 -0.02 -0.42 -0.05 -0.94 0 0 -0.02 -0.42 -0.03 -0.48 -0.03 -0.46 -0.02 -0.45 -0.03 -0.46 -0.02 -0.5 -0.06 -2.24zm0.06 2.24c-1.23,-23.03 16.44,-42.71 39.47,-43.94 23.03,-1.23 42.72,16.43 43.95,39.46l-83.42 4.48zm-79.34 -46.82l83.54 0 -41.77 -41.76 3.95 -0.01 3.93 -0.03 3.96 -0.04 4.05 -0.04 4.14 -0.02 4.12 0.01 4.17 0.05 4.28 0.11 4.28 0.18 4.42 0.27 4.56 0.41 4.53 0.55 4.7 0.74 4.93 0.99 5.02 1.28 5.06 1.6 5.22 2 5.3 2.49 5.35 3.05 5.22 3.61 4.97 4.13 4.72 4.75 4.26 5.19 3.72 5.52 3.21 5.88 2.66 6.08 2.09 6.09 1.62 6.17 1.21 6.28 0.8 6.31 0.45 6.32 0.15 6.42 -83.54 0 -0.05 -2.56 -0.15 -2.02 -0.18 -1.45 -0.17 -0.92 -0.12 -0.45 -0.01 -0.03 0.22 0.48 0.41 0.78 0.6 0.88 0.8 0.97 0.96 0.97 0.89 0.75 0.86 0.59 0.69 0.41 0.36 0.17 0 0 -0.4 -0.12 -0.72 -0.18 -1.03 -0.21 -1.5 -0.22 -1.89 -0.23 -2.08 -0.19 -2.44 -0.15 -2.76 -0.12 -2.96 -0.07 -3.25 -0.03 -3.46 -0.01 -3.6 0.02 -3.85 0.04 -4.08 0.04 -4.25 0.03 -4.35 0.01 -41.77 -41.76zm41.77 41.76c-23.06,0 -41.77,-18.7 -41.77,-41.76 0,-23.06 18.71,-41.76 41.77,-41.76l0 83.52zm41.77 -81.39l0 39.63 -83.54 0 0 -39.63 41.77 -41.76 41.77 41.76zm-83.54 0c0,-23.06 18.71,-41.76 41.77,-41.76 23.06,0 41.77,18.7 41.77,41.76l-83.54 0zm121.05 41.76l-79.28 0 0 -83.52 79.28 0 0 0 0 83.52zm0 -83.52c23.06,0 41.77,18.7 41.77,41.76 0,23.06 -18.71,41.76 -41.77,41.76l0 -83.52zm27.62 83.52l-27.62 0 0 -83.52 27.62 0 0 0 0 83.52zm0 -83.52c23.06,0 41.77,18.7 41.77,41.76 0,23.06 -18.71,41.76 -41.77,41.76l0 -83.52zm41.64 83.52l-41.64 0 0 -83.52 41.64 0 0 0 0 83.52zm0 -83.52c23.06,0 41.77,18.7 41.77,41.76 0,23.06 -18.71,41.76 -41.77,41.76l0 -83.52zm8.08 83.52l-8.08 0 0 -83.52 8.08 0 0 0 0 83.52zm0 -83.52c23.06,0 41.77,18.7 41.77,41.76 0,23.06 -18.71,41.76 -41.77,41.76l0 -83.52zm164.01 83.52l-164.01 0 0 -83.52 164.01 0 0 0 0 83.52zm0 -83.52c23.06,0 41.77,18.7 41.77,41.76 0,23.06 -18.71,41.76 -41.77,41.76l0 -83.52zm26.21 83.52l-26.21 0 0 -83.52 26.21 0 0 0 0 83.52zm0 -83.52c23.06,0 41.77,18.7 41.77,41.76 0,23.06 -18.71,41.76 -41.77,41.76l0 -83.52zm212.87 358.59l-59.08 -59.06 -3.19 3.58 8.28 -11.19 6.94 -10.89 5.67 -10.57 4.51 -10.25 3.42 -9.91 2.42 -9.58 1.51 -9.32 0.66 -9 -0.16 -8.8 -0.91 -8.61 -1.67 -8.45 -2.38 -8.33 -3.11 -8.16 -3.86 -8.08 -4.57 -7.93 -5.27 -7.75 -6.01 -7.57 -6.71 -7.36 -7.36 -7.07 -8.02 -6.77 -8.65 -6.42 -9.23 -6.04 -9.77 -5.6 -10.3 -5.15 -10.78 -4.65 -11.21 -4.14 -11.58 -3.56 -11.94 -2.97 -12.27 -2.35 -12.52 -1.72 -12.76 -1.04 -12.97 -0.36 0 -83.52 17.51 0.48 17.28 1.42 17 2.32 16.69 3.21 16.34 4.07 15.94 4.9 15.49 5.7 15.02 6.49 14.52 7.25 13.97 8.02 13.37 8.74 12.71 9.46 12.04 10.15 11.32 10.87 10.49 11.52 9.67 12.19 8.77 12.87 7.75 13.47 6.7 14.06 5.57 14.66 4.34 15.13 3.05 15.57 1.69 15.95 0.28 16.24 -1.2 16.44 -2.67 16.5 -4.18 16.56 -5.7 16.49 -7.19 16.37 -8.69 16.19 -10.18 15.99 -11.64 15.73 -3.19 3.58zm3.19 -3.58c-14.33,18.07 -40.62,21.1 -58.69,6.77 -18.07,-14.33 -21.1,-40.6 -6.77,-58.67l65.46 51.9zm-291.22 92.22l0 -83.52 1.19 0.02 8.85 0.23 8.7 0.2 8.59 0.12 8.49 0.07 8.36 -0.01 8.19 -0.09 8.08 -0.21 7.95 -0.3 7.8 -0.43 7.72 -0.56 7.55 -0.68 7.41 -0.84 7.33 -0.99 7.18 -1.15 7.05 -1.31 6.94 -1.49 6.84 -1.68 6.7 -1.86 6.63 -2.07 6.54 -2.28 6.45 -2.51 6.4 -2.74 6.31 -2.98 6.27 -3.23 6.22 -3.52 6.21 -3.82 6.19 -4.13 6.17 -4.45 6.15 -4.79 6.16 -5.17 6.15 -5.55 6.18 -5.98 59.08 59.06 -8.22 7.94 -8.35 7.53 -8.46 7.09 -8.55 6.67 -8.67 6.25 -8.73 5.83 -8.85 5.44 -8.92 5.04 -9.01 4.67 -9.05 4.26 -9.1 3.9 -9.15 3.55 -9.18 3.2 -9.21 2.89 -9.24 2.56 -9.22 2.26 -9.24 1.99 -9.25 1.73 -9.24 1.47 -9.21 1.25 -9.25 1.04 -9.23 0.84 -9.18 0.66 -9.22 0.51 -9.19 0.36 -9.2 0.23 -9.21 0.11 -9.16 0.01 -9.15 -0.07 -9.19 -0.14 -9.2 -0.2 -9.19 -0.25 1.19 0.02zm-1.19 -0.02c-23.05,-0.65 -41.21,-19.88 -40.56,-42.93 0.65,-23.05 19.89,-41.2 42.94,-40.55l-2.38 83.48zm-86.59 -83.5l87.78 0 0 83.52 -87.78 0 -41.77 -41.87 41.77 -41.65zm0 83.52c-23.06,0 -41.77,-18.7 -41.77,-41.76 0,-23.06 18.71,-41.76 41.77,-41.76l0 83.52zm46.15 159.24l-83.54 0 0.06 2.26 -0.33 -6.29 -0.32 -6.3 -0.3 -6.3 -0.29 -6.31 -0.27 -6.29 -0.27 -6.32 -0.24 -6.34 -0.23 -6.33 -0.22 -6.34 -0.2 -6.32 -0.19 -6.33 -0.18 -6.32 -0.18 -6.37 -0.15 -6.38 -0.14 -6.3 -0.14 -6.36 -0.12 -6.39 -0.11 -6.35 -0.1 -6.4 -0.09 -6.38 -0.08 -6.34 -0.07 -6.38 -0.06 -6.39 -0.05 -6.36 -0.05 -6.4 -0.03 -6.43 -0.02 -6.37 -0.02 -6.37 -0.01 -6.41 0 -6.41 0.01 -6.39 0.01 -6.4 83.54 0.22 -0.01 6.32 -0.01 6.31 0 6.29 0.01 6.27 0.02 6.31 0.02 6.31 0.03 6.23 0.05 6.26 0.05 6.3 0.06 6.25 0.07 6.24 0.08 6.28 0.07 6.24 0.1 6.2 0.11 6.23 0.12 6.19 0.14 6.22 0.14 6.24 0.15 6.18 0.16 6.15 0.18 6.2 0.19 6.19 0.2 6.18 0.2 6.14 0.23 6.13 0.24 6.12 0.25 6.12 0.27 6.15 0.27 6.11 0.3 6.1 0.3 6.08 0.33 6.09 0.06 2.26zm-0.06 -2.26c1.24,23.03 -16.42,42.72 -39.45,43.96 -23.03,1.24 -42.73,-16.41 -43.97,-39.44l83.42 -4.52zm6.37 5.08l0 83.52 -1.36 -0.02 -3.28 -0.13 -3.29 -0.19 -3.26 -0.23 -3.41 -0.32 -3.46 -0.4 -3.47 -0.5 -3.53 -0.6 -3.72 -0.77 -3.79 -0.93 -3.75 -1.1 -3.87 -1.31 -3.96 -1.57 -3.96 -1.81 -3.96 -2.1 -4.01 -2.45 -3.89 -2.75 -3.75 -3.04 -3.67 -3.44 -3.35 -3.62 -3.17 -3.95 -2.91 -4.22 -2.53 -4.28 -2.19 -4.35 -1.97 -4.6 -1.66 -4.68 -1.34 -4.61 -1.07 -4.61 -0.87 -4.74 -0.63 -4.74 -0.43 -4.68 -0.25 -4.76 -0.09 -4.84 83.54 0 0.03 1.94 0.09 1.68 0.13 1.42 0.13 1.02 0.13 0.7 0.13 0.53 0.06 0.21 -0.06 -0.14 -0.15 -0.36 -0.19 -0.39 -0.35 -0.58 -0.53 -0.76 -0.61 -0.77 -0.61 -0.66 -0.77 -0.72 -0.65 -0.54 -0.65 -0.45 -0.59 -0.37 -0.38 -0.2 -0.24 -0.11 -0.08 -0.03 0.17 0.05 0.43 0.12 0.51 0.13 0.74 0.15 1.05 0.18 1.25 0.18 1.38 0.16 1.55 0.14 1.82 0.13 1.91 0.11 2.02 0.07 -1.36 -0.02zm1.36 0.02c23.05,0.75 41.14,20.05 40.39,43.1 -0.75,23.05 -20.06,41.13 -43.11,40.38l2.72 -83.48zm29.84 83.5l-31.2 0 0 -83.52 31.2 0 41.77 41.76 -41.77 41.76zm0 -83.52c23.06,0 41.77,18.7 41.77,41.76 0,23.06 -18.71,41.76 -41.77,41.76l0 -83.52zm-41.77 81.39l0 -39.63 83.54 0 0 39.63 -41.77 41.76 -41.77 -41.76zm83.54 0c0,23.06 -18.71,41.76 -41.77,41.76 -23.06,0 -41.77,-18.7 -41.77,-41.76l83.54 0zm-202.43 -41.76l160.66 0 0 83.52 -160.66 0 0 0 0 -83.52zm0 83.52c-23.06,0 -41.77,-18.7 -41.77,-41.76 0,-23.06 18.71,-41.76 41.77,-41.76l0 83.52zm-106.9 -83.52l106.9 0 0 83.52 -106.9 0 -41.77 -41.76 41.77 -41.76zm0 83.52c-23.06,0 -41.77,-18.7 -41.77,-41.76 0,-23.06 18.71,-41.76 41.77,-41.76l0 83.52zm41.77 -81.39l0 39.63 -83.54 0 0 -39.63 41.77 -41.76 41.77 41.76zm-83.54 0c0,-23.06 18.71,-41.76 41.77,-41.76 23.06,0 41.77,18.7 41.77,41.76l-83.54 0zm79.34 -46.83l83.42 4.5 0.06 -2.25 -0.15 6.42 -0.45 6.32 -0.8 6.31 -1.21 6.28 -1.62 6.17 -2.09 6.09 -2.66 6.08 -3.21 5.88 -3.72 5.52 -4.26 5.19 -4.72 4.75 -4.97 4.13 -5.22 3.61 -5.35 3.05 -5.3 2.49 -5.22 2 -5.06 1.6 -5.02 1.28 -4.93 0.99 -4.7 0.74 -4.53 0.55 -4.56 0.41 -4.42 0.27 -4.28 0.18 -4.28 0.11 -4.17 0.05 -4.12 0.01 -4.14 -0.02 -4.05 -0.04 -3.96 -0.04 -3.93 -0.03 -3.95 -0.01 0 -83.52 4.35 0.01 4.25 0.03 4.08 0.04 3.85 0.04 3.6 0.02 3.46 -0.01 3.25 -0.03 2.96 -0.07 2.76 -0.12 2.44 -0.15 2.08 -0.19 1.89 -0.23 1.5 -0.22 1.03 -0.21 0.72 -0.18 0.4 -0.12 0 0 -0.36 0.17 -0.69 0.41 -0.86 0.59 -0.89 0.75 -0.96 0.97 -0.8 0.97 -0.6 0.88 -0.41 0.78 -0.22 0.48 0.01 -0.03 0.12 -0.45 0.17 -0.92 0.18 -1.45 0.15 -2.02 0.05 -2.56 0.06 -2.25zm-0.06 2.25c0,-23.06 18.71,-41.76 41.77,-41.76 23.06,0 41.77,18.7 41.77,41.76l-83.54 0zm0.79 -463.99l83.44 -3.96 0.04 1.42 0.21 14.63 0.22 14.65 0.23 14.65 0.25 14.67 0.25 14.69 0.26 14.7 0.25 14.71 0.25 14.7 0.25 14.7 0.24 14.73 0.23 14.72 0.21 14.74 0.2 14.73 0.17 14.71 0.15 14.73 0.12 14.7 0.1 14.7 0.06 14.72 0.02 14.7 -0.02 14.67 -0.06 14.67 -0.1 14.66 -0.16 14.64 -0.21 14.62 -0.26 14.62 -0.32 14.57 -0.38 14.58 -0.45 14.54 -0.51 14.52 -0.59 14.5 -0.66 14.47 -0.74 14.44 -83.42 -4.5 0.72 -13.98 0.64 -14.03 0.57 -14.06 0.49 -14.12 0.45 -14.16 0.36 -14.2 0.32 -14.25 0.26 -14.26 0.19 -14.34 0.16 -14.34 0.1 -14.38 0.06 -14.43 0.02 -14.45 -0.02 -14.48 -0.06 -14.48 -0.1 -14.54 -0.12 -14.56 -0.15 -14.57 -0.17 -14.61 -0.18 -14.61 -0.21 -14.62 -0.23 -14.64 -0.24 -14.67 -0.25 -14.68 -0.25 -14.7 -0.25 -14.69 -0.26 -14.7 -0.25 -14.71 -0.25 -14.73 -0.23 -14.73 -0.22 -14.71 -0.21 -14.73 0.04 1.42zm-0.04 -1.42c-0.3,-23.05 18.14,-42.01 41.2,-42.31 23.06,-0.3 42.02,18.14 42.32,41.19l-83.52 1.12z"/>
    <path id="1" class="fil4" d="M977.33 1486.96c4.95,-108.98 69.36,-178.33 158.56,-138.7 44.59,24.77 49.54,89.17 49.54,138.7l-208.1 0zm213.47 177.42c-54.4,21.68 -132.03,28.4 -178.79,-8.99 -54.5,-44.59 -34.68,-133.75 -34.68,-133.75 44.6,-4.96 227.92,4.95 302.25,0 0,-79.26 -29.73,-163.48 -99.1,-203.1 -54.5,-34.68 -133.79,-24.77 -173.42,-4.96 -173.42,89.17 -153.6,371.53 19.82,406.2 56.71,18.9 140.46,10.76 186.77,-28.71 15.25,-13.03 -13.98,-30.23 -22.85,-26.69zm316.79 -8.2c-59.55,33.13 -104.14,24.09 -104.14,-65.19 0,-69.35 -4.96,-178.34 0,-247.69l94.14 0 0 -39.63 -94.14 0 0 -158.42c0,-28.63 -84.24,-41.59 -84.24,3.67 0,85.39 0,375.87 0,422.25 0,219.85 173.67,160.2 211.61,110.8 11.21,-14.61 -5.23,-35.78 -23.23,-25.79zm-984.74 -271.11l0 -270.35c55.96,0 111.48,-2.01 167.06,-2.01 165.83,0 168.05,270.36 0,270.36 -55.09,0 -111.4,2 -167.06,2zm-103.31 -218.29c-0.23,-4.85 -0.48,-9.69 -0.74,-14.53 0,-49.53 -34.69,-44.58 -79.28,-44.58l0 -39.63 79.28 0 27.62 0 41.64 0 8.08 0 164.01 0 26.21 0c163.51,0 297.29,143.65 183.33,287.3 -76.51,76.5 -161.97,79.16 -258.49,76.41l-87.78 0c-0.18,67.82 0.81,135.05 4.38,201 0,37.15 19.51,43.65 48.08,44.58l31.2 0 0 39.63 -160.66 0 -106.9 0 0 -39.63c44.59,0 79.28,4.95 79.28,-44.58 8.17,-151.36 2.85,-309.47 0.74,-465.97z"/>
   </g>
   <path class="fil3" d="M1900.55 2075.07l0 136.63 18.05 0c17.24,0 30.61,-5.92 40.02,-17.76 9.4,-11.84 14.13,-28.69 14.13,-50.51 0,-21.81 -4.73,-38.67 -14.18,-50.55 -9.5,-11.89 -22.83,-17.81 -39.97,-17.81l-18.05 0zm-52.43 161.83l0 -187.03 63.22 0c18.49,0 33.38,1.33 44.7,4 11.36,2.63 21.58,7.07 30.75,13.18 13.32,8.88 23.73,20.05 31.18,33.61 7.5,13.51 11.22,27.88 11.22,43.06 0,14.56 -2.86,28.12 -8.59,40.67 -5.78,12.51 -14.04,23.35 -24.88,32.51 -7.83,6.45 -17.05,11.36 -27.7,14.85 -10.64,3.44 -22.06,5.15 -34.28,5.15l-85.62 0zm209.2 0l0 -124.02 40.39 0 0 124.02 -40.39 0zm-0.86 -174.96c0,-5.87 2.05,-10.88 6.21,-15.04 4.15,-4.15 9.12,-6.2 14.94,-6.2 5.97,0 10.98,2.05 15.09,6.16 4.11,4.1 6.16,9.11 6.16,15.08 0,5.92 -2.05,10.89 -6.21,14.99 -4.15,4.11 -9.17,6.16 -15.04,6.16 -5.82,0 -10.79,-2.05 -14.94,-6.21 -4.16,-4.15 -6.21,-9.11 -6.21,-14.94zm196.82 111.38l0 116 -38.39 0 0 -56.76c-4.49,3.01 -9.16,5.2 -14.13,6.68 -4.92,1.48 -10.17,2.25 -15.66,2.25 -17.34,0 -31.66,-6.11 -42.93,-18.38 -11.32,-12.27 -16.95,-28.02 -16.95,-47.22 0,-19.9 5.87,-35.99 17.57,-48.4 11.7,-12.41 26.64,-18.62 44.93,-18.62 12.51,0 22.92,2.67 31.33,8.07 8.4,5.34 14.47,13.22 18.19,23.68l-17.48 10.07c-1.95,-7.74 -4.91,-13.56 -8.88,-17.43 -3.96,-3.86 -8.83,-5.77 -14.66,-5.77 -8.69,0 -15.32,4.06 -19.96,12.12 -4.63,8.07 -6.92,19.81 -6.92,35.19 0,16.56 1.91,28.5 5.73,35.85 3.87,7.4 10.07,11.07 18.67,11.07 7.11,0 12.42,-2.14 15.9,-6.49 3.49,-4.34 5.25,-10.84 5.25,-19.52l0 -22.39 38.39 0zm29.56 63.58l0 -124.02 40.4 0 0 124.02 -40.4 0zm-0.86 -174.96c0,-5.87 2.06,-10.88 6.21,-15.04 4.15,-4.15 9.12,-6.2 14.95,-6.2 5.97,0 10.98,2.05 15.09,6.16 4.1,4.1 6.16,9.11 6.16,15.08 0,5.92 -2.06,10.89 -6.21,14.99 -4.16,4.11 -9.17,6.16 -15.04,6.16 -5.83,0 -10.8,-2.05 -14.95,-6.21 -4.15,-4.15 -6.21,-9.11 -6.21,-14.94zm97.7 174.96l0 -102.83 -33.23 0 0 -21.19 106.86 0 0 21.19 -33.23 0 0 102.83 -40.4 0zm81.03 0l32.33 -101.11c3.2,-10.07 6.83,-17.09 10.88,-21.05 4.06,-3.91 9.55,-5.87 16.43,-5.87 6.45,0 11.51,1.72 15.14,5.2 3.63,3.44 7.02,10.03 10.07,19.77l33.48 103.06 -42.45 0 -6.83 -22.62 -41.31 0 -6.59 22.62 -21.15 0zm32.9 -39.81l30.94 0 -14.85 -53.85 -16.09 53.85zm149.6 1.48c0,7.64 1.29,12.84 3.82,15.61 2.58,2.72 7.5,4.11 14.76,4.11l10.07 0 0 18.61 -34.38 0c-12.75,0 -21.72,-2.76 -26.93,-8.25 -5.15,-5.49 -7.73,-15.33 -7.73,-29.51l0 -162.45 40.39 0 0 161.88z"/>
   <path class="fil0" d="M2492.18 1416.18l151.75 135.61 -85.26 -190.3 -66.49 54.69zm155.54 -157.86l135.22 45.08 -107.66 -98.7 -27.56 53.62zm119.39 -156.85l272.41 18.65 -247.06 -131.31 -25.35 112.66zm58.35 -280.04l138.57 -89.4 -151.91 27.59 13.34 61.81z"/>
   <path class="fil0" d="M547.34 136.51l-151.75 -135.61 85.26 190.3 66.49 -54.69zm-155.54 157.87l-135.22 -45.08 107.66 98.7 27.56 -53.62zm-119.39 156.84l-272.41 -18.65 247.06 131.32 25.35 -112.67zm-58.35 280.05l-138.57 89.39 151.91 -27.59 -13.34 -61.8z"/>
  </g>
 </g>
</svg>
