<?xml version="1.0" encoding="UTF-8"?>
<!DOCTYPE svg PUBLIC "-//W3C//DTD SVG 1.1//EN" "http://www.w3.org/Graphics/SVG/1.1/DTD/svg11.dtd">
<!-- Creator: CorelDRAW 2018 (64 Bit Versão de avaliação) -->
<svg xmlns="http://www.w3.org/2000/svg" xml:space="preserve" width="20.2776mm" height="17.4412mm" version="1.1" style="shape-rendering:geometricPrecision; text-rendering:geometricPrecision; image-rendering:optimizeQuality; fill-rule:evenodd; clip-rule:evenodd"
viewBox="0 0 2027.76 1744.12"
 xmlns:xlink="http://www.w3.org/1999/xlink">
 <defs>
  <style type="text/css">
   <![CDATA[
    .fil1 {fill:#373435}
    .fil0 {fill:#FFF212;fill-opacity:0.349020}
   ]]>
  </style>
 </defs>
 <g id="Camada_x0020_1">
  <metadata id="CorelCorpID_0Corel-Layer"/>
  <g id="_1126557888">
   <path class="fil0" d="M381.61 -1.06l1264.54 0c209.88,0 381.61,171.62 381.61,381.35l0 983.53c0,209.74 -171.74,381.35 -381.61,381.35l-1264.54 0c-209.88,0 -381.62,-171.6 -381.62,-381.35l0 -983.53c0,-209.74 171.73,-381.35 381.62,-381.35z"/>
   <g>
    <path class="fil1" d="M447.9 747.45l1131.93 0c24.91,0 45.28,44.29 45.28,98.45l0 0.02c0,54.14 -20.37,98.44 -45.28,98.44l-1131.93 0c-24.9,0 -45.27,-44.3 -45.27,-98.44l0 -0.02c0,-54.16 20.37,-98.45 45.27,-98.45z"/>
    <path class="fil1" d="M447.9 1091.4l1131.93 0c24.91,0 45.28,44.3 45.28,98.46l0 0.01c0,54.15 -20.37,98.44 -45.28,98.44l-1131.93 0c-24.9,0 -45.27,-44.29 -45.27,-98.44l0 -0.01c0,-54.16 20.37,-98.46 45.27,-98.46z"/>
    <path class="fil1" d="M447.9 403.49l1131.93 0c24.91,0 45.28,44.3 45.28,98.46l0 0.01c0,54.15 -20.37,98.44 -45.28,98.44l-1131.93 0c-24.9,0 -45.27,-44.29 -45.27,-98.44l0 -0.01c0,-54.16 20.37,-98.46 45.27,-98.46z"/>
   </g>
  </g>
 </g>
</svg>
