<?xml version="1.0" encoding="UTF-8"?>
<!DOCTYPE svg PUBLIC "-//W3C//DTD SVG 1.1//EN" "http://www.w3.org/Graphics/SVG/1.1/DTD/svg11.dtd">
<!-- Creator: CorelDRAW 2018 (64 Bit Versão de avaliação) -->
<svg xmlns="http://www.w3.org/2000/svg" xml:space="preserve" width="278.85mm" height="210mm" version="1.1" style="shape-rendering:geometricPrecision; text-rendering:geometricPrecision; image-rendering:optimizeQuality; fill-rule:evenodd; clip-rule:evenodd"
viewBox="0 0 27884.96 21000"
 xmlns:xlink="http://www.w3.org/1999/xlink">
 <defs>
  <style type="text/css">
   <![CDATA[
    .fil4 {fill:#FEFEFE}
    .fil1 {fill:#F9DC26}
    .fil0 {fill:black}
    .fil2 {fill:#F9DC26;fill-rule:nonzero}
    .fil3 {fill:black;fill-rule:nonzero}
   ]]>
  </style>
 </defs>
 <g id="Camada_x0020_1">
  <metadata id="CorelCorpID_0Corel-Layer"/>
  <g id="_4886473456">
   <path class="fil0" d="M4302.58 11297.54c2228.26,3288.65 6243.78,4634.01 9613.41,6362.24 399.55,-164.42 1188.46,-511.61 1603.45,-689.46l0.52 2.06c3321.38,-1536.06 8687.19,-4213.68 9322.52,-8653.56 435.76,-2356.33 69.87,-4701.09 -1841.39,-6282.81 -2036.88,-1685.79 -4840.47,-2469.96 -7258.36,-1206.47 -688.38,359.77 -1145.97,729.69 -1725.9,1220.27 -2250.25,-1486.85 -4582.14,-2289.95 -7293.09,-1155.78 -2012.41,841.94 -3273.12,2559.65 -3696.56,4609.33 -427.67,2070.61 79.8,4029.69 1275.4,5794.18z"/>
   <path class="fil1" d="M12034.86 7166.73c174.04,1276.45 -1624.53,986.35 -1392.46,0l1392.46 0zm2610.85 58.03c348.12,1276.45 -1682.55,1160.4 -1450.48,-58.03l1450.48 58.03zm-1856.62 -1102.4c0,1218.42 406.14,2204.77 1160.39,3075.1 1508.48,1798.62 2610.85,2088.72 4757.54,2378.85 -754.23,290.1 -1856.6,174.05 -2610.82,-58.06 -696.23,-174.04 -1508.51,-638.19 -1972.65,-1044.34 -1102.37,-870.3 -2030.66,-2494.91 -2030.66,-4061.45 0,-2436.85 1334.43,-3539.25 1392.43,-3887.38 -290.09,-232.07 -1218.39,-754.25 -1566.51,-870.3 -986.32,-406.15 -2204.71,-754.28 -3481.12,-522.2 -1740.55,290.1 -3016.99,1102.4 -3945.29,2552.93 -928.29,1450.5 -1160.36,3713.3 -522.19,5337.87 1508.51,4061.45 5453.8,5686.03 8876.93,7426.63 174.04,58.05 986.32,522.2 1102.34,522.2l3365.11 -1566.55c1044.34,-464.18 5453.76,-3133.13 5453.76,-4409.58 -1102.37,-58.02 -1450.45,-348.12 -1856.59,-1102.37 -1276.42,-2726.98 2204.71,-5337.9 696.23,-6846.43 754.22,116.02 1218.39,1044.35 1044.31,1856.65 -116.01,522.18 -1218.39,1856.65 -1218.39,3655.3 0,580.2 116.05,1102.38 406.14,1392.48 348.12,348.12 812.25,348.12 1450.46,348.12 986.32,-1392.47 1218.42,-3829.35 754.25,-5511.95 -406.13,-1334.45 -1218.38,-2088.75 -2262.73,-2784.97 -2088.69,-1276.48 -4293.4,-1624.58 -6440.09,-116.05 -1392.46,986.35 -2552.85,2436.87 -2552.85,4235.5z"/>
   <path class="fil0" d="M6349.01 5484.13c348.11,-58.02 -522.17,-1740.61 0,-2088.74 290.09,-174.06 1044.34,580.21 1218.4,1044.37 174.05,290.11 174.05,522.19 348.11,348.13 174.06,-580.21 -1566.51,-3365.2 -2204.72,-1740.62 -232.07,812.29 174.06,2320.82 638.21,2436.86z"/>
   <path class="fil0" d="M14645.71 7224.75l-1450.47 -58.02c-232.08,1218.43 1798.58,1334.47 1450.47,58.02z"/>
   <path class="fil0" d="M12034.86 7166.73l-1392.45 0c-232.08,986.35 1566.51,1276.45 1392.45,0z"/>
   <path class="fil0" d="M9000.36 5908.16c295.56,0 535.14,239.58 535.14,535.15 0,295.55 -239.58,535.15 -535.14,535.15 -295.54,0 -535.12,-239.6 -535.12,-535.15 0,-295.57 239.58,-535.15 535.12,-535.15z"/>
   <path class="fil0" d="M18013.02 5908.16c295.55,0 535.14,239.58 535.14,535.15 0,295.55 -239.59,535.15 -535.14,535.15 -295.55,0 -535.13,-239.6 -535.13,-535.15 0,-295.57 239.58,-535.15 535.13,-535.15z"/>
   <polygon class="fil0" points="7644.88,7915.24 7621.95,7494.94 9779.16,8011.6 9751.98,8369.65 "/>
   <polygon class="fil0" points="7739.67,8696.38 7719.5,8351.04 9618.56,8570.23 9594.63,8868.93 "/>
   <polygon class="fil0" points="8242.29,9526.88 8166.32,9281.99 9571.75,9101.75 9607.69,9320.93 "/>
   <g>
    <path class="fil2" d="M16940.49 15100.24l-979.78 2184.86 -442.8 -198.58 979.78 -2184.86 0.5 -1.12 442.3 199.7zm-442.8 -198.58c54.83,-122.28 198.42,-176.95 320.69,-122.12 122.27,54.83 176.94,198.42 122.11,320.7l-442.8 -198.58zm41.79 -114.85l485.3 0 0 0 -0.14 11.03 -0.41 10.84 -0.66 10.67 -0.88 10.5 -1.07 10.14 -1.28 10.26 -1.48 10.11 -1.63 9.97 -1.82 9.94 -1.92 9.63 -2.1 9.76 -2.26 9.74 -2.33 9.42 -2.47 9.45 -2.64 9.63 -2.77 9.56 -2.84 9.39 -2.95 9.39 -3.07 9.4 -3.23 9.56 -3.35 9.58 -3.36 9.32 -3.51 9.5 -3.69 9.71 -3.74 9.56 -3.83 9.57 -4.02 9.83 -4.07 9.71 -4.12 9.66 -4.27 9.83 -4.38 9.91 -4.5 9.98 -441.8 -200.82 3.2 -7.1 3.08 -6.95 2.95 -6.77 2.86 -6.72 2.69 -6.41 2.48 -6.07 2.43 -6.09 2.28 -5.84 2.09 -5.47 2.01 -5.44 1.94 -5.38 1.71 -4.88 1.57 -4.66 1.49 -4.58 1.37 -4.35 1.24 -4.11 1.07 -3.7 0.94 -3.39 0.87 -3.35 0.77 -3.12 0.6 -2.56 0.5 -2.32 0.44 -2.19 0.3 -1.66 0.23 -1.39 0.14 -0.99 0.08 -0.62 0.05 -0.5 0 0.1 -0.04 0.51 -0.03 0.92 -0.02 1.35 0 0zm-179.84 -152.02l485.3 0 -196.48 -238.22 15.85 3.23 15.83 3.58 15.65 3.91 15.67 4.3 15.58 4.7 15.31 5.06 15.41 5.55 15.6 6.15 15.33 6.61 15.17 7.13 15.35 7.87 15.28 8.57 14.89 9.13 14.95 10.01 14.94 10.97 14.52 11.72 14.03 12.46 13.83 13.53 13.49 14.64 12.72 15.39 12.04 16.3 11.2 17.08 10.22 17.69 9.36 18.59 8.26 19.13 7.05 19.31 5.92 19.61 4.79 19.87 3.64 19.89 2.5 19.61 1.46 19.38 0.48 19.27 -485.3 0 0.12 4.83 0.4 5.26 0.74 5.79 1.18 6.41 1.61 6.69 2.04 6.75 2.47 6.77 2.98 6.89 3.36 6.69 3.52 6.09 3.82 5.82 3.94 5.34 3.92 4.75 3.99 4.32 3.61 3.55 3.13 2.78 2.92 2.36 2.64 1.93 1.93 1.31 1.19 0.73 0.88 0.49 0.25 0.13 -0.63 -0.29 -1.17 -0.51 -1.6 -0.63 -2.49 -0.89 -3.29 -1.08 -3.7 -1.12 -4.31 -1.18 -5.03 -1.25 -5.55 -1.26 -6.23 -1.27 -196.48 -238.22zm196.48 238.22c-131.55,-25.5 -217.53,-152.84 -192.04,-284.4 25.49,-131.56 152.83,-217.54 284.38,-192.04l-92.34 476.44zm288.82 -327.2l0 88.98 -485.3 0 0 -88.98 242.65 -242.66 242.65 242.66zm-485.3 0c0,-134.01 108.64,-242.66 242.65,-242.66 134.01,0 242.65,108.65 242.65,242.66l-485.3 0zm1512.56 242.66l-1269.91 0 0 -485.32 1269.91 0 242.65 242.66 -242.65 242.66zm0 -485.32c134.01,0 242.65,108.65 242.65,242.66 0,134.01 -108.64,242.66 -242.65,242.66l0 -485.32zm-242.65 331.64l0 -88.98 485.3 0 0 88.98 -209.1 240.32 -276.2 -240.32zm485.3 0c0,134.01 -108.64,242.66 -242.65,242.66 -134.01,0 -242.65,-108.65 -242.65,-242.66l485.3 0zm-227.5 229.22l-362.12 -323.08 2.37 -2.63 8.63 -9.08 8.8 -8.66 9.11 -8.41 9.28 -8.03 9.15 -7.43 9.52 -7.27 9.62 -6.9 9.56 -6.47 9.75 -6.2 9.61 -5.76 9.73 -5.5 9.85 -5.24 9.78 -4.91 9.88 -4.68 9.9 -4.41 9.9 -4.15 9.72 -3.85 9.8 -3.65 9.93 -3.49 9.92 -3.27 9.87 -3.06 9.77 -2.86 9.96 -2.73 9.86 -2.53 9.87 -2.38 10.07 -2.27 9.92 -2.08 9.8 -1.93 10.16 -1.86 10.21 -1.73 9.92 -1.56 10.2 -1.48 67.1 480.64 -4.6 0.68 -4.58 0.72 -4.01 0.67 -3.76 0.7 -3.84 0.75 -3.42 0.72 -2.99 0.67 -2.89 0.7 -2.62 0.67 -2.22 0.61 -2.15 0.62 -1.75 0.54 -1.4 0.47 -1.13 0.39 -0.96 0.37 -0.76 0.29 -0.3 0.13 -0.02 0.01 0.24 -0.12 0.42 -0.21 0.79 -0.42 0.93 -0.52 1.09 -0.66 1.51 -0.96 1.6 -1.09 1.92 -1.38 2.12 -1.61 2.01 -1.63 2.4 -2.09 2.53 -2.33 2.48 -2.44 2.59 -2.72 2.37 -2.63zm-2.37 2.63c-90.66,98.68 -244.17,105.18 -342.85,14.52 -98.68,-90.66 -105.19,-244.18 -14.53,-342.86l357.38 328.34zm-117.97 236.3l-440.34 -203.98 0 0 7.28 -15.67 7.14 -15.28 7.04 -14.99 6.88 -14.54 6.77 -14.26 6.72 -14.01 6.55 -13.57 6.45 -13.26 6.37 -12.96 6.22 -12.56 6.09 -12.19 6.01 -11.94 5.97 -11.69 5.87 -11.39 5.75 -10.99 5.63 -10.64 5.63 -10.5 5.54 -10.17 5.45 -9.85 5.49 -9.75 5.43 -9.46 5.36 -9.13 5.39 -9 5.52 -9 5.46 -8.62 5.59 -8.61 5.93 -8.81 6.1 -8.72 6.31 -8.65 6.86 -8.97 7.49 -9.25 8.27 -9.6 362.12 323.08 2.41 -2.78 1.35 -1.67 0.48 -0.61 -0.35 0.47 -0.82 1.18 -1.25 1.85 -1.83 2.83 -2.26 3.58 -2.44 3.96 -2.83 4.72 -3.14 5.37 -3.33 5.78 -3.53 6.27 -3.83 6.93 -4.02 7.37 -4.19 7.82 -4.45 8.42 -4.61 8.83 -4.75 9.19 -4.91 9.65 -5.13 10.16 -5.33 10.67 -5.48 11.06 -5.59 11.4 -5.77 11.86 -5.95 12.31 -6.04 12.61 -6.25 13.14 -6.42 13.58 -6.54 13.91 -6.7 14.36 -6.84 14.71 0 0zm-1724.15 2567.66l1283.81 -2771.64 440.34 203.98 -1283.81 2771.64 -0.12 0.27 -440.22 -204.25zm440.34 203.98c-56.32,121.6 -200.57,174.51 -322.16,118.19 -121.59,-56.32 -174.5,-200.57 -118.18,-322.17l440.34 203.98zm-59.09 128.83l-485.3 0 0 0 0.32 -14.2 0.8 -12.75 1.17 -11.9 1.49 -11.44 1.72 -10.85 1.92 -10.43 2.03 -9.73 2.22 -9.76 2.38 -9.58 2.44 -9.2 2.68 -9.52 2.75 -9.22 2.79 -8.99 3 -9.28 3.12 -9.3 3.21 -9.25 3.41 -9.53 3.5 -9.52 3.56 -9.45 3.79 -9.83 3.89 -9.88 4 -9.97 4.18 -10.19 4.29 -10.33 4.44 -10.48 4.54 -10.57 4.73 -10.89 4.91 -11.11 4.99 -11.15 5.14 -11.38 5.31 -11.62 5.45 -11.78 440.1 204.52 -4.65 10.06 -4.45 9.72 -4.3 9.5 -4.13 9.25 -3.89 8.81 -3.73 8.57 -3.6 8.39 -3.38 8 -3.21 7.69 -3 7.35 -2.84 7.07 -2.65 6.7 -2.41 6.27 -2.32 6.17 -2.08 5.62 -1.83 5.15 -1.71 4.93 -1.48 4.4 -1.28 3.96 -1.17 3.77 -0.91 3.04 -0.64 2.28 -0.56 2.12 -0.32 1.26 -0.14 0.62 -0.03 0.15 0.18 -1.03 0.3 -1.91 0.39 -3 0.39 -3.92 0.32 -5.25 0.16 -7.18 0 0zm171.48 163.15l-485.3 0 207.48 240.09 -16.57 -2.63 -16.55 -3.09 -16.32 -3.49 -16.55 -4.03 -16.58 -4.6 -16.59 -5.17 -16.56 -5.8 -16.54 -6.46 -16.56 -7.22 -16.51 -7.99 -16.35 -8.78 -16.27 -9.68 -16.17 -10.67 -15.69 -11.47 -15.41 -12.47 -14.93 -13.42 -14.36 -14.34 -13.77 -15.32 -13.05 -16.25 -12 -16.8 -11.08 -17.47 -10.18 -18.22 -8.97 -18.38 -7.95 -18.82 -6.93 -19.21 -5.78 -19.1 -4.7 -18.9 -3.77 -19.03 -2.85 -19.03 -1.95 -18.79 -1.11 -18.43 -0.36 -18.18 485.3 0 -0.02 -1.02 -0.11 -1.75 -0.27 -2.55 -0.49 -3.23 -0.73 -3.71 -1 -4.02 -1.42 -4.66 -1.89 -5.23 -2.23 -5.3 -2.59 -5.3 -3.14 -5.6 -3.34 -5.29 -3.62 -5.06 -3.99 -4.97 -4.03 -4.48 -3.96 -3.96 -3.87 -3.48 -3.67 -2.97 -3.29 -2.41 -3.11 -2.05 -2.53 -1.52 -1.95 -1.04 -1.45 -0.71 -0.82 -0.36 -0.14 -0.06 0.5 0.18 1.13 0.35 1.82 0.5 2.51 0.61 3.4 0.73 3.83 0.71 4.47 0.71 207.48 240.09zm-207.48 -240.09c132.59,19.42 224.33,142.67 204.91,275.26 -19.42,132.59 -142.66,224.34 -275.25,204.92l70.34 -480.18zm-277.82 329.07l0 -88.98 485.3 0 0 88.98 -242.65 242.66 -242.65 -242.66zm485.3 0c0,134.01 -108.64,242.66 -242.65,242.66 -134.01,0 -242.65,-108.65 -242.65,-242.66l485.3 0zm-1519.06 -242.66l1276.41 0 0 485.32 -1276.41 0 -242.65 -242.66 242.65 -242.66zm0 485.32c-134.01,0 -242.65,-108.65 -242.65,-242.66 0,-134.01 108.64,-242.66 242.65,-242.66l0 485.32zm242.65 -331.64l0 88.98 -485.3 0 0 -88.98 207.49 -240.09 277.81 240.09zm-485.3 0c0,-134.01 108.64,-242.66 242.65,-242.66 134.01,0 242.65,108.65 242.65,242.66l-485.3 0zm171.5 -165.94l485.3 0 0 0 -0.36 18.16 -1.08 18.41 -1.91 18.76 -2.78 18.96 -3.69 19 -4.62 18.9 -5.66 19.08 -6.79 19.19 -7.82 18.83 -8.89 18.56 -9.96 18.15 -10.91 17.52 -11.9 16.95 -12.93 16.41 -13.75 15.57 -14.22 14.44 -14.9 13.63 -15.49 12.75 -15.79 11.72 -16.03 10.74 -16.37 9.91 -16.68 9.08 -16.61 8.13 -16.5 7.28 -16.66 6.6 -16.79 5.95 -16.71 5.27 -16.6 4.63 -16.66 4.11 -16.69 3.6 -16.57 3.08 -16.67 2.66 -70.32 -480.18 4.37 -0.7 3.83 -0.72 3.03 -0.64 2.4 -0.59 1.8 -0.51 1.01 -0.31 0.27 -0.09 -0.26 0.1 -0.76 0.34 -1.53 0.75 -2.28 1.24 -2.65 1.61 -2.95 1.98 -3.39 2.52 -3.75 3.09 -3.84 3.51 -3.82 3.88 -4.01 4.55 -3.87 4.91 -3.52 5.01 -3.19 5.12 -2.9 5.29 -2.51 5.24 -2.1 5.05 -1.75 4.95 -1.3 4.36 -0.92 3.74 -0.65 3.36 -0.42 2.86 -0.23 2.2 -0.08 1.39 -0.02 0.66 0 0zm-59.06 -125.98l440.28 -204.1 -0.08 -0.18 5.41 11.7 5.28 11.53 5.19 11.47 4.96 11.09 4.83 10.91 4.71 10.81 4.54 10.53 4.4 10.35 4.26 10.18 4.17 10.12 4 9.91 3.86 9.72 3.72 9.57 3.6 9.45 3.52 9.47 3.34 9.24 3.21 9.15 3.06 8.99 2.98 9.05 2.9 9.16 2.73 9.06 2.59 8.98 2.51 9.22 2.37 9.38 2.22 9.42 2.12 9.89 1.95 10.22 1.77 10.79 1.55 11.48 1.21 11.94 0.86 12.93 0.34 14.55 -485.3 0 0.18 7.87 0.38 5.77 0.43 4.28 0.45 3.34 0.35 2.17 0.21 1.1 0.06 0.27 -0.16 -0.68 -0.31 -1.2 -0.51 -1.86 -0.73 -2.58 -0.91 -2.98 -1.06 -3.38 -1.32 -3.99 -1.54 -4.53 -1.71 -4.85 -1.9 -5.26 -2.04 -5.51 -2.3 -6.03 -2.48 -6.39 -2.68 -6.74 -2.84 -7.03 -3.01 -7.3 -3.24 -7.74 -3.42 -8.05 -3.6 -8.37 -3.75 -8.57 -3.97 -8.97 -4.14 -9.27 -4.25 -9.39 -4.5 -9.81 -4.67 -10.12 -0.08 -0.18zm0.08 0.18c-56.45,-121.54 -3.69,-265.84 117.84,-322.3 121.53,-56.46 265.83,-3.7 322.28,117.84l-440.12 204.46zm-844.54 -2975.92l1284.74 2771.64 -440.28 204.1 -1284.74 -2771.64 -0.02 -0.03 440.3 -204.07zm-440.28 204.1c-56.36,-121.58 -3.48,-265.84 118.09,-322.2 121.57,-56.36 265.83,-3.48 322.19,118.1l-440.28 204.1zm-120.39 -239.02l362.18 -323.02 0.02 0.03 8.35 9.69 7.35 9.1 6.87 8.97 6.4 8.79 6 8.58 5.93 8.81 5.67 8.73 5.44 8.62 5.38 8.77 5.47 9.11 5.41 9.24 5.37 9.35 5.44 9.65 5.51 9.95 5.58 10.26 5.58 10.41 5.63 10.64 5.75 10.99 5.87 11.39 5.97 11.69 6.01 11.94 6.09 12.19 6.22 12.56 6.37 12.96 6.45 13.26 6.55 13.57 6.68 13.94 6.79 14.27 6.91 14.6 7.04 14.99 7.14 15.28 7.27 15.64 -440.32 204.04 -6.85 -14.74 -6.7 -14.36 -6.54 -13.91 -6.39 -13.52 -6.25 -13.13 -6.08 -12.68 -5.95 -12.31 -5.77 -11.86 -5.59 -11.4 -5.48 -11.06 -5.33 -10.67 -5.13 -10.16 -4.91 -9.65 -4.75 -9.19 -4.61 -8.83 -4.45 -8.42 -4.24 -7.91 -3.96 -7.28 -3.79 -6.83 -3.58 -6.37 -3.39 -5.89 -3.07 -5.26 -2.77 -4.61 -2.58 -4.19 -2.26 -3.58 -1.75 -2.71 -1.25 -1.85 -0.92 -1.32 -0.24 -0.33 0.47 0.61 1.23 1.52 2.49 2.87 0.02 0.03zm-227.49 -229.19l485.3 0 -209.1 -240.33 10.15 1.49 9.91 1.55 10.21 1.72 10.18 1.87 9.76 1.91 9.9 2.07 10.08 2.27 9.84 2.36 9.87 2.52 10.02 2.73 9.77 2.84 9.77 3.02 9.99 3.28 9.99 3.49 9.8 3.64 9.8 3.85 9.9 4.14 9.98 4.44 9.97 4.7 9.78 4.9 9.95 5.29 9.93 5.62 9.72 5.83 9.86 6.29 9.8 6.65 9.74 7.04 9.63 7.43 9.53 7.83 9.52 8.37 9.22 8.67 9.02 9.09 8.88 9.6 -362.18 323.02 3 3.24 2.84 2.87 2.76 2.59 2.76 2.43 2.47 2.03 2.29 1.77 2.1 1.52 1.88 1.27 1.64 1.05 1.22 0.73 1.13 0.64 0.87 0.47 0.4 0.2 0.31 0.14 0.02 0.02 -0.34 -0.14 -0.72 -0.29 -1.02 -0.38 -1.11 -0.39 -1.41 -0.46 -1.91 -0.58 -2.19 -0.64 -2.22 -0.61 -2.67 -0.68 -2.98 -0.72 -3.02 -0.67 -3.5 -0.73 -3.9 -0.77 -3.78 -0.69 -4.03 -0.68 -4.63 -0.73 -4.65 -0.67 -209.1 -240.33zm209.1 240.33c-132.72,-18.52 -225.29,-141.15 -206.77,-273.88 18.52,-132.73 141.15,-225.3 273.87,-206.78l-67.1 480.66zm276.2 -329.31l0 88.98 -485.3 0 0 -88.98 242.65 -242.66 242.65 242.66zm-485.3 0c0,-134.01 108.64,-242.66 242.65,-242.66 134.01,0 242.65,108.65 242.65,242.66l-485.3 0zm1561.69 242.66l-1319.04 0 0 -485.32 1319.04 0 242.65 242.66 -242.65 242.66zm0 -485.32c134.01,0 242.65,108.65 242.65,242.66 0,134.01 -108.64,242.66 -242.65,242.66l0 -485.32zm-242.65 331.64l0 -88.98 485.3 0 0 88.98 -196.47 238.22 -288.83 -238.22zm485.3 0c0,134.01 -108.64,242.66 -242.65,242.66 -134.01,0 -242.65,-108.65 -242.65,-242.66l485.3 0zm-178.89 152.02l-485.3 0 0 0 0.47 -19.1 1.43 -19.21 2.43 -19.44 3.6 -19.89 4.65 -19.54 5.85 -19.64 6.99 -19.33 8.05 -18.87 9.21 -18.51 10.22 -17.9 11.06 -17.03 11.89 -16.28 12.76 -15.58 13.37 -14.64 13.79 -13.62 14.02 -12.54 14.5 -11.8 14.94 -11.06 14.93 -10.06 14.96 -9.23 15.33 -8.65 15.36 -7.91 15.11 -7.14 15.37 -6.66 15.64 -6.19 15.4 -5.56 15.34 -5.08 15.64 -4.73 15.71 -4.32 15.64 -3.9 15.82 -3.59 15.88 -3.24 92.36 476.44 -6.18 1.26 -5.54 1.25 -5.02 1.26 -4.25 1.16 -3.6 1.09 -3.2 1.06 -2.44 0.88 -1.5 0.59 -1.05 0.46 -0.61 0.28 0.32 -0.17 1.01 -0.57 1.34 -0.83 2.01 -1.36 2.72 -2.02 3 -2.44 3.2 -2.86 3.67 -3.64 3.95 -4.32 4.04 -4.94 3.89 -5.32 3.74 -5.77 3.6 -6.3 3.29 -6.61 2.83 -6.63 2.45 -6.79 2.03 -6.78 1.51 -6.36 1.16 -6.41 0.71 -5.62 0.37 -5.09 0.13 -4.66 0 0zm40.83 114.77l-442.74 198.74 0.48 1.06 -4.56 -10.11 -4.42 -10.02 -4.26 -9.83 -4.21 -9.9 -4.14 -9.96 -3.94 -9.74 -3.81 -9.58 -3.8 -9.83 -3.66 -9.74 -3.48 -9.52 -3.37 -9.49 -3.3 -9.6 -3.19 -9.6 -3.02 -9.43 -2.96 -9.59 -2.83 -9.59 -2.66 -9.44 -2.55 -9.5 -2.42 -9.49 -2.32 -9.64 -2.16 -9.6 -2.02 -9.62 -1.9 -9.86 -1.72 -9.79 -1.55 -9.81 -1.4 -9.92 -1.22 -10.07 -1.03 -10.17 -0.83 -10.3 -0.62 -10.44 -0.38 -10.61 -0.14 -10.78 485.3 0 -0.02 -1.1 -0.02 -0.69 -0.02 -0.28 0.01 0.1 0.05 0.47 0.1 0.81 0.16 1.18 0.25 1.55 0.32 1.81 0.38 1.96 0.52 2.46 0.6 2.7 0.7 2.9 0.84 3.31 0.95 3.52 1.08 3.82 1.15 3.91 1.28 4.15 1.46 4.55 1.53 4.62 1.68 4.86 1.85 5.21 1.98 5.42 2.04 5.44 2.16 5.57 2.41 6.08 2.5 6.16 2.56 6.16 2.75 6.48 2.94 6.77 3.02 6.84 3.14 6.97 0.48 1.06zm-0.48 -1.06c55.46,121.99 1.52,265.87 -120.47,321.33 -121.99,55.46 -265.85,1.52 -321.31,-120.47l441.78 -200.86zm538.44 2384.66l-980.7 -2184.86 442.74 -198.74 980.7 2184.86 0.03 198.66 -442.77 0.08zm442.74 -198.74c54.88,122.26 0.25,265.87 -122,320.75 -122.25,54.88 -265.86,0.25 -320.74,-122.01l442.74 -198.74zm2724.66 618.48l0 -745.29 485.3 0 0 745.29 -242.65 242.66 -242.65 -242.66zm485.3 0c0,134.01 -108.64,242.66 -242.65,242.66 -134.01,0 -242.65,-108.65 -242.65,-242.66l485.3 0zm1681.68 242.66l-1924.33 0 0 -485.32 1924.33 0 0 0 0 485.32zm-27.65 -465.17l312.98 370.88 -0.08 0.07 -8.38 6.87 -8.96 6.88 -8.75 6.3 -8.48 5.77 -9.11 5.82 -9.31 5.57 -9.01 5.05 -8.95 4.72 -9.25 4.56 -9.28 4.28 -9.31 4.01 -9.21 3.69 -9.22 3.44 -9.04 3.13 -9.22 2.97 -9.19 2.73 -8.92 2.44 -9.15 2.29 -8.92 2.05 -9.1 1.9 -9.01 1.69 -8.77 1.48 -9 1.35 -8.67 1.13 -8.68 1 -8.89 0.86 -8.6 0.7 -8.58 0.56 -8.55 0.43 -8.75 0.31 -8.51 0.17 -8.48 0.07 0 -485.32 1.88 -0.01 1.71 -0.03 1.31 -0.05 1.39 -0.07 1.2 -0.08 1.04 -0.08 0.61 -0.06 0.66 -0.08 0.53 -0.07 0.06 -0.01 0.13 -0.02 -0.25 0.05 -0.48 0.1 -0.46 0.11 -0.85 0.21 -0.76 0.2 -1.19 0.37 -1.36 0.43 -1.34 0.47 -1.68 0.62 -1.81 0.73 -2.07 0.89 -2.2 1.02 -2.33 1.14 -2.19 1.16 -2.41 1.35 -2.85 1.71 -2.83 1.8 -2.36 1.61 -2.77 2 -3.16 2.42 -2.74 2.25 -0.08 0.07zm227.86 -192.56l0 485.32 234.41 -179.97 -2.4 8.76 -2.43 8.53 -2.53 8.49 -2.68 8.64 -2.77 8.54 -2.82 8.33 -2.95 8.37 -3.14 8.53 -3.25 8.44 -3.34 8.31 -3.35 8 -3.62 8.31 -3.77 8.26 -3.92 8.25 -4.11 8.25 -4.12 7.94 -4.4 8.12 -4.65 8.2 -4.82 8.1 -5.02 8.09 -5.13 7.88 -5.39 7.91 -5.89 8.22 -5.76 7.66 -6 7.63 -6.55 7.91 -6.87 7.87 -6.86 7.44 -6.99 7.22 -7.61 7.43 -8.1 7.48 -8.05 6.98 -312.98 -370.88 -2.51 2.18 -2.64 2.44 -2.21 2.15 -1.67 1.72 -1.58 1.72 -1.67 1.91 -1.43 1.73 -0.94 1.19 -0.76 1.02 -0.95 1.32 -0.55 0.79 -0.33 0.52 -0.3 0.49 -0.16 0.26 -0.07 0.12 0.1 -0.18 0.32 -0.62 0.27 -0.53 0.36 -0.77 0.47 -1.02 0.52 -1.21 0.73 -1.74 0.68 -1.69 0.69 -1.8 0.72 -1.95 0.83 -2.37 0.9 -2.65 0.87 -2.68 0.88 -2.82 0.95 -3.23 0.99 -3.43 0.94 -3.46 234.41 -179.97zm-234.41 179.97c34.62,-129.46 167.64,-206.35 297.1,-171.73 129.46,34.62 206.34,167.65 171.72,297.11l-468.82 -125.38zm312.29 305.35l-77.88 0 0 -485.32 77.88 0 242.65 242.66 -242.65 242.66zm0 -485.32c134.01,0 242.65,108.65 242.65,242.66 0,134.01 -108.64,242.66 -242.65,242.66l0 -485.32zm-242.65 1138.1l0 -895.44 485.3 0 0 895.44 -242.65 242.66 -242.65 -242.66zm485.3 0c0,134.01 -108.64,242.66 -242.65,242.66 -134.01,0 -242.65,-108.65 -242.65,-242.66l485.3 0zm-320.53 -242.66l77.88 0 0 485.32 -77.88 0 -234.58 -180.61 234.58 -304.71zm0 485.32c-134.01,0 -242.65,-108.65 -242.65,-242.66 0,-134.01 108.64,-242.66 242.65,-242.66l0 485.32zm-227.44 -191.12l314 -370.04 -0.07 -0.05 8.15 7.11 7.99 7.4 7.54 7.39 7.26 7.51 7.11 7.78 6.69 7.7 6.42 7.78 6.15 7.84 5.94 7.95 5.78 8.13 5.4 7.99 5.11 7.89 5.08 8.24 4.75 8.07 4.55 8.1 4.3 8 4.19 8.12 4.1 8.35 3.7 7.85 3.7 8.17 3.62 8.39 3.39 8.2 3.22 8.15 3.05 8.03 3.01 8.26 2.86 8.21 2.78 8.3 2.66 8.33 2.51 8.17 2.47 8.39 2.36 8.37 2.25 8.33 -469.16 124.1 -0.91 -3.37 -0.88 -3.13 -0.85 -2.89 -0.89 -2.89 -0.8 -2.51 -0.78 -2.32 -0.76 -2.19 -0.71 -1.94 -0.73 -1.93 -0.64 -1.61 -0.55 -1.34 -0.4 -0.93 -0.42 -0.93 -0.48 -1.03 -0.16 -0.33 -0.17 -0.32 -0.12 -0.24 0.03 0.08 0.17 0.27 0.4 0.66 0.35 0.53 0.56 0.83 0.86 1.21 0.92 1.23 1.05 1.34 1.24 1.5 1.43 1.64 1.77 1.94 1.82 1.89 2.02 1.97 2.39 2.22 2.45 2.13 -0.07 -0.05zm27.23 18.71l0 -485.32 0 0 8.72 0.07 8.75 0.19 9 0.34 8.8 0.48 8.84 0.61 8.83 0.77 8.89 0.92 9.24 1.12 8.94 1.27 8.98 1.42 9.04 1.62 9.03 1.79 9.31 2.05 9.14 2.21 9.15 2.42 9.17 2.64 9.1 2.83 9.46 3.18 9.18 3.34 9.09 3.54 9.42 3.93 9.13 4.1 9.09 4.34 9.05 4.61 8.99 4.88 8.91 5.14 8.82 5.41 8.8 5.73 8.75 6.05 8.61 6.32 8.36 6.51 8.18 6.74 -314 370.04 2.36 1.94 2.4 1.87 2.51 1.84 2.47 1.71 2.38 1.55 2.26 1.39 2.19 1.26 2.13 1.16 2.03 1.03 1.93 0.92 1.81 0.82 1.96 0.81 1.47 0.58 1.44 0.52 1.54 0.52 1.06 0.33 0.97 0.28 0.81 0.22 0.64 0.15 0.67 0.15 0.25 0.05 0.12 0.02 -0.1 -0.02 -0.26 -0.03 -0.12 -0.02 -0.63 -0.06 -0.81 -0.07 -0.94 -0.07 -1.14 -0.06 -1.06 -0.04 -1.47 -0.03 -1.64 -0.01 0 0zm-2825.32 -485.32l2825.32 0 0 485.32 -2825.32 0 -242.65 -242.66 242.65 -242.66zm0 485.32c-134.01,0 -242.65,-108.65 -242.65,-242.66 0,-134.01 108.64,-242.66 242.65,-242.66l0 485.32zm242.65 -320.53l0 77.87 -485.3 0 0 -77.87 180.59 -234.58 304.71 234.58zm-485.3 0c0,-134.01 108.64,-242.66 242.65,-242.66 134.01,0 242.65,108.65 242.65,242.66l-485.3 0zm191.13 -227.46l370 314.02 0.06 -0.06 -7.12 8.14 -7.39 7.99 -7.39 7.54 -7.51 7.26 -7.61 6.97 -7.87 6.84 -7.96 6.55 -7.66 6.01 -7.95 5.94 -8 5.69 -8.11 5.5 -8.03 5.18 -8.12 5.01 -7.95 4.68 -7.89 4.45 -8.42 4.53 -8.22 4.23 -8.04 3.95 -8.05 3.79 -8.17 3.69 -8.22 3.54 -7.99 3.31 -8.3 3.3 -8.37 3.17 -8.05 2.93 -8.29 2.89 -8.23 2.75 -8.14 2.61 -8.36 2.57 -8.33 2.45 -8.42 2.38 -8.32 2.24 -124.12 -469.16 3.4 -0.92 3.06 -0.86 2.95 -0.87 2.7 -0.83 2.7 -0.87 2.39 -0.79 2.13 -0.75 2.13 -0.77 1.61 -0.61 1.46 -0.58 1.53 -0.63 1.1 -0.48 0.95 -0.43 0.83 -0.39 0.62 -0.31 0.24 -0.11 -0.18 0.09 0.11 -0.07 -0.15 0.1 -0.54 0.33 -0.65 0.42 -0.97 0.66 -1.08 0.77 -1.23 0.92 -1.16 0.91 -1.68 1.39 -1.81 1.56 -1.77 1.63 -1.89 1.82 -1.97 2.02 -2.21 2.39 -2.14 2.44 0.06 -0.06zm-18.72 26.31l485.3 0 0 0 -0.07 8.74 -0.19 8.77 -0.33 9.05 -0.48 8.82 -0.6 8.84 -0.77 8.91 -0.91 8.94 -1.11 9.17 -1.25 8.98 -1.42 9.05 -1.61 9.05 -1.79 9.07 -2.05 9.43 -2.2 9.12 -2.4 9.15 -2.62 9.17 -2.84 9.18 -3.2 9.54 -3.32 9.18 -3.57 9.18 -3.92 9.42 -4.08 9.13 -4.39 9.21 -4.61 9.05 -4.87 8.99 -5.13 8.9 -5.4 8.83 -5.92 9.09 -5.95 8.59 -6.21 8.47 -6.62 8.52 -6.75 8.17 -370 -314.02 -1.95 2.35 -1.98 2.56 -1.73 2.35 -1.61 2.33 -1.74 2.67 -1.38 2.25 -1.25 2.18 -1.15 2.11 -1.03 2.03 -0.97 2.03 -0.8 1.79 -0.8 1.94 -0.61 1.54 -0.5 1.4 -0.54 1.6 -0.34 1.08 -0.26 0.93 -0.2 0.75 -0.14 0.58 -0.15 0.73 -0.05 0.21 -0.01 0.05 0.02 -0.11 0.05 -0.34 0.03 -0.29 0.07 -0.66 0.07 -0.87 0.08 -1.08 0.06 -1.24 0.05 -1.17 0.03 -1.61 0.01 -1.78 0 0zm485.3 -2484.28l0 2484.28 -485.3 0 0 -2484.28 0 0 485.3 0zm-463.63 31.44l365.96 -318.72 0 -0.01 6.97 8.26 6.64 8.33 6.46 8.64 6.07 8.6 5.92 8.94 5.57 8.95 5.19 8.88 5.04 9.18 4.81 9.38 4.32 9.02 4.07 9.05 3.91 9.32 3.54 9.06 3.33 9.15 3.17 9.4 2.95 9.47 2.57 9 2.39 9.04 2.23 9.27 2.01 9.17 1.8 9.13 1.61 9.1 1.43 9.04 1.22 8.8 1.09 8.98 0.94 9.19 0.76 8.91 0.59 8.63 0.47 8.83 0.34 9.05 0.19 8.77 0.07 8.75 -485.3 0 -0.01 -1.77 -0.03 -1.59 -0.04 -1.15 -0.07 -1.19 -0.09 -1.25 -0.06 -0.79 -0.04 -0.35 -0.05 -0.4 -0.06 -0.42 0.01 0 0.03 0.2 0.08 0.41 0.13 0.59 0.21 0.87 0.21 0.8 0.27 0.94 0.49 1.55 0.55 1.64 0.57 1.57 0.64 1.64 0.87 2.06 0.87 1.95 1 2.08 1.33 2.6 1.42 2.58 1.41 2.42 1.67 2.67 1.86 2.82 1.87 2.64 2.12 2.84 2.16 2.71 2.35 2.78 0 -0.01zm-194.08 -232.59l485.3 0 -172.95 -232.43 8.37 2.56 8.51 2.69 8.46 2.8 8 2.74 8.21 2.9 8.35 3.07 8.14 3.11 8.1 3.22 8 3.29 7.97 3.41 8.03 3.57 7.81 3.61 7.89 3.77 7.97 3.98 7.65 3.96 7.84 4.22 7.73 4.34 7.6 4.43 7.78 4.72 7.57 4.79 7.48 4.94 7.72 5.31 7.51 5.4 7.62 5.73 7.29 5.75 7.24 5.95 7.52 6.5 7.17 6.49 7.26 6.92 7.02 7.04 6.95 7.34 6.93 7.75 -365.96 318.72 2.13 2.39 1.91 2.02 1.76 1.76 1.76 1.68 1.45 1.31 1.58 1.36 1.04 0.87 0.89 0.69 0.98 0.75 0.63 0.44 0.62 0.43 0.14 0.1 -0.01 -0.01 -0.02 -0.02 -0.44 -0.25 -0.53 -0.3 -0.68 -0.36 -1.07 -0.56 -1.01 -0.5 -1.31 -0.63 -1.63 -0.75 -1.65 -0.73 -1.95 -0.83 -2.14 -0.89 -2.28 -0.9 -2.48 -0.95 -2.51 -0.93 -2.89 -1.02 -3.34 -1.14 -3.1 -1.02 -3.31 -1.05 -3.67 -1.12 -172.95 -232.43zm172.95 232.43c-128.36,-38.49 -201.21,-173.77 -162.72,-302.13 38.49,-128.36 173.76,-201.22 302.12,-162.73l-139.4 464.86zm312.35 -310.29l0 77.86 -485.3 0 0 -77.86 242.65 -242.66 242.65 242.66zm-485.3 0c0,-134.01 108.64,-242.66 242.65,-242.66 134.01,0 242.65,108.65 242.65,242.66l-485.3 0zm2987.33 242.66l-2744.68 0 0 -485.32 2744.68 0 0 0 0 485.32zm-22.91 -468.52l307.22 375.68 2.91 -2.42 -8.29 6.8 -8.52 6.58 -8.51 6.17 -8.6 5.9 -8.86 5.72 -9.04 5.47 -9.11 5.18 -8.8 4.71 -9.23 4.63 -9.24 4.33 -9.14 4.01 -9.19 3.76 -9.13 3.49 -9.12 3.24 -9.19 3.04 -9.35 2.85 -9.24 2.59 -8.95 2.31 -9.25 2.19 -9.15 1.96 -8.86 1.72 -9.39 1.64 -9.05 1.39 -8.76 1.2 -9.01 1.07 -9.19 0.93 -8.91 0.74 -8.64 0.59 -8.86 0.46 -9.07 0.34 -8.79 0.18 -8.78 0.07 0 -485.32 1.92 -0.01 1.73 -0.04 1.31 -0.04 1.34 -0.08 1.4 -0.09 0.97 -0.08 0.53 -0.05 0.55 -0.07 0.62 -0.08 0.19 -0.03 -0.33 0.06 0.04 -0.02 -0.41 0.1 -0.67 0.15 -0.55 0.15 -0.98 0.27 -1.27 0.39 -1.27 0.42 -1.34 0.48 -1.55 0.59 -1.75 0.72 -1.86 0.81 -2.14 1.01 -2.27 1.13 -2.02 1.09 -2.49 1.42 -2.58 1.55 -2.56 1.66 -2.48 1.7 -2.53 1.83 -2.72 2.1 -2.65 2.18 2.91 -2.42zm-2.91 2.42c102.39,-86.44 255.49,-73.51 341.93,28.89 86.44,102.4 73.5,255.51 -28.89,341.95l-313.04 -370.84zm228.82 -191.65l0 485.32 234.17 -179.08 -2.38 8.59 -2.49 8.58 -2.55 8.46 -2.64 8.37 -2.77 8.46 -2.91 8.5 -3.04 8.48 -3.05 8.18 -3.28 8.44 -3.43 8.4 -3.44 8.12 -3.58 8.1 -3.86 8.37 -4.03 8.35 -4.06 8.05 -4.33 8.22 -4.42 8.02 -4.78 8.3 -5.01 8.29 -5.03 7.96 -5.29 7.99 -5.71 8.22 -5.84 8 -5.88 7.68 -6.4 7.95 -6.68 7.88 -6.97 7.8 -7.26 7.7 -7.42 7.45 -7.72 7.32 -8.19 7.34 -8.42 7.1 -307.22 -375.68 -2.72 2.3 -2.57 2.3 -2.18 2.06 -1.96 1.97 -1.86 1.98 -1.65 1.84 -1.44 1.7 -1.24 1.53 -0.8 1.04 -0.82 1.14 -0.77 1.1 -0.43 0.65 -0.25 0.4 -0.29 0.49 -0.16 0.26 0.14 -0.26 0.15 -0.28 0.34 -0.69 0.31 -0.61 0.38 -0.85 0.6 -1.34 0.66 -1.56 0.61 -1.5 0.66 -1.72 0.83 -2.2 0.76 -2.14 0.81 -2.36 0.87 -2.64 0.92 -2.95 0.95 -3.12 0.93 -3.24 0.96 -3.45 234.17 -179.08zm-234.17 179.08c35.11,-129.33 168.43,-205.71 297.75,-170.6 129.32,35.11 205.7,168.43 170.59,297.76l-468.34 -127.16zm306.46 306.24l-72.29 0 0 -485.32 72.29 0 242.65 242.66 -242.65 242.66zm0 -485.32c134.01,0 242.65,108.65 242.65,242.66 0,134.01 -108.64,242.66 -242.65,242.66l0 -485.32zm-242.65 1138.13l0 -895.47 485.3 0 0 895.47 -242.65 242.66 -242.65 -242.66zm485.3 0c0,134.01 -108.64,242.66 -242.65,242.66 -134.01,0 -242.65,-108.65 -242.65,-242.66l485.3 0zm-314.94 -242.66l72.29 0 0 485.32 -72.29 0 -234.39 -179.92 234.39 -305.4zm0 485.32c-134.01,0 -242.65,-108.65 -242.65,-242.66 0,-134.01 108.64,-242.66 242.65,-242.66l0 485.32zm-225.07 -190.23l307.38 -375.56 2.83 2.36 8.01 6.96 8.11 7.48 7.44 7.27 7.16 7.37 7.14 7.78 6.43 7.37 6.44 7.75 6.27 7.95 6 7.99 5.64 7.9 5.4 7.91 5.24 8.08 4.9 7.89 4.75 7.98 4.61 8.11 4.42 8.13 4.32 8.33 4.05 8.15 3.88 8.16 3.72 8.18 3.58 8.18 3.47 8.29 3.38 8.42 3.17 8.25 3.08 8.34 3.02 8.56 2.82 8.33 2.79 8.6 2.62 8.46 2.52 8.44 2.49 8.71 2.38 8.71 -468.78 125.48 -0.96 -3.51 -0.93 -3.25 -0.98 -3.28 -0.94 -3.02 -0.85 -2.62 -0.9 -2.65 -0.76 -2.18 -0.8 -2.14 -0.75 -1.99 -0.64 -1.58 -0.61 -1.47 -0.58 -1.32 -0.5 -1.1 -0.42 -0.86 -0.31 -0.65 -0.12 -0.21 -0.1 -0.19 0.03 0.05 0.09 0.14 0.18 0.29 0.46 0.72 0.54 0.79 0.72 1 1 1.33 1.21 1.53 1.3 1.57 1.23 1.41 1.88 2.04 1.82 1.89 2.06 1.99 2.63 2.44 2.49 2.16 2.83 2.36zm-2.83 -2.36c-102.39,-86.44 -115.33,-239.55 -28.89,-341.95 86.44,-102.4 239.54,-115.33 341.93,-28.89l-313.04 370.84zm24.9 20.17l0 -485.32 0 0 8.55 0.07 8.56 0.16 8.82 0.31 8.61 0.42 8.62 0.55 8.66 0.68 8.7 0.82 8.96 1 9 1.17 8.74 1.28 8.81 1.46 8.89 1.63 9.14 1.86 9.11 2.05 9.21 2.27 9.23 2.49 8.92 2.61 9.01 2.85 9.29 3.16 9.3 3.42 9.19 3.63 9.18 3.89 9.27 4.2 9.23 4.49 8.94 4.62 9 4.96 9.16 5.38 8.83 5.52 8.87 5.88 8.59 6.07 8.46 6.33 8.46 6.72 -307.38 375.56 2.66 2.1 2.48 1.87 2.49 1.75 2.59 1.72 2.41 1.5 2.58 1.52 2.28 1.26 2.06 1.06 2.19 1.07 2.07 0.94 1.82 0.77 1.69 0.67 1.64 0.6 1.47 0.5 1.03 0.33 0.78 0.23 0.95 0.25 0.75 0.19 0.51 0.11 0.38 0.08 -0.03 -0.01 -0.29 -0.04 -0.5 -0.08 -0.4 -0.05 -0.6 -0.06 -1.02 -0.1 -1.24 -0.1 -1.42 -0.09 -1.59 -0.08 -1.56 -0.05 -1.96 -0.04 -2.15 -0.01 0 0zm-1843.69 -485.32l1843.69 0 0 485.32 -1843.69 0 -242.65 -242.66 242.65 -242.66zm0 485.32c-134.01,0 -242.65,-108.65 -242.65,-242.66 0,-134.01 108.64,-242.66 242.65,-242.66l0 485.32zm-242.65 424.75l0 -667.41 485.3 0 0 667.41 -242.65 242.66 -242.65 -242.66zm485.3 0c0,134.01 -108.64,242.66 -242.65,242.66 -134.01,0 -242.65,-108.65 -242.65,-242.66l485.3 0zm900.28 242.66l-1142.93 0 0 -485.32 1142.93 0 0 0 0 485.32zm-27.61 -466.15l312.9 370.96 0.01 0 -8.39 6.86 -8.37 6.46 -8.34 6.06 -8.76 6.01 -8.95 5.77 -8.8 5.33 -8.87 5.07 -9.04 4.84 -8.97 4.51 -9.26 4.36 -8.91 3.93 -8.93 3.69 -9.57 3.68 -9.04 3.23 -8.94 2.97 -9.19 2.83 -9.25 2.63 -8.83 2.3 -9.13 2.19 -9.17 1.99 -8.76 1.74 -9.3 1.65 -9.02 1.42 -8.72 1.21 -8.92 1.08 -9.13 0.95 -8.87 0.75 -8.6 0.6 -8.8 0.48 -9 0.34 -8.75 0.19 -8.72 0.07 0 -485.32 1.64 -0.01 1.47 -0.03 1.06 -0.04 1.14 -0.06 1.18 -0.08 0.77 -0.07 0.35 -0.03 0.44 -0.06 0.48 -0.07 0.04 0 -0.4 0.07 0 0 -0.55 0.13 -0.69 0.15 -0.51 0.14 -1.09 0.31 -1.19 0.37 -1.08 0.35 -1.34 0.49 -2.03 0.78 -1.55 0.63 -1.67 0.75 -2.18 1.02 -2.05 1.03 -2.28 1.22 -2.25 1.29 -2.36 1.43 -2.65 1.71 -2.64 1.81 -2.38 1.72 -2.55 1.98 -2.75 2.24 0.01 0zm230.61 -191.59l0 485.32 232.41 -172.93 -2.61 8.53 -2.63 8.27 -2.74 8.35 -2.88 8.42 -2.89 8.14 -3.08 8.36 -3.13 8.13 -3.19 8.03 -3.34 8.09 -3.44 8.04 -3.63 8.14 -3.72 8.01 -3.81 7.89 -3.95 7.88 -4.15 7.95 -4.31 7.94 -4.43 7.81 -4.59 7.8 -4.66 7.58 -4.96 7.75 -5.39 8.05 -5.27 7.51 -5.61 7.67 -5.85 7.64 -5.95 7.42 -6.48 7.69 -6.63 7.49 -6.6 7.11 -7.02 7.19 -7.47 7.25 -7.78 7.15 -7.93 6.88 -312.9 -370.96 -2.39 2.08 -2.3 2.11 -2.05 1.99 -1.66 1.69 -1.28 1.39 -1.37 1.55 -1.28 1.51 -0.81 1 -0.75 1 -0.59 0.79 -0.29 0.41 -0.47 0.71 -0.12 0.17 0.14 -0.22 0.15 -0.24 0.25 -0.45 0.31 -0.56 0.41 -0.79 0.55 -1.1 0.63 -1.31 0.66 -1.43 0.69 -1.54 0.8 -1.86 0.86 -2.07 0.93 -2.35 0.95 -2.49 0.92 -2.5 1.05 -2.96 1 -2.9 1.06 -3.23 1.13 -3.55 1.07 -3.51 232.41 -172.93zm-232.41 172.93c38.51,-128.36 173.79,-201.2 302.14,-162.69 128.35,38.51 201.19,173.79 162.68,302.15l-464.82 -139.46zm304.71 312.39l-72.3 0 0 -485.32 72.3 0 242.65 242.66 -242.65 242.66zm0 -485.32c134.01,0 242.65,108.65 242.65,242.66 0,134.01 -108.64,242.66 -242.65,242.66l0 -485.32zm-242.65 1115.87l0 -873.21 485.3 0 0 873.21 -242.65 242.66 -242.65 -242.66zm485.3 0c0,134.01 -108.64,242.66 -242.65,242.66 -134.01,0 -242.65,-108.65 -242.65,-242.66l485.3 0zm-314.95 -242.66l72.3 0 0 485.32 -72.3 0 -233.93 -178.2 233.93 -307.12zm0 485.32c-134.01,0 -242.65,-108.65 -242.65,-242.66 0,-134.01 108.64,-242.66 242.65,-242.66l0 485.32zm-224.96 -189.21l307.18 -375.72 6.25 5.29 7.71 6.95 7.42 7.05 7.29 7.31 6.87 7.25 6.61 7.33 6.6 7.71 6.21 7.63 5.72 7.35 5.84 7.86 5.5 7.76 5.06 7.47 5.17 7.94 4.98 8.04 4.67 7.87 4.44 7.8 4.31 7.91 4.25 8.12 3.97 7.95 3.83 7.96 3.72 8.07 3.58 8.09 3.4 8.03 3.37 8.24 3.18 8.15 3.04 8.1 3 8.31 2.87 8.29 2.8 8.45 2.62 8.22 2.53 8.26 2.5 8.54 2.4 8.51 -467.86 128.92 -0.94 -3.37 -0.92 -3.1 -0.97 -3.16 -0.94 -2.98 -0.84 -2.53 -0.85 -2.45 -0.78 -2.19 -0.84 -2.2 -0.74 -1.91 -0.65 -1.6 -0.68 -1.59 -0.58 -1.31 -0.5 -1.09 -0.47 -0.98 -0.39 -0.77 -0.19 -0.38 -0.21 -0.37 -0.14 -0.26 0.03 0.05 0.26 0.42 0.37 0.56 0.2 0.31 0.58 0.8 0.84 1.14 0.66 0.85 1.09 1.33 1.4 1.65 1.35 1.49 1.53 1.61 1.89 1.89 1.96 1.87 2.19 1.97 6.25 5.29zm-6.25 -5.29c-100.82,-88.27 -110.99,-241.58 -22.72,-342.41 88.27,-100.83 241.58,-111 342.4,-22.73l-319.68 365.14zm28.21 22.08l0 -485.32 0 0 8.78 0.07 8.79 0.18 9.07 0.34 8.86 0.46 8.62 0.59 8.92 0.74 9.21 0.93 8.98 1.07 9.02 1.23 9.05 1.41 8.78 1.52 9.12 1.76 9.2 1.97 8.86 2.09 9.22 2.35 9.23 2.59 9.18 2.77 9.27 3.04 9.02 3.19 9.03 3.42 9.17 3.72 9.27 4.03 8.87 4.12 8.84 4.36 9.05 4.76 8.96 5.02 8.52 5.07 8.73 5.48 8.84 5.93 8.36 5.93 8.23 6.19 8.17 6.48 -307.18 375.72 2.35 1.86 2.27 1.71 2.24 1.59 2.58 1.73 2.29 1.44 1.94 1.15 2.24 1.26 2.17 1.14 1.78 0.88 1.69 0.78 1.91 0.83 1.67 0.68 1.37 0.52 1.2 0.43 1.29 0.42 1.04 0.31 0.95 0.27 0.76 0.19 0.26 0.07 0.44 0.09 0.18 0.04 -0.3 -0.06 -0.19 -0.03 -0.38 -0.05 -0.58 -0.07 -0.51 -0.05 -0.98 -0.08 -1.42 -0.09 -1.34 -0.08 -1.31 -0.04 -1.73 -0.04 -1.92 -0.01 0 0zm-1142.93 -485.32l1142.93 0 0 485.32 -1142.93 0 -242.65 -242.66 242.65 -242.66zm0 485.32c-134.01,0 -242.65,-108.65 -242.65,-242.66 0,-134.01 108.64,-242.66 242.65,-242.66l0 485.32zm4137.15 772.38l0 -2210.82 485.3 0 0 2210.82 0 0 -485.3 0zm466.09 -27.65l-370.88 313 -2.37 -2.86 -6.4 -8.04 -6.08 -8.08 -5.85 -8.2 -5.7 -8.47 -5.5 -8.65 -5.11 -8.52 -4.87 -8.59 -4.74 -8.91 -4.56 -9.09 -4.16 -8.89 -3.89 -8.8 -3.74 -9.09 -3.45 -8.94 -3.22 -8.95 -3.05 -9.12 -2.92 -9.46 -2.54 -8.92 -2.32 -8.83 -2.2 -9.14 -2 -9.11 -1.79 -9.03 -1.62 -9.05 -1.43 -9.05 -1.21 -8.69 -1.1 -8.94 -0.95 -9.19 -0.76 -8.86 -0.6 -8.59 -0.48 -8.81 -0.34 -9.01 -0.19 -8.75 -0.07 -8.72 485.3 0 0.01 1.64 0.03 1.45 0.04 1.03 0.06 1.09 0.08 1.15 0.06 0.74 0.03 0.27 0.04 0.34 0.07 0.47 -0.01 -0.05 -0.04 -0.21 -0.07 -0.33 -0.12 -0.55 -0.18 -0.74 -0.14 -0.57 -0.24 -0.8 -0.46 -1.5 -0.43 -1.3 -0.46 -1.27 -0.55 -1.42 -0.7 -1.71 -0.69 -1.56 -0.84 -1.79 -1.08 -2.15 -1.12 -2.11 -1.09 -1.93 -1.21 -2 -1.44 -2.27 -1.5 -2.23 -1.51 -2.12 -1.6 -2.12 -1.78 -2.24 -2.37 -2.86zm2.37 2.86c84.84,103.73 69.54,256.61 -34.18,341.46 -103.72,84.85 -256.6,69.55 -341.44,-34.18l375.62 -307.28zm189.26 227.79l-485.3 0 172.91 232.42 -8.51 -2.6 -8.33 -2.65 -8.28 -2.73 -8.43 -2.88 -8.2 -2.92 -8.1 -2.98 -8.32 -3.18 -8.03 -3.2 -8.09 -3.33 -8.23 -3.55 -7.95 -3.54 -7.92 -3.68 -7.99 -3.85 -7.77 -3.9 -7.86 -4.08 -8.02 -4.36 -7.82 -4.42 -7.9 -4.66 -7.77 -4.78 -7.57 -4.85 -7.85 -5.25 -7.89 -5.53 -7.49 -5.48 -7.45 -5.71 -7.6 -6.09 -7.55 -6.35 -7.5 -6.61 -7.25 -6.75 -7.19 -7.01 -7.26 -7.48 -7.15 -7.78 -6.85 -7.89 370.88 -313 -2.05 -2.35 -2.11 -2.3 -2 -2.06 -1.69 -1.65 -1.53 -1.43 -1.54 -1.35 -1.37 -1.15 -1.18 -0.95 -0.81 -0.63 -0.61 -0.44 -0.79 -0.55 -0.51 -0.35 0.01 0.01 0.03 0.02 0.14 0.08 0.46 0.26 0.48 0.26 0.88 0.46 1.19 0.6 1.23 0.59 1.52 0.7 1.73 0.78 1.67 0.71 2.07 0.85 2.35 0.94 2.3 0.88 2.76 1.02 2.88 1.02 2.91 1 3.28 1.07 3.49 1.11 3.53 1.08 172.91 232.42zm-172.91 -232.42c128.35,38.51 201.18,173.8 162.67,302.16 -38.51,128.36 -173.8,201.19 -302.15,162.68l139.48 -464.84zm-312.39 310.29l0 -77.87 485.3 0 0 77.87 -242.65 242.66 -242.65 -242.66zm485.3 0c0,134.01 -108.64,242.66 -242.65,242.66 -134.01,0 -242.65,-108.65 -242.65,-242.66l485.3 0zm-1316.05 -242.66l1073.4 0 0 485.32 -1073.4 0 -242.65 -242.66 242.65 -242.66zm0 485.32c-134.01,0 -242.65,-108.65 -242.65,-242.66 0,-134.01 108.64,-242.66 242.65,-242.66l0 485.32zm242.65 -320.53l0 77.87 -485.3 0 0 -77.87 180.59 -234.58 304.71 234.58zm-485.3 0c0,-134.01 108.64,-242.66 242.65,-242.66 134.01,0 242.65,108.65 242.65,242.66l-485.3 0zm191.13 -227.46l370 314.02 0.03 -0.03 -7.09 8.11 -7.39 7.99 -7.39 7.54 -7.66 7.4 -7.62 6.96 -7.72 6.71 -7.81 6.44 -7.66 6.02 -8.09 6.04 -8.13 5.78 -7.99 5.41 -7.89 5.1 -8.25 5.09 -8.07 4.74 -7.78 4.39 -8.3 4.48 -8.33 4.28 -8.14 4 -7.96 3.74 -8.08 3.65 -8.38 3.62 -7.92 3.27 -8.22 3.27 -8.44 3.2 -8.05 2.93 -8.29 2.89 -8.23 2.75 -8.14 2.61 -8.36 2.57 -8.33 2.45 -8.42 2.38 -8.32 2.24 -124.12 -469.16 3.4 -0.92 3.06 -0.86 2.95 -0.87 2.7 -0.83 2.7 -0.87 2.39 -0.79 2.13 -0.75 2.13 -0.77 1.54 -0.58 1.52 -0.61 1.62 -0.67 0.94 -0.4 1.02 -0.47 0.94 -0.44 0.52 -0.26 0.13 -0.06 -0.08 0.04 0.24 -0.13 -0.27 0.16 -0.67 0.41 -0.53 0.34 -0.83 0.57 -1.21 0.86 -1.37 1.02 -1.18 0.92 -1.53 1.28 -1.66 1.43 -1.76 1.62 -2.04 1.96 -1.97 2.02 -2.21 2.39 -2.11 2.41 0.03 -0.03zm-18.72 26.31l485.3 0 0 0 -0.07 8.74 -0.19 8.77 -0.33 9.05 -0.48 8.82 -0.6 8.84 -0.77 8.91 -0.91 8.94 -1.11 9.17 -1.25 8.98 -1.42 9.05 -1.61 9.05 -1.79 9.07 -2.05 9.43 -2.2 9.12 -2.4 9.15 -2.62 9.17 -2.84 9.18 -3.2 9.54 -3.32 9.18 -3.57 9.18 -3.92 9.42 -4.08 9.13 -4.39 9.21 -4.61 9.05 -4.87 8.99 -5.13 8.9 -5.4 8.83 -5.92 9.09 -5.95 8.59 -6.21 8.47 -6.62 8.52 -6.75 8.17 -370 -314.02 -1.95 2.35 -1.98 2.56 -1.73 2.35 -1.61 2.33 -1.74 2.67 -1.38 2.25 -1.25 2.18 -1.15 2.11 -1.03 2.03 -0.97 2.03 -0.8 1.79 -0.8 1.94 -0.61 1.54 -0.5 1.4 -0.54 1.6 -0.34 1.08 -0.26 0.93 -0.2 0.75 -0.14 0.58 -0.15 0.73 -0.05 0.21 -0.01 0.05 0.02 -0.11 0.05 -0.34 0.03 -0.29 0.07 -0.66 0.07 -0.87 0.08 -1.08 0.06 -1.24 0.05 -1.17 0.03 -1.61 0.01 -1.78 0 0zm485.3 -2212.67l0 2212.67 -485.3 0 0 -2212.67 242.65 -242.66 242.65 242.66zm-485.3 0c0,-134.01 108.64,-242.66 242.65,-242.66 134.01,0 242.65,108.65 242.65,242.66l-485.3 0zm-654.63 -242.66l897.28 0 0 485.32 -897.28 0 0 0 0 -485.32zm25.34 465.71l-313.92 -370.1 0.44 -0.37 8.29 -6.8 8.52 -6.58 8.51 -6.17 8.6 -5.9 9.1 -5.86 8.93 -5.41 8.88 -5.04 9.16 -4.9 9.35 -4.67 9.12 -4.26 9.13 -3.99 9.29 -3.79 9.03 -3.44 9.11 -3.23 9.45 -3.11 9.6 -2.9 8.97 -2.5 9.02 -2.31 9.24 -2.17 9.2 -1.96 9.17 -1.76 9.08 -1.57 9.12 -1.39 8.8 -1.19 9.01 -1.06 9.25 -0.92 8.92 -0.74 8.68 -0.58 8.89 -0.46 9.08 -0.33 8.83 -0.18 8.81 -0.07 0 485.32 -2.05 0.01 -1.87 0.04 -1.42 0.05 -1.47 0.08 -1.48 0.1 -1.08 0.08 -0.59 0.06 -0.63 0.08 -0.7 0.09 -0.18 0.03 -0.06 0.01 0.19 -0.04 0.4 -0.08 0.6 -0.15 0.56 -0.13 0.67 -0.2 1.46 -0.44 1.49 -0.49 1.33 -0.47 1.41 -0.54 1.83 -0.75 1.83 -0.79 2 -0.94 2.39 -1.19 2.38 -1.28 2.24 -1.26 2.47 -1.51 2.8 -1.8 2.48 -1.7 2.53 -1.83 2.72 -2.1 2.65 -2.18 0.44 -0.37zm-0.44 0.37c-102.4,86.44 -255.5,73.5 -341.94,-28.9 -86.44,-102.4 -73.5,-255.5 28.9,-341.94l313.04 370.84zm-228.82 191.66l0 -485.32 -233.05 175.11 2.38 -8.1 2.51 -8.2 2.52 -7.97 2.66 -8.12 2.79 -8.2 2.78 -7.87 2.93 -8 3.01 -7.92 3.11 -7.87 3.33 -8.14 3.46 -8.1 3.52 -7.92 3.64 -7.88 3.78 -7.86 3.97 -7.95 4.25 -8.12 4.38 -8.02 4.49 -7.88 4.68 -7.87 4.86 -7.84 5.21 -8.02 5.52 -8.1 5.67 -7.94 5.67 -7.57 6.15 -7.84 6.55 -7.92 6.55 -7.54 7.12 -7.78 7.25 -7.5 7.54 -7.39 7.99 -7.4 8.12 -7.09 313.92 370.1 2.42 -2.11 2.39 -2.22 2.02 -1.97 1.81 -1.88 1.76 -1.92 1.29 -1.48 1.35 -1.64 1.05 -1.32 0.63 -0.85 0.71 -1 0.64 -0.94 0.41 -0.62 0.14 -0.24 0.02 -0.03 -0.09 0.16 -0.14 0.26 -0.19 0.38 -0.39 0.77 -0.52 1.08 -0.6 1.3 -0.66 1.48 -0.64 1.5 -0.71 1.72 -0.85 2.19 -0.91 2.38 -0.91 2.5 -1.02 2.89 -0.95 2.76 -1 3.08 -1.1 3.45 -1.05 3.46 -1.12 3.78 -233.05 175.11zm233.05 -175.11c-37.3,128.71 -171.9,202.81 -300.6,165.51 -128.7,-37.3 -202.8,-171.9 -165.5,-300.61l466.1 135.1zm-305.35 -310.21l72.3 0 0 485.32 -72.3 0 -242.65 -242.66 242.65 -242.66zm0 485.32c-134.01,0 -242.65,-108.65 -242.65,-242.66 0,-134.01 108.64,-242.66 242.65,-242.66l0 485.32zm242.65 -1138.13l0 895.47 -485.3 0 0 -895.47 242.65 -242.66 242.65 242.66zm-485.3 0c0,-134.01 108.64,-242.66 242.65,-242.66 134.01,0 242.65,108.65 242.65,242.66l-485.3 0zm314.95 242.66l-72.3 0 0 -485.32 72.3 0 234.57 180.59 -234.57 304.73zm0 -485.32c134.01,0 242.65,108.65 242.65,242.66 0,134.01 -108.64,242.66 -242.65,242.66l0 -485.32zm229.25 193.51l-319.48 365.3 -0.07 -0.05 -7.74 -6.98 -7.74 -7.36 -7.43 -7.49 -6.99 -7.43 -6.86 -7.69 -6.45 -7.61 -6.17 -7.65 -5.81 -7.55 -5.96 -8.12 -5.42 -7.79 -5.21 -7.81 -5.23 -8.23 -4.7 -7.74 -4.58 -7.88 -4.45 -7.98 -4.21 -7.91 -4.2 -8.23 -3.92 -8.05 -3.67 -7.85 -3.67 -8.17 -3.51 -8.18 -3.29 -8 -3.24 -8.22 -3.08 -8.17 -2.93 -8.05 -2.81 -8.09 -2.76 -8.23 -2.66 -8.33 -2.51 -8.17 -2.45 -8.33 -2.38 -8.42 -2.24 -8.32 469.14 -124.14 0.92 3.4 0.86 3.06 0.87 2.95 0.89 2.89 0.8 2.51 0.8 2.39 0.81 2.33 0.77 2.13 0.68 1.81 0.62 1.54 0.63 1.54 0.49 1.14 0.41 0.93 0.49 1.03 0.3 0.63 0.12 0.23 0.17 0.31 0.01 0.04 -0.04 -0.08 -0.1 -0.16 -0.55 -0.85 -0.43 -0.67 -0.6 -0.85 -1.04 -1.42 -0.81 -1.05 -1.11 -1.37 -1.31 -1.55 -1.64 -1.83 -1.69 -1.81 -2.07 -2.07 -2.28 -2.18 -2.22 -2 -0.07 -0.05zm-28.11 -21.08l0 485.32 0 0 -8.78 -0.07 -8.79 -0.18 -9.05 -0.34 -8.86 -0.46 -8.87 -0.6 -8.92 -0.75 -8.94 -0.9 -9.21 -1.09 -9.02 -1.24 -9.05 -1.41 -9.34 -1.63 -9.12 -1.79 -8.89 -1.91 -9.44 -2.23 -9.21 -2.4 -9.23 -2.6 -9.59 -2.95 -9.26 -3.08 -9.28 -3.33 -9.47 -3.65 -9.25 -3.85 -9.25 -4.1 -9.58 -4.56 -9.3 -4.74 -9.25 -5.03 -9.42 -5.48 -9.09 -5.64 -8.64 -5.7 -9.26 -6.49 -8.96 -6.72 -8.41 -6.69 -8.64 -7.33 319.48 -365.3 -3 -2.55 -2.57 -2.05 -2.98 -2.22 -3.08 -2.17 -2.3 -1.52 -2.59 -1.6 -2.74 -1.6 -2.41 -1.31 -2.28 -1.16 -2.4 -1.14 -1.89 -0.84 -1.75 -0.73 -1.79 -0.69 -1.42 -0.51 -1.26 -0.42 -1.41 -0.43 -0.89 -0.26 -0.71 -0.18 -0.78 -0.19 -0.07 -0.01 -0.14 -0.03 -0.2 -0.03 0.25 0.03 0.44 0.06 0.41 0.05 0.82 0.08 1.02 0.09 1.21 0.08 1.38 0.08 1.35 0.04 1.75 0.04 1.92 0.01 0 0zm2525.91 485.32l-2525.91 0 0 -485.32 2525.91 0 0 0 0 485.32zm-21.93 -468.57l307.1 375.78 3 -2.5 -8.48 6.95 -8.69 6.69 -8.66 6.27 -8.76 5.97 -8.86 5.68 -9.17 5.52 -9.25 5.21 -8.8 4.66 -9.33 4.65 -9.25 4.28 -9.12 3.97 -9.38 3.8 -9.12 3.44 -9.03 3.18 -9.26 3.02 -9.33 2.81 -9.23 2.57 -8.95 2.28 -9.17 2.15 -9.15 1.94 -8.86 1.71 -9.34 1.62 -9.05 1.38 -8.76 1.19 -8.96 1.06 -9.18 0.92 -8.92 0.74 -8.63 0.58 -8.86 0.46 -9.05 0.34 -8.79 0.18 -8.78 0.07 0 -485.32 1.92 -0.01 1.75 -0.04 1.35 -0.04 1.38 -0.08 1.45 -0.1 1.02 -0.08 0.58 -0.06 0.66 -0.08 0.7 -0.09 0.25 -0.04 -0.2 0.04 0.12 -0.03 -0.33 0.08 -0.51 0.11 -0.45 0.12 -0.89 0.25 -1.15 0.35 -1.26 0.4 -1.17 0.42 -1.44 0.54 -1.86 0.76 -1.78 0.77 -2.07 0.96 -2.31 1.15 -1.96 1.04 -2.57 1.45 -2.67 1.6 -2.52 1.62 -2.6 1.77 -2.66 1.93 -2.87 2.21 -2.84 2.33 3 -2.5zm-3 2.5c102.38,-86.46 255.47,-73.55 341.93,28.83 86.46,102.38 73.55,255.49 -28.83,341.95l-313.1 -370.78zm228.85 -191.68l0 485.32 233.32 -176.04 -2.4 8.25 -2.48 8.24 -2.54 8.13 -2.65 8.2 -2.73 8.11 -2.84 8.13 -2.94 8.1 -3.01 8 -3.22 8.24 -3.28 8.02 -3.35 7.93 -3.57 8.09 -3.76 8.17 -3.82 7.96 -4.01 8.04 -4.3 8.23 -4.38 8.02 -4.62 8.11 -4.84 8.1 -4.97 7.96 -5.24 8.01 -5.65 8.24 -5.92 8.2 -5.99 7.88 -6.21 7.79 -6.63 7.91 -7.09 7.99 -7.39 7.89 -7.56 7.62 -7.7 7.33 -8.34 7.5 -8.64 7.29 -307.1 -375.78 -2.94 2.49 -2.74 2.46 -2.18 2.07 -2.12 2.14 -2.03 2.17 -1.81 2.03 -1.45 1.73 -1.09 1.37 -0.95 1.24 -0.96 1.34 -0.77 1.12 -0.44 0.67 -0.25 0.4 -0.18 0.3 -0.04 0.07 0.14 -0.26 0.14 -0.27 0.35 -0.7 0.48 -1 0.48 -1.05 0.59 -1.35 0.75 -1.75 0.76 -1.88 0.76 -1.92 0.89 -2.38 0.92 -2.52 0.94 -2.73 1.01 -2.99 1.01 -3.12 1.08 -3.45 1.08 -3.58 1.1 -3.79 233.32 -176.04zm-233.32 176.04c36.79,-128.86 171.09,-203.5 299.94,-166.71 128.85,36.79 203.49,171.09 166.7,299.95l-466.64 -133.24zm305.63 309.28l-72.31 0 0 -485.32 72.31 0 242.65 242.66 -242.65 242.66zm0 -485.32c134.01,0 242.65,108.65 242.65,242.66 0,134.01 -108.64,242.66 -242.65,242.66l0 -485.32zm-242.65 1138.13l0 -895.47 485.3 0 0 895.47 -242.65 242.66 -242.65 -242.66zm485.3 0c0,134.01 -108.64,242.66 -242.65,242.66 -134.01,0 -242.65,-108.65 -242.65,-242.66l485.3 0zm-314.96 -242.66l72.31 0 0 485.32 -72.31 0 -233.06 -175.14 233.06 -310.18zm0 485.32c-134.01,0 -242.65,-108.65 -242.65,-242.66 0,-134.01 108.64,-242.66 242.65,-242.66l0 485.32zm-228.82 -191.66l313.04 -370.84 0.41 0.35 8.15 7.11 7.99 7.4 7.54 7.39 7.25 7.5 6.97 7.61 6.71 7.71 6.54 7.92 6.02 7.66 5.81 7.75 5.67 7.94 5.52 8.1 5.21 8.02 4.86 7.84 4.68 7.87 4.49 7.88 4.38 8.02 4.25 8.12 3.97 7.95 3.78 7.86 3.73 8.07 3.51 7.92 3.37 7.91 3.26 7.94 3.19 8.07 3 7.92 2.94 8 2.83 8.06 2.73 8.01 2.66 8.12 2.52 7.97 2.51 8.2 2.39 8.13 -466.12 135.04 -1.11 -3.75 -1.05 -3.46 -1.1 -3.45 -1 -3.08 -1.01 -2.95 -0.95 -2.7 -0.92 -2.5 -0.9 -2.38 -0.79 -1.99 -0.78 -1.92 -0.73 -1.69 -0.65 -1.48 -0.51 -1.11 -0.52 -1.08 -0.39 -0.77 -0.19 -0.38 -0.14 -0.26 -0.09 -0.16 0.02 0.03 0.14 0.24 0.41 0.62 0.64 0.94 0.71 1 0.77 1.03 0.9 1.14 1.36 1.64 1.43 1.65 1.61 1.75 1.81 1.88 2.02 1.97 2.39 2.22 2.45 2.13 0.41 0.35zm-0.41 -0.35c-102.2,-86.67 -114.8,-239.8 -28.13,-342.01 86.67,-102.21 239.79,-114.8 341.99,-28.13l-313.86 370.14zm25.31 19.59l0 -485.32 0 0 8.81 0.07 8.83 0.18 9.08 0.33 8.89 0.46 8.68 0.58 8.92 0.74 9.25 0.92 9.01 1.06 8.8 1.19 9.12 1.39 9.08 1.57 9.17 1.76 9.2 1.96 9.24 2.17 9.02 2.31 8.97 2.5 9.6 2.9 9.45 3.11 9.11 3.23 9.03 3.44 9.29 3.79 9.13 3.99 9.12 4.26 9.35 4.67 9.16 4.9 8.88 5.04 8.93 5.41 9.1 5.86 8.6 5.9 8.51 6.17 8.52 6.58 8.29 6.8 -313.04 370.84 2.65 2.18 2.72 2.1 2.53 1.83 2.48 1.7 2.8 1.8 2.47 1.51 2.24 1.26 2.38 1.28 2.39 1.19 2 0.94 1.83 0.79 1.83 0.75 1.41 0.54 1.33 0.47 1.49 0.49 1.46 0.44 0.67 0.2 0.56 0.13 0.6 0.15 0.4 0.08 0.19 0.04 -0.06 -0.01 -0.18 -0.03 -0.7 -0.09 -0.63 -0.08 -0.59 -0.06 -1.08 -0.08 -1.48 -0.1 -1.47 -0.08 -1.42 -0.05 -1.87 -0.04 -2.05 -0.01 0 0zm-897.28 -485.32l897.28 0 0 485.32 -897.28 0 -242.65 -242.66 242.65 -242.66zm0 485.32c-134.01,0 -242.65,-108.65 -242.65,-242.66 0,-134.01 108.64,-242.66 242.65,-242.66l0 485.32z"/>
    <path id="1" class="fil3" d="M15739.31 17185.81l979.78 -2184.86c41.71,-91.77 63.04,-163.14 63.04,-214.14 0,-77.85 -60.26,-128.84 -179.84,-152.02l0 -88.98 1269.91 0 0 88.98c-79.71,11.13 -134.4,33.38 -165.91,67.68 -30.6,34.3 -83.45,134.41 -159.45,298.48l-1283.81 2771.64c-54.7,117.72 -81.57,194.66 -81.57,230.82 0,92.69 57.47,146.45 171.48,163.15l0 88.98 -1276.41 0 0 -88.98c114.03,-16.7 171.5,-71.39 171.5,-165.94 0,-34.3 -26.89,-110.31 -81.57,-228.03l-1284.74 -2771.64c-76.02,-164.07 -128.86,-264.18 -159.44,-298.48 -30.59,-34.3 -86.2,-56.55 -165.93,-67.68l0 -88.98 1319.04 0 0 88.98c-119.57,23.18 -178.89,74.17 -178.89,152.02 0,51 20.39,122.37 62.11,214.14l980.7 2184.86zm3188.68 -226.18l0 745.29 1924.33 0c55.61,0 99.18,-12.06 128.84,-37.07 29.67,-25.04 53.77,-69.53 71.37,-135.34l77.88 0 0 895.44 -77.88 0c-16.67,-63.03 -39.84,-107.53 -70.44,-133.48 -30.59,-25.96 -74.16,-38.93 -129.77,-38.93l-2825.32 0 0 -77.87c63.04,-16.68 107.53,-39.85 133.48,-70.45 25.96,-30.59 38.93,-74.16 38.93,-130.7l0 -2484.28c0,-56.54 -12.97,-99.18 -38,-127.92 -25.02,-28.73 -69.52,-53.77 -134.41,-73.23l0 -77.86 2744.68 0c57.47,0 101.04,-12.98 130.7,-38.02 30.58,-25.01 54.68,-69.51 72.3,-134.41l72.29 0 0 895.47 -72.29 0c-17.62,-65.83 -41.72,-110.31 -71.38,-135.35 -30.58,-25.03 -74.15,-37.07 -131.62,-37.07l-1843.69 0 0 667.41 1142.93 0c55.61,0 99.17,-12.98 128.84,-38.01 29.66,-25.02 54.69,-69.51 74.16,-134.41l72.3 0 0 873.21 -72.3 0c-17.62,-63.95 -41.72,-108.45 -71.37,-134.41 -30.6,-25.02 -74.16,-38.01 -131.63,-38.01l-1142.93 0zm4379.8 -1195.78l0 2210.82c0,55.62 12.97,98.25 38,128.85 25.03,29.66 69.54,54.68 134.42,74.15l0 77.87 -1073.4 0 0 -77.87c63.04,-16.68 107.52,-39.85 133.48,-70.45 25.96,-30.59 38.93,-74.16 38.93,-130.7l0 -2212.67 -897.28 0c-58.4,0 -101.97,12.97 -131.62,38 -30.59,25.95 -53.76,70.45 -72.3,134.42l-72.3 0 0 -895.47 72.3 0c16.68,63.04 39.85,107.54 69.51,133.5 29.67,25.95 74.16,38.93 131.63,38.93l2525.91 0c57.47,0 101.97,-12.98 131.62,-38.02 30.6,-25.01 53.77,-69.51 72.3,-134.41l72.31 0 0 895.47 -72.31 0c-18.53,-63.97 -41.7,-108.47 -72.3,-134.42 -29.65,-25.03 -73.22,-38 -131.62,-38l-897.28 0z"/>
   </g>
   <g>
    <path class="fil3" d="M10606.88 12029.26l-372.18 669.96 30.47 15.2 -55.22 -22.65 -52.01 -17.74 -48.85 -13.22 -45.79 -9.14 -42.77 -5.45 -39.9 -2.11 -37.38 0.85 -35.17 3.55 -33.29 6.06 -31.87 8.46 -30.76 10.87 -30.05 13.37 -29.61 16.04 -29.32 18.89 -29.14 21.97 -28.96 25.23 -28.73 28.7 -28.36 32.28 -27.84 35.98 -27.16 39.74 -26.25 43.48 -25.15 47.23 -23.85 50.9 -22.37 54.51 -20.71 58.03 -18.87 61.42 -16.89 64.7 -14.76 67.87 -12.49 70.88 -10.11 73.73 -7.59 76.48 -4.99 79.13 -765.6 -34.78 6.71 -106.23 10.37 -104.36 14.03 -102.41 17.69 -100.28 21.34 -98.11 25.01 -95.84 28.73 -93.46 32.47 -90.97 36.27 -88.35 40.13 -85.6 44.07 -82.69 48.07 -79.6 52.16 -76.28 56.34 -72.76 60.6 -68.92 64.87 -64.76 69.18 -60.23 73.4 -55.27 77.52 -49.89 81.39 -44.04 85.03 -37.81 88.26 -31.13 90.99 -24.16 93.27 -16.94 95.01 -9.59 96.26 -2.21 97.1 5.15 97.49 12.39 97.59 19.46 97.55 26.4 97.29 33.16 96.86 39.71 30.47 15.2zm-30.47 -15.2c193.39,85.95 280.49,312.42 194.55,505.81 -85.94,193.39 -312.4,280.5 -505.79,194.55l311.24 -700.36zm298.92 2006.21l0 -766.4 -383.19 383.2 -0.13 -40.3 -0.44 -40.66 -0.78 -40.88 -1.18 -40.95 -1.61 -40.93 -2.11 -40.86 -2.62 -40.63 -3.18 -40.29 -3.78 -39.88 -4.4 -39.31 -5.05 -38.62 -5.72 -37.86 -6.4 -36.94 -7.1 -35.9 -7.78 -34.76 -8.47 -33.5 -9.11 -32.06 -9.74 -30.55 -10.35 -29 -10.87 -27.27 -11.33 -25.47 -11.75 -23.67 -12.08 -21.82 -12.36 -20 -12.57 -18.19 -12.72 -16.44 -12.93 -14.88 -13.13 -13.43 -13.44 -12.14 -13.93 -11.07 -14.61 -10.13 -15.77 -9.46 372.18 -669.96 58.83 35.26 55.83 38.65 52.49 41.63 49.08 44.26 45.57 46.51 42.11 48.38 38.76 50.02 35.45 51.23 32.34 52.22 29.4 53 26.65 53.61 24.07 54.03 21.67 54.31 19.45 54.46 17.44 54.61 15.53 54.6 13.79 54.5 12.2 54.4 10.72 54.22 9.36 53.96 8.12 53.62 6.97 53.3 5.92 52.83 4.96 52.32 4.1 51.77 3.3 51.13 2.59 50.38 1.97 49.63 1.4 48.75 0.92 47.76 0.5 46.76 0.15 45.7 -383.19 383.2zm383.19 -383.2c0,211.63 -171.57,383.2 -383.19,383.2 -211.62,0 -383.19,-171.57 -383.19,-383.2l766.38 0zm-2292.36 -383.2l1909.17 0 0 766.4 -1909.17 0 -382.8 -400.59 382.8 -365.81zm0 766.4c-211.62,0 -383.19,-171.57 -383.19,-383.2 0,-211.63 171.57,-383.2 383.19,-383.2l0 766.4zm75.54 1458.92l485.3 -593.16 -3.29 -2.66 24.22 18.28 25.51 17.17 27.02 16.16 28.59 15.19 30.11 14.16 31.67 13.1 33.3 12.06 34.74 10.93 36.18 9.77 37.56 8.57 38.88 7.35 40.11 6.12 41.14 4.85 42.15 3.58 42.98 2.3 43.74 1.02 44.4 -0.24 44.91 -1.49 45.23 -2.71 45.49 -3.93 45.67 -5.1 45.67 -6.25 45.51 -7.33 45.3 -8.42 44.96 -9.42 44.43 -10.39 43.87 -11.31 43.08 -12.16 42.23 -12.97 41.29 -13.71 40.13 -14.38 38.88 -14.96 283.8 711.92 -55.9 21.52 -56.99 20.4 -57.95 19.25 -58.95 18.11 -59.9 16.9 -60.67 15.65 -61.53 14.39 -62.24 13.04 -62.92 11.68 -63.59 10.25 -64.09 8.75 -64.61 7.22 -65.09 5.61 -65.49 3.93 -65.77 2.17 -66.04 0.36 -66.3 -1.56 -66.46 -3.56 -66.53 -5.66 -66.56 -7.85 -66.47 -10.16 -66.38 -12.57 -66.18 -15.13 -65.9 -17.79 -65.46 -20.61 -64.86 -23.52 -64.25 -26.62 -63.41 -29.84 -62.33 -33.15 -61.14 -36.62 -59.67 -40.17 -57.84 -43.7 -3.29 -2.66zm3.29 2.66c-165.26,-132.2 -192.06,-373.35 -59.87,-538.61 132.19,-165.26 373.33,-192.07 538.59,-59.87l-478.72 598.48zm-121.16 -1907.45l84.66 761.72 331.74 -297.73 0.68 -3.21 -0.64 3.13 -1.36 7.03 -1.9 10.56 -2.33 14.11 -2.65 17.57 -2.8 20.6 -2.79 23.36 -2.66 25.98 -2.39 28.4 -1.98 30.33 -1.43 32.18 -0.77 33.78 0.02 34.93 0.92 35.95 1.93 36.73 3.01 37.1 4.19 37.26 5.44 37.17 6.73 36.81 8.06 36.16 9.39 35.25 10.76 34.16 12.1 32.92 13.42 31.45 14.73 29.9 16.03 28.33 17.38 26.72 18.79 25.21 20.34 23.78 22.1 22.46 24.45 21.53 -485.3 593.16 -65.37 -57.51 -60.02 -60.9 -54.44 -63.5 -48.95 -65.51 -43.64 -67 -38.57 -67.93 -33.79 -68.46 -29.3 -68.55 -25.18 -68.28 -21.38 -67.8 -17.91 -67.01 -14.72 -65.94 -11.87 -64.69 -9.28 -63.29 -6.97 -61.7 -4.89 -59.9 -3.05 -57.89 -1.46 -55.81 -0.04 -53.55 1.15 -50.94 2.13 -48.36 2.96 -45.55 3.57 -42.4 4 -39.26 4.29 -35.9 4.36 -32.2 4.27 -28.35 4.03 -24.47 3.62 -20.24 2.96 -15.51 2.18 -10.73 1.7 -7.93 331.74 -297.73zm-331.74 297.73c45.91,-206.59 250.61,-336.86 457.2,-290.95 206.59,45.91 336.85,250.62 290.94,457.21l-748.14 -166.26zm2763.73 83.13l766.38 0 -357.71 382.35 -73.02 4.24 -77.28 3.34 -81.35 2.55 -85.25 1.84 -88.85 1.21 -92.19 0.65 -95.19 0.12 -97.8 -0.33 -100.06 -0.73 -101.96 -1.1 -103.42 -1.38 -104.56 -1.63 -105.23 -1.84 -105.51 -1.98 -105.41 -2.07 -104.89 -2.13 -103.93 -2.13 -102.52 -2.06 -100.77 -1.97 -98.54 -1.82 -95.84 -1.6 -92.76 -1.36 -89.21 -1.06 -85.19 -0.72 -80.63 -0.31 -75.67 0.13 -70.07 0.59 -63.86 1.11 -56.96 1.63 -49.05 2.13 -39.98 2.54 -29.05 2.65 -84.66 -761.72 54.99 -5.09 58.14 -3.72 62.31 -2.71 66.82 -1.91 71.5 -1.25 76.07 -0.65 80.37 -0.13 84.49 0.33 88.21 0.74 91.59 1.08 94.64 1.38 97.32 1.64 99.56 1.84 101.41 1.97 102.92 2.08 103.95 2.13 104.59 2.11 104.83 2.07 104.67 1.96 104.03 1.82 102.98 1.61 101.56 1.36 99.64 1.06 97.28 0.71 94.5 0.33 91.21 -0.12 87.49 -0.61 83.27 -1.13 78.49 -1.7 73.15 -2.29 67.18 -2.9 60.54 -3.5 -357.71 382.35zm357.71 -382.35c211.16,-14.07 393.75,145.71 407.82,356.87 14.07,211.16 -145.7,393.76 -356.86,407.83l-50.96 -764.7zm-1089.36 -1158.14l411.44 -646.58 -15.61 -9.43 73.46 44.23 70.87 47.15 68.16 49.91 65.41 52.47 62.64 54.9 59.88 57.16 57.15 59.31 54.39 61.26 51.67 63.08 48.99 64.75 46.38 66.35 43.77 67.79 41.19 69.05 38.7 70.28 36.24 71.37 33.83 72.36 31.48 73.27 29.18 74.08 26.9 74.79 24.69 75.42 22.52 76 20.39 76.49 18.29 76.86 16.24 77.2 14.22 77.47 12.23 77.61 10.29 77.75 8.36 77.84 6.45 77.77 4.59 77.66 2.74 77.54 0.9 77.33 -766.38 0 -0.7 -59.29 -2.1 -59.44 -3.51 -59.52 -4.93 -59.45 -6.36 -59.24 -7.81 -59.03 -9.25 -58.71 -10.68 -58.21 -12.14 -57.68 -13.57 -57.06 -15.01 -56.31 -16.44 -55.48 -17.87 -54.6 -19.28 -53.61 -20.66 -52.5 -22.06 -51.35 -23.45 -50.14 -24.78 -48.83 -26.14 -47.46 -27.45 -46.05 -28.75 -44.53 -30.04 -42.99 -31.35 -41.45 -32.63 -39.84 -33.91 -38.2 -35.17 -36.51 -36.52 -34.86 -37.84 -33.18 -39.19 -31.45 -40.62 -29.75 -42.09 -28.01 -43.74 -26.33 -15.61 -9.43zm15.61 9.43c-183.75,-104.99 -247.59,-339.08 -142.6,-522.83 104.99,-183.75 339.07,-247.6 522.82,-142.61l-380.22 665.44zm-1225.61 -37.43l-350.52 -681.54 3.86 -1.96 47.6 -22.73 48.92 -21.3 50.25 -19.98 51.57 -18.7 52.89 -17.46 54.21 -16.24 55.43 -15 56.68 -13.75 57.83 -12.47 58.96 -11.16 60.07 -9.8 61.06 -8.38 61.97 -6.91 62.81 -5.38 63.66 -3.79 64.37 -2.12 65.01 -0.39 65.67 1.44 66.14 3.36 66.53 5.34 66.93 7.45 67.17 9.64 67.33 11.95 67.45 14.37 67.39 16.91 67.26 19.56 67.04 22.36 66.63 25.28 66.06 28.32 65.4 31.52 64.52 34.82 63.29 38.16 -411.44 646.58 -31.75 -19.12 -32.98 -17.8 -34.34 -16.52 -35.68 -15.28 -36.91 -14 -38.08 -12.7 -39.24 -11.4 -40.25 -10.09 -41.11 -8.75 -41.97 -7.43 -42.61 -6.12 -43.15 -4.79 -43.59 -3.5 -43.86 -2.22 -43.95 -0.96 -44.03 0.27 -43.85 1.44 -43.56 2.61 -43.19 3.7 -42.57 4.75 -41.82 5.74 -40.91 6.68 -39.94 7.56 -38.75 8.35 -37.36 9.07 -35.87 9.7 -34.13 10.22 -32.27 10.66 -30.19 10.94 -27.89 11.08 -25.4 11.06 -22.66 10.81 3.86 -1.96zm-3.86 1.96c-189.27,94.66 -419.46,17.96 -514.12,-171.32 -94.66,-189.28 -17.95,-419.48 171.32,-514.14l342.8 685.46zm131.6 3021.29l-242.34 727.08 46.02 12.22 -180.92 -45.38 -172.21 -61.63 -162.37 -76.89 -151.75 -90.97 -140.53 -103.77 -128.95 -115.24 -117.18 -125.4 -105.33 -134.3 -93.61 -142.06 -81.98 -148.77 -70.55 -154.52 -59.29 -159.45 -48.15 -163.56 -37.15 -166.92 -26.23 -169.56 -15.36 -171.57 -4.48 -172.89 6.44 -173.52 17.41 -173.51 28.51 -172.78 39.72 -171.38 51.11 -169.23 62.68 -166.32 74.45 -162.6 86.4 -157.99 98.53 -152.5 110.81 -146 123.16 -138.48 135.55 -129.88 147.84 -120.19 159.95 -109.4 171.54 -97.43 350.52 681.54 -116.4 66.13 -107.35 73.46 -98.96 80.49 -90.87 87.12 -83 93.38 -75.27 99.22 -67.55 104.6 -59.84 109.51 -52.09 113.84 -44.28 117.56 -36.41 120.59 -28.48 122.94 -20.53 124.52 -12.57 125.31 -4.64 125.34 3.22 124.51 11 122.91 18.63 120.5 26.07 117.24 33.33 113.24 40.31 108.49 47.03 103.08 53.42 97.01 59.53 90.42 65.37 83.4 70.98 76.04 76.51 68.44 82.11 60.69 87.93 52.77 94.25 44.67 101.17 36.25 109.1 27.36 46.02 12.22zm-46.02 -12.22c207.52,41.5 342.1,243.39 300.6,450.91 -41.5,207.52 -243.38,342.11 -450.9,300.61l150.3 -751.52zm1389.37 -179.04l497.84 582.68 -0.33 0.28 -55.12 44.73 -56.95 41.91 -58.52 39.14 -59.94 36.46 -61.19 33.87 -62.33 31.38 -63.35 29 -64.26 26.66 -65.07 24.43 -65.83 22.26 -66.45 20.13 -66.97 18.08 -67.46 16.06 -67.82 14.1 -68.15 12.17 -68.4 10.27 -68.53 8.4 -68.59 6.55 -68.63 4.72 -68.56 2.9 -68.38 1.1 -68.18 -0.7 -67.87 -2.5 -67.53 -4.29 -67.11 -6.11 -66.6 -7.93 -66.01 -9.76 -65.39 -11.63 -64.71 -13.53 -63.98 -15.49 -63.13 -17.48 -62.19 -19.52 242.34 -727.08 36.77 11.54 38.51 10.66 40.16 9.71 41.67 8.71 43.03 7.65 44.23 6.54 45.26 5.39 46.15 4.19 46.89 2.99 47.51 1.74 47.94 0.5 48.26 -0.78 48.4 -2.04 48.41 -3.34 48.33 -4.61 48.05 -5.88 47.62 -7.15 47.09 -8.41 46.42 -9.64 45.58 -10.86 44.65 -12.04 43.53 -13.19 42.29 -14.3 40.97 -15.37 39.48 -16.38 37.89 -17.32 36.19 -18.22 34.39 -19.03 32.48 -19.74 30.52 -20.4 28.49 -20.95 26.52 -21.51 -0.33 0.28zm0.33 -0.28c161.05,-137.29 402.91,-118.03 540.2,43.02 137.29,161.05 118.03,402.93 -43.02,540.22l-497.18 -583.24zm180.87 402.65l-283.8 -711.92 -0.11 0.04 65.54 -20.31 57.76 -9.2 50.09 -2.05 43.44 2.34 39.21 5.24 35.61 7.26 32.95 8.76 31.44 10.18 29.68 11.24 28.73 12.39 28.14 13.65 27.37 14.75 27.17 16.18 26.83 17.65 26.47 19.19 26.52 21.24 26.36 23.48 26.12 26.07 25.92 29.31 25.49 33.22 24.55 37.83 22.87 43.21 20.08 49.39 15.66 56.06 9.1 61.97 0.54 66.35 -9.43 68.11 -19.56 66.47 -28.52 61.72 -35.05 54.52 -39.28 46.81 -41.25 39.16 -497.84 -582.68 -17.37 16.54 -19.96 23.81 -20.07 31.24 -17.68 38.26 -12.64 42.87 -6.19 44.51 0.3 42.79 5.62 38.53 9.12 32.86 10.72 26.49 10.91 20.71 10.21 15.79 8.97 11.74 7.46 8.47 5.92 5.95 4.66 4.16 3.5 2.82 2.39 1.75 1.89 1.25 1.57 0.94 1.35 0.73 1.92 0.93 2.51 1.09 3.7 1.38 5.9 1.9 8.07 2.14 11.63 2.34 16.31 2.16 21.86 1.14 30.05 -1.29 39.46 -6.34 49.22 -15.33 -0.11 0.04zm1425.76 -1029.48l766.38 0 0 0 0.99 62.17 2.84 56.69 4.5 51.14 5.91 45.52 7.05 39.84 7.84 34.13 8.23 28.45 8.14 22.78 7.56 17.29 6.45 12.21 4.82 7.57 2.84 3.71 0.74 0.81 -1.19 -1.04 -2.61 -1.86 -3.19 -1.82 -2.67 -1.2 -1.09 -0.38 1.39 0.27 4.71 0.58 8.42 0.36 12.29 -0.38 16.15 -1.62 19.98 -3.27 23.58 -5.23 26.79 -7.41 29.79 -9.76 32.6 -12.22 35.13 -14.74 37.34 -17.22 39.39 -19.74 41.25 -22.21 372.58 669.74 -60.37 32.49 -60.53 30.32 -60.78 28.02 -61.07 25.6 -61.6 23.08 -62.29 20.36 -63.09 17.39 -64 14.15 -65.18 10.57 -66.51 6.52 -67.77 1.94 -68.94 -3.26 -69.85 -9.1 -70.25 -15.61 -69.75 -22.6 -68.21 -29.86 -65.53 -37.06 -61.65 -43.82 -56.85 -49.84 -51.4 -54.95 -45.7 -59.13 -40.02 -62.51 -34.59 -65.21 -29.6 -67.61 -25 -69.74 -20.83 -71.79 -17.02 -73.97 -13.51 -76.24 -10.25 -78.7 -7.16 -81.3 -4.24 -84.15 -1.39 -87.15 0 0zm0 0c0,-211.63 171.57,-383.2 383.19,-383.2 211.62,0 383.19,171.57 383.19,383.2l-766.38 0zm383.19 -2656.09l0 766.4 382.22 -355.91 -3.73 56.63 -3.29 59.03 -2.85 61.3 -2.44 63.32 -2.03 65.26 -1.65 67.03 -1.29 68.55 -0.94 69.97 -0.63 71.23 -0.32 72.31 -0.04 73.32 0.21 74.11 0.44 74.79 0.64 75.32 0.83 75.72 0.98 75.97 1.13 76.08 1.22 76.07 1.31 75.88 1.38 75.62 1.4 75.19 1.42 74.66 1.4 73.96 1.37 73.15 1.29 72.18 1.22 71.15 1.09 69.96 0.96 68.66 0.78 67.22 0.6 65.66 0.38 64.05 0.13 62.25 -766.38 0 -0.13 -59.15 -0.36 -61.37 -0.58 -63.48 -0.76 -65.36 -0.94 -67.14 -1.07 -68.78 -1.2 -70.23 -1.29 -71.6 -1.35 -72.77 -1.4 -73.82 -1.42 -74.74 -1.42 -75.51 -1.38 -76.16 -1.33 -76.7 -1.24 -77.05 -1.13 -77.28 -1 -77.41 -0.85 -77.4 -0.66 -77.26 -0.46 -76.99 -0.21 -76.59 0.04 -76.08 0.34 -75.47 0.65 -74.69 1 -73.81 1.37 -72.83 1.77 -71.71 2.19 -70.54 2.66 -69.26 3.17 -67.84 3.69 -66.39 4.27 -64.77 382.22 -355.91zm-382.22 355.91c15.07,-211.09 198.42,-370.01 409.51,-354.94 211.09,15.07 370,198.43 354.93,409.52l-764.44 -54.58zm1245.91 410.49l-863.69 0 0 -766.4 863.69 0 383.19 383.2 -383.19 383.2zm0 -766.4c211.62,0 383.19,171.57 383.19,383.2 0,211.63 -171.57,383.2 -383.19,383.2l0 -766.4zm383.19 19.52l0 363.68 -766.38 0 0 -363.68 383.19 -383.2 383.19 383.2zm-766.38 0c0,-211.63 171.57,-383.2 383.19,-383.2 211.62,0 383.19,171.57 383.19,383.2l-766.38 0zm-480.5 -383.2l863.69 0 0 766.4 -863.69 0 -383.19 -383.2 383.19 -383.2zm0 766.4c-211.62,0 -383.19,-171.57 -383.19,-383.2 0,-211.63 171.57,-383.2 383.19,-383.2l0 766.4zm383.19 -1836.98l0 1453.78 -766.38 0 0 -1453.78 0 0 766.38 0zm-766.38 0c0,-211.63 171.57,-383.2 383.19,-383.2 211.62,0 383.19,171.57 383.19,383.2l-766.38 0zm-6.39 33.69l-766.38 0 0 0 4.99 -83.43 15.75 -83.69 27.04 -81.41 37.89 -76.5 47.24 -69.2 54.25 -60.16 58.88 -50.64 61.44 -41.42 62.43 -33.05 62.45 -25.73 61.82 -19.44 61.02 -14.07 60.18 -9.45 59.25 -5.38 58.4 -1.75 57.59 1.58 56.73 4.66 56.04 7.64 55.36 10.56 54.69 13.5 54.03 16.56 53.37 19.81 52.94 23.48 52.4 27.65 51.87 32.57 51.28 38.68 50.06 46.07 47.83 55.18 43.51 65.85 35.88 77.25 24.07 87.48 8.47 93.11 -766.38 0 4.03 44.71 11.15 40.92 15.04 32.67 15.31 23.37 12.83 14.96 8.82 8.23 4.4 3.4 -0.11 -0.01 -4.1 -2.13 -7.52 -3.3 -10.49 -3.87 -12.67 -3.88 -14.27 -3.52 -15.3 -2.92 -15.74 -2.14 -15.63 -1.3 -14.75 -0.42 -13.38 0.39 -11.41 1 -8.78 1.35 -5.68 1.27 -2.04 0.58 1.99 -0.89 5.93 -3.21 9.46 -6.48 12 -10.42 13.01 -14.56 12.24 -18.04 9.69 -19.66 6.2 -18.73 2.83 -15.03 0.55 -8.65 0 0zm0 3874.78l-766.38 0 0 0 0 -46.34 0 -58.7 0 -70.33 0 -81.18 0 -91.29 0 -100.64 0 -109.23 0 -117.08 0 -124.16 0 -130.5 0 -136.07 0 -140.9 0 -144.96 0 -148.28 0 -150.84 0 -152.64 0 -153.68 0 -153.99 0 -153.52 0 -152.3 0 -150.34 0 -147.61 0 -144.13 0 -139.9 0 -134.91 0 -129.16 0 -122.67 0 -115.41 0 -107.4 0 -98.65 0 -89.12 0 -78.85 766.38 0 0 78.85 0 89.12 0 98.65 0 107.4 0 115.41 0 122.67 0 129.16 0 134.91 0 139.9 0 144.13 0 147.61 0 150.34 0 152.3 0 153.52 0 153.99 0 153.68 0 152.64 0 150.84 0 148.28 0 144.96 0 140.9 0 136.07 0 130.5 0 124.16 0 117.08 0 109.23 0 100.64 0 91.29 0 81.18 0 70.33 0 58.7 0 46.34 0 0zm0 0c0,211.63 -171.57,383.2 -383.19,383.2 -211.62,0 -383.19,-171.57 -383.19,-383.2l766.38 0zm1254.05 783.62l608.18 466.32 -0.17 0.23 -59.01 69.72 -64.19 63.95 -69.02 59.38 -73.76 55.61 -78.37 52.13 -82.83 48.7 -87.13 45.13 -91.2 41.28 -95.14 37.09 -98.81 32.39 -102.28 27.19 -105.52 21.32 -108.51 14.75 -111.23 7.34 -113.59 -1.01 -115.4 -10.4 -116.5 -20.88 -116.66 -32.49 -115.46 -45.05 -112.76 -58.38 -108.28 -72.06 -101.97 -85.63 -94.15 -98.73 -85.18 -111.14 -75.41 -122.76 -65.33 -133.81 -55.18 -144.54 -45.09 -155.2 -35.09 -166.1 -25.13 -177.36 -15.17 -189.18 -5.09 -201.43 766.38 0 4.07 161.99 11.63 145.14 18.25 128.86 23.85 112.98 28.37 97.72 31.74 83.2 34.03 69.69 35.33 57.52 35.94 46.88 36.27 37.97 36.73 30.77 37.66 25 39.38 20.28 41.82 16.23 44.76 12.37 47.98 8.52 51.14 4.54 53.93 0.41 56.27 -3.78 57.91 -7.91 58.76 -11.92 58.86 -15.67 58.13 -19.09 56.56 -22.07 54.22 -24.56 50.99 -26.41 46.93 -27.6 41.99 -27.91 36.16 -27.25 29.44 -25.28 21.75 -21.57 13.37 -15.66 -0.17 0.23zm0.17 -0.23c128.89,-167.85 369.45,-199.43 537.3,-70.54 167.85,128.89 199.43,369.47 70.54,537.32l-607.84 -466.78zm277.1 331.65l-372.58 -669.74 0.29 -0.16 43.36 -21.82 45.68 -18.37 47.34 -14.42 48.63 -10.2 49.43 -5.77 49.6 -1.2 49.04 3.31 47.91 7.67 46.31 11.76 44.36 15.54 42 18.94 39.64 22.06 37.19 24.96 34.49 27.46 31.67 29.63 29.02 31.74 26.46 33.88 23.7 35.78 20.89 37.54 18.05 39.38 15.03 41.1 11.82 42.65 8.4 44.03 4.81 45.5 0.93 46.45 -3.18 47.19 -7.51 47.65 -11.93 47.32 -16.32 46.41 -20.64 45.07 -24.7 43.1 -28.28 40.46 -608.18 -466.32 -10.48 14.98 -9.78 17.06 -8.52 18.57 -6.9 19.59 -5.13 20.3 -3.25 20.55 -1.38 20.15 0.39 19.59 1.99 18.96 3.4 17.91 4.74 17.11 5.93 16.24 7.03 15.34 8.03 14.44 9.1 13.74 10.2 13.06 11.18 12.22 12.37 11.57 13.79 10.96 15.17 10.18 16.42 9.12 17.62 7.94 18.96 6.62 19.95 5.06 20.67 3.29 21.04 1.41 20.88 -0.52 20.11 -2.35 18.81 -3.96 17.08 -5.2 15.06 -6.07 12.5 -6.28 0.29 -0.16zm-0.29 0.16c-185.02,102.72 -418.3,36 -521.02,-149.03 -102.72,-185.03 -36,-418.31 149.02,-521.03l372 670.06zm-8837 -5303.89l0 2480.92 -766.38 0 0 -2480.92 383.19 -383.2 383.19 383.2zm-766.38 0c0,-211.63 171.57,-383.2 383.19,-383.2 211.62,0 383.19,171.57 383.19,383.2l-766.38 0zm1915.82 -401.56l0 766.4 0 0 -46.96 0.05 -47.04 0.16 -47.08 0.24 -47.1 0.33 -47.2 0.41 -47.2 0.48 -47.28 0.55 -47.36 0.62 -47.41 0.66 -47.45 0.72 -47.53 0.75 -47.58 0.79 -47.63 0.81 -47.72 0.84 -47.76 0.85 -47.83 0.86 -47.9 0.86 -47.96 0.85 -48 0.84 -48.1 0.83 -48.16 0.79 -48.22 0.77 -48.3 0.72 -48.36 0.68 -48.41 0.62 -48.52 0.57 -48.61 0.5 -48.63 0.41 -48.73 0.35 -48.8 0.24 -48.84 0.16 -48.96 0.05 0 -766.4 47.28 -0.05 47.34 -0.16 47.36 -0.24 47.37 -0.33 47.43 -0.41 47.41 -0.48 47.48 -0.55 47.53 -0.62 47.56 -0.66 47.58 -0.72 47.64 -0.75 47.68 -0.79 47.7 -0.81 47.76 -0.84 47.8 -0.85 47.82 -0.86 47.89 -0.86 47.92 -0.85 47.96 -0.84 48.03 -0.83 48.06 -0.79 48.09 -0.77 48.17 -0.72 48.21 -0.68 48.24 -0.62 48.32 -0.57 48.4 -0.5 48.4 -0.41 48.48 -0.35 48.52 -0.24 48.56 -0.16 48.64 -0.05 0 0zm0 3247.32l0 -766.4 0 0 100.74 -5.11 89.62 -14.22 80.04 -22.03 71.78 -28.9 64.8 -35.24 58.88 -41.35 53.74 -47.49 48.94 -53.65 44.19 -59.79 39.27 -65.69 34 -71.14 28.38 -76 22.4 -80.05 16.12 -83.21 9.62 -85.35 2.98 -86.47 -3.69 -86.53 -10.33 -85.52 -16.82 -83.46 -23.08 -80.38 -29.06 -76.42 -34.66 -71.62 -39.89 -66.18 -44.75 -60.25 -49.42 -54.06 -54.02 -47.78 -58.93 -41.5 -64.49 -35.25 -71.06 -28.81 -78.83 -21.91 -87.91 -14.1 -98.56 -5.06 0 -766.4 177.9 9.18 170.95 27.38 162.39 45.03 152.5 61.73 141.39 77.11 129.25 90.84 116.42 102.74 103.3 112.8 90.19 121.17 77.25 127.94 64.66 133.4 52.44 137.7 40.56 141 28.92 143.38 17.53 144.94 6.23 145.75 -5.04 145.81 -16.38 145.11 -27.88 143.63 -39.6 141.33 -51.66 138.12 -64.1 133.88 -76.91 128.43 -90.09 121.63 -103.48 113.21 -116.82 103.03 -129.86 90.99 -142.14 77.12 -153.36 61.64 -163.34 44.91 -172.04 27.26 -179.18 9.13 0 0zm-1915.82 -364.84l766.38 0 -383.19 -383.2 47.05 -0.05 47.17 -0.16 47.24 -0.24 47.31 -0.33 47.4 -0.41 47.42 -0.48 47.51 -0.55 47.62 -0.62 47.66 -0.66 47.7 -0.72 47.79 -0.75 47.83 -0.79 47.86 -0.82 47.94 -0.83 47.97 -0.85 47.99 -0.86 48.07 -0.86 48.07 -0.85 48.1 -0.84 48.15 -0.83 48.16 -0.79 48.17 -0.77 48.21 -0.72 48.22 -0.68 48.23 -0.62 48.24 -0.57 48.29 -0.5 48.24 -0.41 48.27 -0.35 48.26 -0.24 48.23 -0.16 48.26 -0.05 0 766.4 -46.56 0.05 -46.71 0.16 -46.8 0.24 -46.91 0.33 -47.04 0.41 -47.09 0.48 -47.22 0.55 -47.35 0.62 -47.42 0.66 -47.51 0.72 -47.61 0.75 -47.7 0.79 -47.75 0.81 -47.86 0.84 -47.93 0.85 -47.99 0.86 -48.07 0.86 -48.13 0.85 -48.18 0.85 -48.26 0.82 -48.31 0.79 -48.35 0.77 -48.42 0.72 -48.46 0.68 -48.48 0.62 -48.55 0.57 -48.62 0.5 -48.6 0.41 -48.65 0.35 -48.68 0.24 -48.69 0.16 -48.73 0.05 -383.19 -383.2zm383.19 383.2c-211.62,0 -383.19,-171.57 -383.19,-383.2 0,-211.63 171.57,-383.2 383.19,-383.2l0 766.4zm-1337.75 -2519.65l766.38 0 -0.56 -20.78 0.23 4.24 0.25 4.62 0.19 3.7 0.23 4.16 0.25 4.62 0.22 4.16 0.22 4.19 0.22 4.17 0.22 4.13 0.22 4.16 0.22 4.19 0.24 4.62 0.21 4.16 0.22 4.17 0.21 4.16 0.22 4.17 0.24 4.62 0.18 3.74 0.22 4.14 0.24 4.62 0.21 4.2 0.21 4.17 0.23 4.62 0.2 4.17 0.19 3.72 0.23 4.62 0.2 4.17 0.21 4.2 0.2 4.18 0.21 4.14 0.22 4.65 0.2 4.04 -765.5 36.96 -0.2 -4.32 -0.18 -3.69 -0.21 -4.2 -0.2 -4.18 -0.21 -4.14 -0.2 -4.17 -0.19 -3.72 -0.23 -4.62 -0.2 -4.17 -0.19 -3.72 -0.21 -4.17 -0.21 -4.14 -0.18 -3.7 -0.22 -4.2 -0.24 -4.6 -0.18 -3.7 -0.22 -4.17 -0.21 -4.16 -0.22 -4.17 -0.21 -4.16 -0.2 -3.72 -0.22 -4.13 -0.22 -4.16 -0.22 -4.19 -0.22 -4.17 -0.22 -4.13 -0.22 -4.16 -0.19 -3.7 -0.23 -4.16 -0.25 -4.62 -0.19 -3.7 -0.23 -4.08 -0.56 -20.78zm0.56 20.78c-11.47,-211.32 150.53,-391.95 361.85,-403.42 211.32,-11.47 391.94,150.54 403.41,361.86l-765.26 41.56zm-727.89 -429.94l766.38 0 -383.19 -383.2 36.05 -0.12 36.3 -0.27 36.67 -0.35 37.07 -0.31 37.44 -0.19 37.9 0.06 38.46 0.43 39.03 0.97 39.63 1.66 40.44 2.56 41.31 3.7 42.23 5.1 43.33 6.84 44.62 9.01 45.76 11.62 46.96 14.76 48.06 18.55 48.64 22.89 48.68 27.78 47.8 32.95 45.96 38.23 43.07 43.32 39.11 47.69 34.32 51.06 29.34 53.67 24.29 55.46 19.36 56.35 14.91 56.9 10.92 57.32 7.35 57.72 4.17 58.16 1.34 58.84 -766.38 0 -0.52 -23.5 -1.31 -18.5 -1.71 -13.5 -1.62 -8.64 -1.03 -3.98 0.12 0.31 1.81 4.08 3.7 6.77 5.64 8.4 7.45 9.09 8.51 8.6 8.58 7.17 7.68 5.33 5.94 3.44 3.32 1.61 0.26 0.13 -3.24 -0.98 -6.74 -1.68 -10.12 -2.01 -13.57 -2.12 -16.71 -2 -19.63 -1.74 -22.38 -1.4 -25.03 -1.04 -27.33 -0.67 -29.56 -0.33 -31.7 -0.04 -33.62 0.17 -35.39 0.31 -37.11 0.35 -38.72 0.29 -40.11 0.12 -383.19 -383.2zm383.19 383.2c-211.62,0 -383.19,-171.57 -383.19,-383.2 0,-211.63 171.57,-383.2 383.19,-383.2l0 766.4zm383.19 -746.88l0 363.68 -766.38 0 0 -363.68 383.19 -383.2 383.19 383.2zm-766.38 0c0,-211.63 171.57,-383.2 383.19,-383.2 211.62,0 383.19,171.57 383.19,383.2l-766.38 0zm1110.52 383.2l-727.33 0 0 -766.4 727.33 0 0 0 0 766.4zm0 -766.4c211.62,0 383.19,171.57 383.19,383.2 0,211.63 -171.57,383.2 -383.19,383.2l0 -766.4zm253.45 766.4l-253.45 0 0 -766.4 253.45 0 0 0 0 766.4zm0 -766.4c211.62,0 383.19,171.57 383.19,383.2 0,211.63 -171.57,383.2 -383.19,383.2l0 -766.4zm381.99 766.4l-381.99 0 0 -766.4 381.99 0 0 0 0 766.4zm0 -766.4c211.62,0 383.19,171.57 383.19,383.2 0,211.63 -171.57,383.2 -383.19,383.2l0 -766.4zm74.16 766.4l-74.16 0 0 -766.4 74.16 0 0 0 0 766.4zm0 -766.4c211.62,0 383.19,171.57 383.19,383.2 0,211.63 -171.57,383.2 -383.19,383.2l0 -766.4zm1504.57 766.4l-1504.57 0 0 -766.4 1504.57 0 0 0 0 766.4zm0 -766.4c211.62,0 383.19,171.57 383.19,383.2 0,211.63 -171.57,383.2 -383.19,383.2l0 -766.4zm240.45 766.4l-240.45 0 0 -766.4 240.45 0 0 0 0 766.4zm0 -766.4c211.62,0 383.19,171.57 383.19,383.2 0,211.63 -171.57,383.2 -383.19,383.2l0 -766.4zm1952.86 3290.69l-541.92 -541.92 -29.27 32.84 75.99 -102.68 63.58 -99.91 52.06 -97.04 41.32 -94.03 31.41 -91 22.25 -88 13.81 -85.26 5.98 -82.83 -1.38 -80.74 -8.39 -78.97 -15.22 -77.53 -21.93 -76.31 -28.61 -75.17 -35.28 -74.02 -41.92 -72.75 -48.53 -71.24 -55.06 -69.49 -61.43 -67.39 -67.62 -64.92 -73.6 -62.11 -79.29 -58.94 -84.68 -55.38 -89.73 -51.47 -94.45 -47.24 -98.8 -42.7 -102.8 -37.84 -106.38 -32.71 -109.61 -27.3 -112.46 -21.64 -114.93 -15.73 -117.05 -9.62 -118.92 -3.25 0 -766.4 160.62 4.39 158.57 13 156.01 21.35 153.1 29.46 149.83 37.3 146.18 44.95 142.2 52.34 137.86 59.58 133.15 66.6 128.07 73.49 122.62 80.2 116.75 86.78 110.46 93.25 103.72 99.62 96.45 105.85 88.66 111.95 80.25 117.92 71.22 123.65 61.48 129.14 51.05 134.27 39.87 138.93 28.02 143.01 15.51 146.39 2.5 148.98 -10.92 150.75 -24.59 151.7 -38.41 151.84 -52.21 151.28 -66 150.17 -79.7 148.6 -93.34 146.69 -106.85 144.42 -29.27 32.84zm29.27 -32.84c-131.5,165.81 -372.53,193.63 -538.34,62.12 -165.81,-131.51 -193.62,-372.55 -62.12,-538.36l600.46 476.24zm-2671.67 846.21l0 -766.4 10.94 0.15 81.1 2.17 80 1.76 78.87 1.22 77.71 0.63 76.49 -0.1 75.34 -0.93 74.14 -1.82 72.94 -2.84 71.75 -3.91 70.53 -5.08 69.35 -6.33 68.18 -7.66 66.99 -9.05 65.86 -10.53 64.74 -12.07 63.67 -13.69 62.66 -15.37 61.66 -17.13 60.76 -19 59.97 -20.93 59.2 -22.95 58.55 -25.11 58.02 -27.38 57.53 -29.75 57.17 -32.3 56.89 -34.99 56.7 -37.84 56.55 -40.84 56.51 -44.05 56.52 -47.43 56.55 -50.99 56.64 -54.75 541.92 541.92 -75.46 72.93 -76.51 68.99 -77.52 65.07 -78.51 61.21 -79.45 57.38 -80.32 53.6 -81.11 49.89 -81.87 46.26 -82.51 42.69 -83.06 39.2 -83.55 35.83 -83.94 32.57 -84.23 29.41 -84.48 26.4 -84.64 23.53 -84.72 20.81 -84.79 18.23 -84.78 15.81 -84.78 13.57 -84.73 11.45 -84.64 9.52 -84.59 7.73 -84.51 6.1 -84.43 4.61 -84.38 3.28 -84.32 2.08 -84.24 1.03 -84.27 0.12 -84.21 -0.67 -84.19 -1.32 -84.26 -1.84 -84.34 -2.25 10.94 0.15zm-10.94 -0.15c-211.54,-6.04 -378.14,-182.44 -372.1,-393.99 6.04,-211.55 182.44,-378.15 393.98,-372.11l-21.88 766.1zm-794.35 -766.25l805.29 0 0 766.4 -805.29 0 -383.19 -384.19 383.19 -382.21zm0 766.4c-211.62,0 -383.19,-171.57 -383.19,-383.2 0,-211.63 171.57,-383.2 383.19,-383.2l0 766.4zm423.4 1461.33l-766.38 0 0.56 20.68 -3.05 -57.71 -2.91 -57.76 -2.77 -57.8 -2.64 -57.9 -2.5 -57.88 -2.39 -57.96 -2.24 -58.01 -2.13 -58 -2.01 -58.13 -1.87 -58.12 -1.78 -58.15 -1.65 -58.22 -1.54 -58.22 -1.43 -58.27 -1.33 -58.32 -1.22 -58.37 -1.12 -58.39 -1.02 -58.39 -0.92 -58.46 -0.83 -58.46 -0.73 -58.51 -0.65 -58.55 -0.56 -58.55 -0.47 -58.6 -0.38 -58.61 -0.32 -58.62 -0.23 -58.65 -0.16 -58.69 -0.08 -58.72 -0.01 -58.69 0.05 -58.73 0.12 -58.76 766.38 1.98 -0.12 57.9 -0.05 57.87 0.01 57.83 0.08 57.74 0.16 57.71 0.23 57.65 0.3 57.62 0.38 57.55 0.47 57.48 0.54 57.43 0.63 57.35 0.73 57.31 0.81 57.26 0.9 57.18 1 57.13 1.08 57.05 1.2 56.97 1.29 56.9 1.41 56.85 1.5 56.8 1.61 56.68 1.72 56.65 1.83 56.56 1.95 56.43 2.07 56.44 2.18 56.31 2.31 56.24 2.42 56.18 2.56 56.04 2.69 56.02 2.81 55.9 2.95 55.83 0.56 20.68zm-0.56 -20.68c11.42,211.32 -150.63,391.9 -361.95,403.32 -211.32,11.42 -391.89,-150.64 -403.31,-361.96l765.26 -41.36zm58.46 46.6l0 766.4 -12.48 -0.2 -29.81 -1.18 -30.04 -1.64 -30.53 -2.21 -31.1 -2.89 -31.53 -3.66 -32.24 -4.61 -32.88 -5.71 -33.43 -6.93 -34.27 -8.44 -34.92 -10.14 -35.6 -12.09 -36.11 -14.29 -36.33 -16.66 -36.57 -19.38 -36.47 -22.32 -35.73 -25.2 -34.72 -28.19 -33.2 -31.08 -31.26 -33.74 -28.95 -36.16 -26.28 -38.1 -23.46 -39.66 -20.54 -40.79 -17.69 -41.59 -15.02 -42.28 -12.42 -42.66 -9.98 -42.71 -7.84 -43.01 -5.83 -43.26 -4 -43.48 -2.31 -43.85 -0.74 -44.21 766.38 0 0.3 18.07 0.79 15.23 1.14 12.46 1.29 9.64 1.26 6.93 1.02 4.37 0.46 1.62 -0.26 -0.7 -1.13 -2.65 -2.2 -4.37 -3.38 -5.7 -4.48 -6.5 -5.47 -6.84 -6.14 -6.64 -6.48 -6.08 -6.42 -5.23 -5.91 -4.18 -5.13 -3.16 -3.77 -2.02 -2.11 -0.98 -0.49 -0.21 1.38 0.45 3.38 0.96 5.33 1.3 7.41 1.53 9.2 1.59 11 1.55 12.87 1.5 14.42 1.33 16.07 1.15 17.6 0.96 18.83 0.74 -12.48 -0.2zm12.48 0.2c211.51,6.89 377.4,183.96 370.51,395.48 -6.89,211.52 -183.96,377.41 -395.47,370.52l24.96 -766zm273.72 766.2l-286.2 0 0 -766.4 286.2 0 383.19 383.2 -383.19 383.2zm0 -766.4c211.62,0 383.19,171.57 383.19,383.2 0,211.63 -171.57,383.2 -383.19,383.2l0 -766.4zm-383.19 746.83l0 -363.63 766.38 0 0 363.63 -383.19 383.2 -383.19 -383.2zm766.38 0c0,211.63 -171.57,383.2 -383.19,383.2 -211.62,0 -383.19,-171.57 -383.19,-383.2l766.38 0zm-1857.03 -383.2l1473.84 0 0 766.4 -1473.84 0 0 0 0 -766.4zm0 766.4c-211.62,0 -383.19,-171.57 -383.19,-383.2 0,-211.63 171.57,-383.2 383.19,-383.2l0 766.4zm-980.78 -766.4l980.78 0 0 766.4 -980.78 0 -383.19 -383.2 383.19 -383.2zm0 766.4c-211.62,0 -383.19,-171.57 -383.19,-383.2 0,-211.63 171.57,-383.2 383.19,-383.2l0 766.4zm383.19 -746.83l0 363.63 -766.38 0 0 -363.63 383.19 -383.2 383.19 383.2zm-766.38 0c0,-211.63 171.57,-383.2 383.19,-383.2 211.62,0 383.19,171.57 383.19,383.2l-766.38 0zm727.89 -429.79l765.26 41.34 0.56 -20.67 -1.34 58.84 -4.17 58.16 -7.35 57.72 -10.92 57.31 -14.9 56.9 -19.38 56.38 -24.28 55.43 -29.34 53.68 -34.35 51.08 -39.08 47.66 -43.07 43.32 -46.01 38.27 -47.8 32.94 -48.63 27.74 -48.64 22.89 -48.06 18.55 -47.02 14.78 -45.7 11.59 -44.62 9.02 -43.39 6.84 -42.23 5.1 -41.25 3.68 -40.38 2.57 -39.75 1.66 -38.97 0.96 -38.4 0.44 -38.01 0.06 -37.44 -0.2 -37.02 -0.31 -36.67 -0.35 -36.3 -0.27 -36.05 -0.12 0 -766.4 40.11 0.12 38.72 0.29 37.11 0.35 35.44 0.31 33.62 0.18 31.59 -0.04 29.62 -0.34 27.39 -0.66 24.91 -1.04 22.44 -1.41 19.69 -1.74 16.71 -2 13.51 -2.1 10.12 -2.02 6.8 -1.69 3.18 -0.96 -0.26 0.13 -3.32 1.61 -5.89 3.4 -7.68 5.34 -8.63 7.21 -8.51 8.6 -7.42 9.06 -5.67 8.44 -3.7 6.76 -1.8 4.07 -0.14 0.34 1.04 -4 1.62 -8.63 1.71 -13.5 1.31 -18.5 0.52 -23.5 0.56 -20.67zm-0.56 20.67c0,-211.63 171.57,-383.2 383.19,-383.2 211.62,0 383.19,171.57 383.19,383.2l-766.38 0zm7.28 -4257.55l765.5 -36.96 0.41 13.33 1.88 134.24 2.03 134.39 2.15 134.53 2.24 134.64 2.3 134.75 2.33 134.87 2.34 134.91 2.33 134.99 2.27 135.07 2.18 135.1 2.09 135.09 1.95 135.15 1.78 135.13 1.6 135.09 1.37 135.08 1.13 135.05 0.85 134.98 0.54 134.91 0.2 134.83 -0.15 134.72 -0.55 134.63 -0.97 134.48 -1.42 134.36 -1.9 134.21 -2.41 134.04 -2.94 133.88 -3.51 133.67 -4.11 133.46 -4.72 133.27 -5.39 133.04 -6.08 132.77 -6.78 132.52 -765.26 -41.34 6.56 -128.26 5.88 -128.71 5.23 -129.12 4.6 -129.53 3.99 -129.94 3.43 -130.33 2.88 -130.68 2.35 -131.04 1.86 -131.37 1.38 -131.7 0.95 -132.02 0.55 -132.29 0.15 -132.58 -0.2 -132.85 -0.54 -133.09 -0.83 -133.32 -1.11 -133.55 -1.37 -133.74 -1.58 -133.97 -1.76 -134.11 -1.95 -134.27 -2.07 -134.45 -2.18 -134.56 -2.27 -134.67 -2.31 -134.79 -2.34 -134.89 -2.33 -134.95 -2.32 -135.01 -2.24 -135.08 -2.15 -135.09 -2.05 -135.13 -1.9 -135.12 0.41 13.33zm-0.41 -13.33c-2.84,-211.61 166.4,-385.48 378.01,-388.32 211.61,-2.84 385.47,166.41 388.31,378.02l-766.32 10.3z"/>
    <path id="1" class="fil4" d="M8966.16 13637.07c45.44,-1000.12 636.33,-1636.51 1454.63,-1272.83 409.1,227.27 454.54,818.27 454.54,1272.83l-1909.17 0zm1958.4 1628.1c-499.04,198.95 -1211.27,260.57 -1640.21,-82.56 -500.02,-409.12 -318.19,-1227.35 -318.19,-1227.35 409.15,-45.48 2091,45.44 2772.85,0 0,-727.35 -272.75,-1500.15 -909.12,-1863.78 -500.02,-318.2 -1227.4,-227.32 -1590.98,-45.48 -1590.98,818.27 -1409.14,3409.37 181.83,3727.56 520.22,173.4 1288.57,98.74 1713.44,-263.46 139.93,-119.56 -128.22,-277.41 -209.62,-244.93zm2906.3 -75.23c-546.39,303.98 -955.45,221.02 -955.45,-598.29 0,-636.39 -45.44,-1636.5 0,-2272.89l863.69 0 0 -363.68 -863.69 0 0 -1453.78c0,-262.7 -772.77,-381.68 -772.77,33.69 0,783.61 0,3449.18 0,3874.78 0,2017.48 1593.25,1470.08 1941.33,1016.78 102.8,-134.08 -47.98,-328.29 -213.11,-236.61zm-9034.19 -2487.94l0 -2480.92c513.38,0 1022.74,-18.36 1532.63,-18.36 1521.42,0 1541.75,2480.92 0,2480.92 -505.34,0 -1021.93,18.36 -1532.63,18.36zm-947.72 -2003.13c-2.15,-44.54 -4.43,-88.95 -6.84,-133.32 0,-454.55 -318.23,-409.16 -727.33,-409.16l0 -363.68 727.33 0 253.45 0 381.99 0 74.16 0 1504.57 0 240.45 0c1500.06,0 2727.38,1318.27 1681.9,2636.53 -701.92,701.98 -1485.95,726.42 -2371.44,701.13l-805.29 0c-1.61,622.37 7.5,1239.37 40.21,1844.53 0,340.89 179.02,400.58 441.09,409.12l286.2 0 0 363.63 -1473.84 0 -980.78 0 0 -363.63c409.1,0 727.33,45.43 727.33,-409.12 75.01,-1388.94 26.14,-2839.86 6.84,-4276.03z"/>
   </g>
   <path class="fil3" d="M17435.92 19033.91l0 1253.78 165.6 0c158.13,0 280.8,-54.32 367.1,-162.96 86.29,-108.65 129.66,-263.28 129.66,-463.49 0,-200.2 -43.37,-354.85 -130.1,-463.92 -87.18,-109.09 -209.4,-163.41 -366.66,-163.41l-165.6 0zm-481 1485.09l0 -1716.39 579.99 0c169.56,0 306.22,12.26 410.04,36.8 104.27,24.08 198.01,64.83 282.12,120.9 122.22,81.48 217.72,184 286.05,308.41 68.78,123.97 102.95,255.83 102.95,395.15 0,133.61 -26.28,258.02 -78.85,373.24 -53.01,114.78 -128.79,214.22 -228.23,298.33 -71.84,59.15 -156.4,104.27 -254.08,136.25 -97.69,31.53 -202.39,47.31 -314.52,47.31l-785.47 0zm1919.17 0l0 -1138.13 370.61 0 0 1138.13 -370.61 0zm-7.88 -1605.56c0,-53.89 18.84,-99.89 56.95,-138 38.11,-38.11 83.67,-56.95 137.11,-56.95 54.76,0 100.76,18.84 138.43,56.51 37.67,37.68 56.52,83.67 56.52,138.44 0,54.32 -18.85,99.88 -56.96,137.56 -38.11,37.67 -84.1,56.51 -137.99,56.51 -53.44,0 -99,-18.84 -137.11,-56.95 -38.11,-38.11 -56.95,-83.67 -56.95,-137.12zm1805.71 1022.04l0 1064.53 -352.2 0 0 -520.87c-41.18,27.59 -84.11,47.75 -129.67,61.33 -45.12,13.57 -93.31,20.58 -143.68,20.58 -159.03,0 -290.46,-56.07 -393.83,-168.65 -103.83,-112.6 -155.52,-257.15 -155.52,-433.26 0,-182.68 53.88,-330.32 161.21,-444.21 107.32,-113.91 244.45,-170.86 412.22,-170.86 114.78,0 210.28,24.53 287.38,74.04 77.09,49.07 132.73,121.34 166.89,217.29l-160.32 92.43c-17.97,-70.98 -45.12,-124.41 -81.48,-159.91 -36.37,-35.48 -81.05,-52.99 -134.48,-52.99 -79.74,0 -140.62,37.23 -183.11,111.26 -42.5,74.03 -63.53,181.81 -63.53,322.87 0,152.01 17.53,261.53 52.57,328.99 35.48,67.91 92.43,101.64 171.28,101.64 65.28,0 113.9,-19.71 145.88,-59.59 31.97,-39.86 48.19,-99.43 48.19,-179.17l0 -205.45 352.2 0zm271.16 583.52l0 -1138.13 370.62 0 0 1138.13 -370.62 0zm-7.89 -1605.56c0,-53.89 18.84,-99.89 56.95,-138 38.13,-38.11 83.68,-56.95 137.13,-56.95 54.76,0 100.76,18.84 138.43,56.51 37.67,37.68 56.51,83.67 56.51,138.44 0,54.32 -18.84,99.88 -56.95,137.56 -38.11,37.67 -84.1,56.51 -137.99,56.51 -53.45,0 -99,-18.84 -137.13,-56.95 -38.11,-38.11 -56.95,-83.67 -56.95,-137.12zm896.29 1605.56l0 -943.63 -304.89 0 0 -194.5 980.4 0 0 194.5 -304.89 0 0 943.63 -370.62 0zm743.4 0l296.58 -927.85c29.34,-92.44 62.63,-156.84 99.86,-193.2 37.25,-35.92 87.62,-53.88 150.7,-53.88 59.15,0 105.58,15.77 138.87,47.75 33.3,31.55 64.41,91.99 92.45,181.36l307.08 945.82 -389.45 0 -62.65 -207.65 -378.92 0 -60.45 207.65 -194.07 0zm301.84 -365.36l283.85 0 -136.24 -494.16 -147.61 494.16zm1372.45 13.58c0,70.09 11.82,117.84 35.05,143.26 23.64,24.96 68.76,37.67 135.36,37.67l92.44 0 0 170.85 -315.42 0c-116.95,0 -199.32,-25.4 -247.07,-75.78 -47.3,-50.39 -70.96,-140.63 -70.96,-270.74l0 -1490.79 370.6 0 0 1485.53z"/>
   <path class="fil0" d="M22863.58 12987.54l1392.16 1244.44 -782.17 -1746.32 -609.99 501.88zm1426.9 -1448.68l1240.55 413.69 -987.69 -905.73 -252.86 492.04zm1095.35 -1439.32l2499.13 171.15 -2266.57 -1205.03 -232.56 1033.88zm535.29 -2569.85l1271.23 -820.37 -1393.6 253.21 122.37 567.16z"/>
   <path class="fil0" d="M5021.38 1244.46l-1392.16 -1244.45 782.16 1746.33 610 -501.88zm-1426.9 1448.67l-1240.56 -413.69 987.7 905.73 252.86 -492.04zm-1095.35 1439.32l-2499.13 -171.14 2266.56 1205.03 232.57 -1033.89zm-535.29 2569.86l-1271.24 820.36 1393.61 -253.21 -122.37 -567.15z"/>
  </g>
 </g>
</svg>
