<?xml version="1.0" encoding="utf-8"?>
<!-- Generator: Adobe Illustrator 16.0.0, SVG Export Plug-In . SVG Version: 6.00 Build 0)  -->
<!DOCTYPE svg PUBLIC "-//W3C//DTD SVG 1.1//EN" "http://www.w3.org/Graphics/SVG/1.1/DTD/svg11.dtd">
<svg version="1.1" id="Camada_1" xmlns="http://www.w3.org/2000/svg" xmlns:xlink="http://www.w3.org/1999/xlink" x="0px" y="0px"
	 width="481px" height="513px" viewBox="0 0 481 513" enable-background="new 0 0 481 513" xml:space="preserve">
<g>
	<path fill="#0D0D0D" d="M432.9,0H48.1C21.645,0,0,21.643,0,48.094v416.813C0,491.358,21.645,513,48.1,513h384.8
		c26.455,0,48.1-21.642,48.1-48.094V48.094C481,21.643,459.355,0,432.9,0z M416.866,448.875H64.133V64.125h352.733V448.875z
		 M128.267,288.563h224.467v32.063H128.267V288.563z M128.267,352.688h224.467v32.063H128.267V352.688z M160.333,144.281
		c0,26.562,21.535,48.094,48.1,48.094c26.565,0,48.1-21.532,48.1-48.094s-21.535-48.094-48.1-48.094
		C181.868,96.188,160.333,117.72,160.333,144.281z M240.5,192.375h-64.133c-26.455,0-48.1,14.428-48.1,32.063V256.5H288.6v-32.063
		C288.6,206.803,266.955,192.375,240.5,192.375z"/>
</g>
</svg>
