<?xml version="1.0" encoding="utf-8"?>
<!-- Generator: Adobe Illustrator 16.0.0, SVG Export Plug-In . SVG Version: 6.00 Build 0)  -->
<!DOCTYPE svg PUBLIC "-//W3C//DTD SVG 1.1//EN" "http://www.w3.org/Graphics/SVG/1.1/DTD/svg11.dtd">
<svg version="1.1" id="Camada_1" xmlns="http://www.w3.org/2000/svg" xmlns:xlink="http://www.w3.org/1999/xlink" x="0px" y="0px"
	 width="615px" height="492px" viewBox="0 0 615 492" enable-background="new 0 0 615 492" xml:space="preserve">
<g>
	<path fill="#0D0D0D" d="M35.352,350.035H10.186c-4.796,0-8.685-3.889-8.685-8.687V9.911c0-4.796,3.889-8.685,8.685-8.685h25.166
		c4.797,0,8.685,3.889,8.685,8.685V341.35C44.037,346.146,40.148,350.035,35.352,350.035z M139.843,1.226H97.107
		c-4.796,0-8.685,3.889-8.685,8.685V341.35c0,4.798,3.889,8.687,8.685,8.687h42.736c4.797,0,8.685-3.889,8.685-8.687V9.911
		C148.528,5.114,144.641,1.226,139.843,1.226z M217.98,1.226h-12.683c-4.796,0-8.685,3.889-8.685,8.685V341.35
		c0,4.798,3.889,8.687,8.685,8.687h12.683c4.796,0,8.685-3.889,8.685-8.687V9.911C226.667,5.114,222.777,1.226,217.98,1.226z
		 M323.83,1.205h-52.874c-4.772,0-8.685,3.913-8.685,8.685v172.364c17.561-25.291,41.802-45.62,70.242-58.41V9.889
		C332.516,5.117,328.697,1.205,323.83,1.205z M385.771,1.205h-0.191c-4.771,0-8.686,3.913-8.686,8.685v100.69
		c5.822-0.859,11.645-1.528,17.563-1.813V9.889C394.455,5.117,390.637,1.205,385.771,1.205z M434.826,1.205H429.1
		c-4.77,0-8.684,3.913-8.684,8.685v99.542c7.824,0.764,15.557,2.1,23.096,4.009V9.889C443.512,5.117,439.598,1.205,434.826,1.205z
		 M498.676,1.205h-27.965c-4.77,0-8.684,3.913-8.684,8.685v109.087c16.414,6.013,31.686,14.507,45.334,25.005V9.889
		C507.361,5.117,503.447,1.205,498.676,1.205z M603.713,433.773l-71.764-71.765c15.025-23.639,23.857-51.584,23.857-81.608
		c0-84.199-68.504-152.703-152.703-152.703c-84.197,0-152.702,68.504-152.702,152.703c0,84.198,68.505,152.702,152.702,152.702
		c30.025,0,57.971-8.831,81.609-23.858l71.766,71.766c6.523,6.523,15.07,9.785,23.617,9.785s17.094-3.262,23.617-9.785
		C616.762,467.971,616.762,446.814,603.713,433.773z M298.121,280.4c0-57.89,47.096-104.983,104.983-104.983
		S508.088,222.513,508.088,280.4c0,57.887-47.096,104.981-104.982,104.981C345.217,385.383,298.121,338.289,298.121,280.4z"/>
</g>
</svg>
