<?xml version="1.0" encoding="utf-8"?>
<!-- Generator: Adobe Illustrator 16.0.0, SVG Export Plug-In . SVG Version: 6.00 Build 0)  -->
<!DOCTYPE svg PUBLIC "-//W3C//DTD SVG 1.1//EN" "http://www.w3.org/Graphics/SVG/1.1/DTD/svg11.dtd">
<svg version="1.1" id="Camada_1" xmlns="http://www.w3.org/2000/svg" xmlns:xlink="http://www.w3.org/1999/xlink" x="0px" y="0px"
	 width="803px" height="732px" viewBox="0 0 803 732" enable-background="new 0 0 803 732" xml:space="preserve">
<g>
	<path fill="#0D0D0D" d="M203.861,572.375c-6.987,7.008-12.635,20.703-12.635,30.6v128.901h74.596V528.144
		c0-9.897-5.648-12.265-12.635-5.253L203.861,572.375z"/>
	<path fill="#050206" d="M531.516,450.247c-6.97,7.011-12.635,20.709-12.635,30.623v251.025h74.596V405.948
		c0-9.897-5.648-12.246-12.635-5.237L531.516,450.247z"/>
	<path fill="#050206" d="M640.711,340.547c-6.986,6.992-12.652,20.687-12.652,30.587v360.742h69.359V301.681
		c0-9.896-5.666-12.262-12.653-5.253L640.711,340.547z"/>
	<path fill="#050206" d="M424.501,557.582c0,0-3.324,3.354-7.433,7.478c-4.092,4.126-7.416,15.509-7.416,25.405v141.413h74.596
		V515.632c0-9.896-5.665-12.265-12.652-5.255L424.501,557.582z"/>
	<path fill="#050206" d="M313.092,519.558c-6.987-6.991-12.653-4.645-12.653,5.255v207.065h74.597V599.479
		c0-9.896-5.362-23.287-11.991-29.902L351.053,557.6L313.092,519.558z"/>
	<path fill="#050206" d="M109.98,666.603l-24.09,24.205c-6.97,7.006-12.618,19.038-12.618,26.891v14.199h83.263v-94.139
		c0-9.896-5.648-12.246-12.636-5.239L109.98,666.603z"/>
	<path fill="#050206" d="M787.364,298.399c6.97,7.009,12.636,4.643,12.636-5.254V36.973c0-18.341-17.514-34.403-35.689-34.403
		H510.427c-9.865,0-12.224,5.684-5.237,12.693l90.306,90.661l-36.833,36.789L387.828,314.246l-90.357-90.624
		c-6.987-7.01-18.284-6.99-25.271,0L20.929,475.867c-27.916,28.02-27.898,73.435,0.018,101.437l1.752,1.774
		c27.916,28.003,73.185,28.003,101.081-0.018L284.82,417.424l90.358,90.552c6.987,6.989,18.301,6.989,25.288,0L698.33,209.119
		L787.364,298.399z"/>
</g>
</svg>
