<?xml version="1.0" encoding="UTF-8"?>
<!DOCTYPE svg PUBLIC "-//W3C//DTD SVG 1.1//EN" "http://www.w3.org/Graphics/SVG/1.1/DTD/svg11.dtd">
<!-- Creator: CorelDRAW 2017 -->
<svg xmlns="http://www.w3.org/2000/svg" xml:space="preserve" width="100px" height="100px" version="1.1" style="shape-rendering:geometricPrecision; text-rendering:geometricPrecision; image-rendering:optimizeQuality; fill-rule:evenodd; clip-rule:evenodd"
viewBox="0 0 100 100"
 xmlns:xlink="http://www.w3.org/1999/xlink">
 <defs>
  <style type="text/css">
   <![CDATA[
    .fil0 {fill:#0D0D0D}
   ]]>
  </style>
 </defs>
 <g id="Camada_x0020_1">
  <metadata id="CorelCorpID_0Corel-Layer"/>
  <g id="_2203576241360">
   <path class="fil0" d="M37.33 57.79c-4.19,-3.22 -3.09,-12.68 1.64,-18.25 3.69,-4.35 11.94,-5.01 17.72,-1.9 -11.95,0.42 -19.12,8.29 -19.36,20.15zm10.35 -29.67c-13.25,1.44 -23.33,12.52 -19.53,27.76 1.68,6.75 5.57,11.06 8.41,16.01 2.07,3.63 -0.12,7.83 3.08,8.95 1.36,0.47 9.91,0.21 12.06,0.21 3.58,0 8.33,0.82 9.09,-2.81 0.87,-4.18 -1.53,-2.6 3.1,-9.32 3.37,-4.91 6.67,-9.24 7.58,-16.82 1.65,-13.75 -10.31,-25.45 -23.79,-23.98z"/>
   <path class="fil0" d="M40.32 84.78c-2.88,0.82 -2.29,3.95 -2.29,7.03 0,5.96 1.91,3.42 4.84,4.71 1.55,0.68 1.73,3.07 6.07,3.26 4.68,0.21 5.67,-2.32 6.7,-3.01 2.16,-1.48 5.03,0.96 5.1,-4.27 0.04,-2.66 0.76,-6.91 -2.02,-7.69 -0.93,-0.27 -17.6,-0.26 -18.4,-0.03z"/>
   <path class="fil0" d="M81.2 47.33c-2.49,1.12 -4.18,6.62 3.15,6.57 2.39,-0.01 12.01,0.31 13.46,-0.21 1.57,-0.56 2.78,-2.43 1.89,-4.7 -0.77,-1.95 -2.73,-2.06 -5.03,-2.05 -2.71,0 -11.64,-0.43 -13.47,0.39z"/>
   <path class="fil0" d="M14.65 14.05c-1.99,1.01 -3.11,3.24 -1.24,5.36l8.27 8.23c1.23,1.25 2.38,3.33 5.24,2.27 1.92,-0.72 2.94,-3.29 1.34,-5.41l-8.22 -8.28c-1.04,-1.04 -2.85,-3.46 -5.39,-2.17z"/>
   <path class="fil0" d="M81.59 14.34c-1.78,0.54 -7,6.36 -8.44,7.81 -1.01,1.01 -3.14,2.52 -3.09,4.65 0.05,2.17 2.03,3.94 4.43,3.23 1.56,-0.45 6.97,-6.42 8.36,-7.8 1.05,-1.05 3.22,-2.58 3.22,-4.68 0.01,-2.36 -2.17,-3.92 -4.48,-3.21z"/>
   <path class="fil0" d="M2.1 47.3c-2.81,1.19 -3.53,6.62 2.5,6.61 2.16,0 11.52,0.25 12.78,-0.23 2.76,-1.05 3.73,-6.61 -2.44,-6.74 -2.53,-0.05 -11.1,-0.37 -12.84,0.36z"/>
   <path class="fil0" d="M24.55 71.05c-1.5,0.47 -6.75,6.28 -8.03,7.56 -1.05,1.05 -3.16,2.25 -3.01,4.58 0.14,2.19 2.09,3.89 4.71,3 1.36,-0.46 6.73,-6.24 8,-7.5 1.03,-1.03 2.97,-2.43 2.77,-4.73 -0.18,-2.08 -2.25,-3.59 -4.44,-2.91z"/>
   <path class="fil0" d="M72.61 71.03c-1.74,0.52 -3.22,2.32 -2.32,4.57 0.38,0.97 6.26,6.59 7.41,7.73 1.12,1.12 2.49,3.37 5.22,2.64 1.81,-0.48 2.99,-2.65 2.06,-4.75 -0.5,-1.14 -2.63,-3.02 -3.59,-3.98 -1.35,-1.35 -2.44,-2.44 -3.78,-3.78 -1.06,-1.07 -2.55,-3.16 -5,-2.43z"/>
   <path class="fil0" d="M50.64 0.44c-2.12,-0.69 -4.49,0.09 -4.67,2.91l0.03 11.67c-0.01,1.76 -0.66,4.04 2.11,5.31 1.86,0.85 4.4,-0.25 4.77,-2.88l0.03 -11.67c0.01,-1.46 0.44,-4.45 -2.27,-5.34z"/>
  </g>
 </g>
</svg>
