<?xml version="1.0" encoding="UTF-8"?>
<!DOCTYPE svg PUBLIC "-//W3C//DTD SVG 1.1//EN" "http://www.w3.org/Graphics/SVG/1.1/DTD/svg11.dtd">
<!-- Creator: CorelDRAW X8 -->
<svg xmlns="http://www.w3.org/2000/svg" xml:space="preserve" width="210mm" height="297mm" version="1.1" style="shape-rendering:geometricPrecision; text-rendering:geometricPrecision; image-rendering:optimizeQuality; fill-rule:evenodd; clip-rule:evenodd"
viewBox="0 0 21000 29700"
 xmlns:xlink="http://www.w3.org/1999/xlink">
 <defs>
  <style type="text/css">
   <![CDATA[
    .str0 {stroke:black;stroke-width:300}
    .fil0 {fill:0D0D0D}
   ]]>
  </style>
 </defs>
 <g id="Camada_x0020_1">
  <metadata id="CorelCorpID_0Corel-Layer"/>
  <g id="_1610020326080">
  </g>
  <g id="_1610020351296">
  </g>
  <g id="_1610020350112">
  </g>
  <g id="_1610020350016">
  </g>
  <g id="_1610020350400">
  </g>
  <g id="_1610020350944">
  </g>
  <g id="_1610020349440">
  </g>
  <g id="_1610020348288">
  </g>
  <g id="_1610020346080">
  </g>
  <g id="_1610020342048">
  </g>
  <g id="_1610020342880">
  </g>
  <g id="_1610020343424">
  </g>
  <g id="_1610020342496">
  </g>
  <g id="_1610020343104">
  </g>
  <g id="_1610020342176">
  </g>
  <g id="_1610020336864">
   <g>
    <g>
     <path class="fil0 str0" d="M17378 8751c-1629,-1630 -3797,-2528 -6100,-2528 -2345,0 -4539,925 -6177,2605 -178,182 -174,476 8,658 182,178 476,174 658,-8 1463,-1498 3418,-2322 5511,-2322 4246,-4 7698,3448 7698,7694 0,4246 -3452,7698 -7698,7698 -4245,0 -7698,-3452 -7698,-7698l0 -97 767 767c89,89 209,135 329,135 120,0 236,-46 329,-135 182,-182 182,-476 0,-658l-1556 -1560c-182,-182 -476,-182 -658,0l-1560 1560c-182,182 -182,476 0,658 89,89 209,135 329,135 120,0 236,-46 329,-135l767 -767 0 97c0,2303 897,4470 2527,6100 1629,1629 3796,2527 6099,2527 2303,0 4470,-898 6100,-2527 1629,-1630 2523,-3797 2523,-6100 0,-2303 -898,-4470 -2527,-6099z"/>
     <path class="fil0 str0" d="M11278 9834c-1509,0 -2736,1227 -2736,2736l0 1320 -851 0c-256,0 -465,209 -465,465l0 4632c0,256 209,465 465,465l7179 0c255,0 464,-209 464,-465l0 -4629c0,-255 -209,-464 -464,-464l-851 0 0 -1320c0,-1509 -1231,-2740 -2741,-2740zm-1807 2740c0,-998 813,-1807 1807,-1807 995,0 1808,813 1808,1807l0 1320 -3615 0 0 -1320 0 0zm4935 5949l-6251 0 0 -3704 6251 0 0 3704z"/>
    </g>
   </g>
   <g>
   </g>
   <g>
   </g>
   <g>
   </g>
   <g>
   </g>
   <g>
   </g>
   <g>
   </g>
   <g>
   </g>
   <g>
   </g>
   <g>
   </g>
   <g>
   </g>
   <g>
   </g>
   <g>
   </g>
   <g>
   </g>
   <g>
   </g>
   <g>
   </g>
  </g>
 </g>
</svg>
