<?xml version="1.0" encoding="UTF-8"?>
<!DOCTYPE svg PUBLIC "-//W3C//DTD SVG 1.1//EN" "http://www.w3.org/Graphics/SVG/1.1/DTD/svg11.dtd">
<!-- Creator: CorelDRAW 2017 -->
<svg xmlns="http://www.w3.org/2000/svg" xml:space="preserve" width="100px" height="100px" version="1.1" style="shape-rendering:geometricPrecision; text-rendering:geometricPrecision; image-rendering:optimizeQuality; fill-rule:evenodd; clip-rule:evenodd"
viewBox="0 0 100 100"
 xmlns:xlink="http://www.w3.org/1999/xlink">
 <defs>
  <style type="text/css">
   <![CDATA[
    .fil0 {fill:#0D0D0D}
   ]]>
  </style>
 </defs>
 <g id="Camada_x0020_1">
  <metadata id="CorelCorpID_0Corel-Layer"/>
  <g id="_2203480574800">
   <path class="fil0" d="M37.32 42.37l4.16 0 0 3.67 -4.16 0 0 -3.67zm-7.99 0l6.52 0 0 3.67 -6.52 0 0 -3.67zm-6.77 0l4.53 0 0 3.67 -4.53 0 0 -3.67zm-9.15 0l7.26 0 0 3.67 -7.26 0 0 -3.67zm-6.34 0l5.32 0 0 3.67 -5.32 0 0 -3.67zm18.26 -7.28l16.27 0 0 3.67 -16.27 0 0 -3.67zm-18.59 0l16.25 0 0 3.67 -16.25 0 0 -3.67zm75.61 0.35l0 -6.95 -82.28 0 -0.02 32.93c-0.03,4.27 -0.58,6.81 2.82,8.1 3.17,1.18 32.28,0.48 41.44,0.39 -0.57,-2.24 -0.86,-4.59 -0.86,-7.01 0,-16.09 13.05,-29.15 29.14,-29.15 3.43,0 6.71,0.6 9.76,1.69z"/>
   <path class="fil0" d="M0.07 17.07l82.28 0.06c0,-9.09 -2.62,-7.13 -16.93,-7.13 -13.84,0 -49.06,-0.65 -60.56,-0.05 -4.58,0.24 -4.79,2.59 -4.79,7.12z"/>
   <path class="fil0" d="M72.59 35.49c15.13,0 27.41,12.26 27.41,27.41 0,15.13 -12.28,27.41 -27.41,27.41 -15.15,0 -27.41,-12.28 -27.41,-27.41 0,-15.15 12.26,-27.41 27.41,-27.41zm-5.11 40.49l-11.77 -11.83 3.6 -3.91c2.9,1.54 5.63,5.04 7.98,7.49l17.94 -17.61c2.11,0.99 2.76,2.16 4.24,3.76l-21.99 22.1z"/>
  </g>
 </g>
</svg>
