<?xml version="1.0" encoding="utf-8"?>
<!-- Generator: Adobe Illustrator 16.0.0, SVG Export Plug-In . SVG Version: 6.00 Build 0)  -->
<!DOCTYPE svg PUBLIC "-//W3C//DTD SVG 1.1//EN" "http://www.w3.org/Graphics/SVG/1.1/DTD/svg11.dtd">
<svg version="1.1" id="Camada_1" xmlns="http://www.w3.org/2000/svg" xmlns:xlink="http://www.w3.org/1999/xlink" x="0px" y="0px"
	 width="735px" height="735px" viewBox="0 0 735 735" enable-background="new 0 0 735 735" xml:space="preserve">
<path fill="#0D0D0D" d="M731.195,326.867c-1.155-10.288-13.156-18.028-23.533-18.028c-33.537,0-63.3-19.684-75.782-50.15
	c-12.741-31.197-4.521-67.573,20.466-90.496c7.87-7.196,8.829-19.244,2.231-27.608c-17.17-21.798-36.677-41.492-57.981-58.558
	c-8.335-6.686-20.583-5.755-27.816,2.25c-21.814,24.16-61.002,33.138-91.284,20.504c-31.502-13.254-51.385-45.186-49.432-79.46
	c0.643-10.773-7.233-20.134-17.968-21.384c-27.342-3.166-54.924-3.258-82.345-0.215c-10.598,1.171-18.468,10.311-18.117,20.947
	c1.187,33.939-18.921,65.307-50.119,78.087c-29.918,12.223-68.833,3.312-90.604-20.637c-7.195-7.889-19.228-8.857-27.62-2.314
	c-21.932,17.211-41.878,36.917-59.207,58.539c-6.752,8.405-5.755,20.586,2.181,27.807c25.48,23.075,33.695,59.764,20.466,91.326
	c-12.631,30.089-43.873,49.473-79.635,49.473c-11.605-0.374-19.864,7.423-21.146,17.978c-3.216,27.487-3.251,55.51-0.155,83.222
	c1.156,10.332,13.511,18.006,24.002,18.006c31.878-0.811,62.464,18.911,75.314,50.146c12.786,31.198,4.555,67.559-20.472,90.513
	c-7.829,7.195-8.829,19.215-2.219,27.569c16.996,21.662,36.522,41.368,57.89,58.58c8.389,6.755,20.589,5.809,27.86-2.207
	c21.9-24.217,61.081-33.179,91.24-20.52c31.593,13.22,51.467,45.148,49.526,79.433c-0.636,10.772,7.259,20.162,17.956,21.384
	c13.992,1.637,28.057,2.447,42.167,2.447c13.391,0,26.784-0.731,40.178-2.223c10.611-1.171,18.469-10.319,18.111-20.96
	c-1.226-33.923,18.927-65.294,50.086-78.049c30.118-12.301,68.859-3.298,90.643,20.615c7.233,7.873,19.192,8.829,27.62,2.311
	c21.894-17.167,41.802-36.863,59.206-58.542c6.759-8.389,5.8-20.586-2.181-27.819c-25.474-23.059-33.733-59.765-20.504-91.294
	c12.435-29.685,42.515-49.615,74.867-49.615l4.527,0.12c10.503,0.852,20.155-7.236,21.425-17.952
	C734.27,382.579,734.304,354.589,731.195,326.867z M367.498,578.504c-116.536,0-211.002-94.466-211.002-210.999
	s94.469-211,211.002-211c116.534,0,211.003,94.466,211.003,211c0,39.555-10.905,76.551-29.846,108.188l-92.393-92.396
	c6.689-15.771,10.222-32.869,10.219-50.514c0-34.553-13.457-67.036-37.893-91.465c-24.43-24.43-56.912-37.883-91.458-37.883
	c-11.529,0-23.004,1.531-34.106,4.555c-4.862,1.326-8.838,5.334-10.133,10.206c-1.323,4.982,0.168,10.089,4.062,13.985
	c0,0,45.614,45.965,60.875,61.224c1.599,1.599,1.596,5.413,1.371,6.787l-0.143,1.004c-1.539,16.777-4.505,36.918-6.952,44.657
	c-0.329,0.326-0.64,0.602-0.975,0.938c-0.352,0.352-0.674,0.689-1.013,1.038c-7.841,2.517-28.291,5.518-45.335,7.044l0.003-0.092
	l-0.766,0.192c-0.136,0.017-0.39,0.035-0.725,0.035c-1.842,0-4.552-0.516-7.015-2.976c-15.885-15.886-59.71-59.396-59.71-59.396
	c-3.932-3.92-7.964-4.742-10.652-4.742c-6.265,0-11.874,4.526-13.641,11.02c-12.064,44.645,0.725,92.667,33.385,125.33
	c24.436,24.433,56.921,37.887,91.475,37.887c17.645,0,34.743-3.529,50.511-10.219l93.396,93.396
	C448.251,566.291,409.313,578.504,367.498,578.504z"/>
</svg>
