<?xml version="1.0" encoding="utf-8"?>
<!-- Generator: Adobe Illustrator 16.0.0, SVG Export Plug-In . SVG Version: 6.00 Build 0)  -->
<!DOCTYPE svg PUBLIC "-//W3C//DTD SVG 1.1//EN" "http://www.w3.org/Graphics/SVG/1.1/DTD/svg11.dtd">
<svg version="1.1" id="Camada_1" xmlns="http://www.w3.org/2000/svg" xmlns:xlink="http://www.w3.org/1999/xlink" x="0px" y="0px"
	 width="259px" height="280px" viewBox="0 0 259 280" enable-background="new 0 0 259 280" xml:space="preserve">
<g id="Camada_x0020_1" opacity="0.5">
	<g id="_1610031113520">
		<path fill="#2B2B2B" d="M0.17,15.927v248.146c0,7.086,7.086,15.76,14.457,15.76h183.797c6.832,0,11.65-6.01,13.408-11.537
			c2.041-6.436,1.049-64.262,1.049-73.814c-3.23,1.162-3.6,2.551-5.811,6.01c-17.914,27.752-13.891,13.237-13.891,60.945H19.871
			V18.563h131.301c0,12.699-1.447,30.16,1.303,42.01c9.1,4.365,27.496,2.607,40.705,2.607v39.401
			c4.764-1.275,7.428-7.965,11.057-13.89c10.459-17.149,8.645-7.795,8.645-34.695c0-6.974-6.859-11.453-10.828-15.421l-26.93-26.929
			c-4.053-4.054-9.014-11.48-16.072-11.48H15.93C8.051,0.167,0.17,8.047,0.17,15.927z"/>
		<path fill="#2B2B2B" d="M140.654,241.763c4.621,0,29.084-11.535,33.363-16.553c2.893-3.43,7.684-11.34,9.895-15.053l10.316-15.931
			c7.201-10.743,38.268-56.863,39.658-62.759c-2.666-3.629-6.832-6.436-13.125-6.576c-1.162,4.309-37.955,59.697-40.705,61.709
			c-2.92-1.53-3.969-2.182-6.576-3.939c7.029-10.488,14.031-20.977,21.033-31.493c3.514-5.301,6.52-10.488,10.232-16.016
			c4.678-7.03,9.297-11.679,9.439-18.142c-5.217-1.389-5.301-3.855-10.518-5.244c-5.357,3.6-23.754,33.704-30.188,43.342
			l-29.453,45.383c-7.342,10.941-3.656,19.588-4.818,32.061C138.896,235.896,136.572,241.763,140.654,241.763z"/>
		<path fill="#2B2B2B" d="M207.609,105.19c3.684,5.499,16.668,12.416,22.791,16.611c3.797,2.607,3.996,3.09,10.033,3.09
			c1.105-4.139,14.031-21.941,18.396-30.189c-3.373-5.018-26.334-19.984-30.188-21.005
			C223.229,77.298,208.855,99.918,207.609,105.19z"/>
		<path fill="#2B2B2B" d="M38.238,85.518c0,3.062,3.516,6.548,6.576,6.548h93.232c7.369,0,11.934-14.428-5.273-14.428H47.451
			C42.15,77.638,38.238,80.501,38.238,85.518z"/>
		<path fill="#2B2B2B" d="M55.332,231.247c-1.672,7.172-6.209,8.59-7.881,15.76c3.742-0.311,3.063,1.078,7.908-6.52
			c2.127-3.344,4.139-5.98,5.217-10.545c11.594,2.693,11.707-7.229,19.475-7.398c6.32-0.141,20.578,1.021,24.178-5.668
			c4.99-9.27-7.113,2.521-18.537,2.012c-5.557-0.254-6.293-2.637-12.246,1.559c-3.656,2.553-4.734,5.104-10.262,5.557
			c4.451-9.24,10.092-28.941,5.273-38.098c-4.65,0-6.832,0.142-9.496,2.324c-10.064,8.221-6.775,22.932-6.266,29.197
			c-5.783,1.361-8.816,5.471-8.873,9.467C43.709,236.69,51.619,233.202,55.332,231.247z"/>
		<path fill="#2B2B2B" d="M38.238,151.168c0,5.386,3.629,7.88,9.213,7.88h49.891c8.107,0,6.264-8.73,5.244-13.152
			c-12.359-2.863-43.314-1.304-57.771-1.304C41.754,144.592,38.238,148.106,38.238,151.168z"/>
		<path fill="#2B2B2B" d="M39.57,113.07c-0.992,4.139-5.045,13.153,11.82,13.153h40.678c16.811,0,13.096-14.457,6.576-14.457
			C88.668,111.767,46.205,110.491,39.57,113.07z"/>
		<path fill="#2B2B2B" d="M38.238,50.056c0,6.123,3.063,9.186,9.213,9.186h49.891c6.689,0,11.564-14.43-1.332-14.43H44.814
			C42.094,44.812,38.238,48.64,38.238,50.056z"/>
	</g>
</g>
</svg>
