<?xml version="1.0" encoding="utf-8"?>
<!-- Generator: Adobe Illustrator 16.0.0, SVG Export Plug-In . SVG Version: 6.00 Build 0)  -->
<!DOCTYPE svg PUBLIC "-//W3C//DTD SVG 1.1//EN" "http://www.w3.org/Graphics/SVG/1.1/DTD/svg11.dtd">
<svg version="1.1" id="Camada_1" xmlns="http://www.w3.org/2000/svg" xmlns:xlink="http://www.w3.org/1999/xlink" x="0px" y="0px"
	 width="212px" height="339px" viewBox="0 0 212 339" enable-background="new 0 0 212 339" xml:space="preserve">
<g id="Camada_x0020_1" opacity="0.5">
	<path stroke="#000000" stroke-miterlimit="10" d="M33.605,253.646c0.51,0.455,0.793,1.021,1.247,1.645
		c0.482,0.652,0.964,1.162,1.446,1.701c0.935,1.02,2.324,1.898,2.863,3.174c2.183-0.51,9.524-7.738,17.064-2.465
		c5.5,3.855,7.824,8.531,6.293,15.307c7.342-0.992,8.703-0.482,12.898,3.629c3.628,3.57,5.102,5.924,3.742,12.953
		c7.455-1.303,9.184,0.057,13.04,3.855c3.856,3.799,4.677,5.783,3.543,12.813c6.69-1.588,11.649,0.879,15.394,6.379
		c5.186,7.652-1.844,14.854-2.666,16.695c1.078,1.701,5.756,5.697,8.221,7.143c3.912,2.326,8.051,2.326,11.225-0.623
		c2.211-2.041,5.5-4.875,4.365-10.147c-0.707-3.373-4.193-7.285-5.867-9.099c-2.408-2.666-4.932-4.989-7.482-7.569l-15.051-15.022
		c-1.332-1.332-7.06-6.236-6.89-7.937c1.645-0.285,2.354,1.104,3.318,2.098l8.218,8.22c3.771,3.629,7.314,7.258,10.998,11
		c7.654,7.766,17.094,20.182,26.221,10.629c1.928-2.012,3.771-3.515,3.289-7.938c-0.51-4.875-5.84-9.92-8.986-13.039
		c-1.898-1.897-3.543-3.569-5.441-5.414c-6.266-6.18-12.955-13.352-19.189-19.274c-1.842-1.729-2.381-2.012-1.588-2.75
		c1.02-0.736,2.127,1.135,2.836,1.844l19.246,19.246c7.992,7.967,17.377,20.268,26.477,10.715c4.705-4.959,4.422-9.154-0.199-14.967
		c-3.203-4.025-17.264-17.744-21.826-22.252l-8.221-8.221c-0.965-0.937-2.154-1.587-1.898-3.146
		c1.445-0.141,1.729,0.709,2.494,1.504c0.709,0.736,1.189,1.219,1.928,1.928c1.359,1.359,2.465,2.494,3.826,3.854
		c2.637,2.666,5.045,5.048,7.711,7.712c2.691,2.692,5.158,5.157,7.852,7.852c4.252,4.252,11.621,13.013,18.396,12.673
		c3.855-0.199,7.795-4.226,8.957-6.38c4.195-7.766-7.059-16.895-9.807-19.645l-38.977-39.005c-1.957-2.012-4.48-5.131-6.322-5.329
		H91.52c-0.624,2.608-7.229,18.086-8.873,22.252c-6.832,17.293-23.329,11.026-27.099,3.118c-3.572-7.397,1.021-15.646,4.394-23.696
		c1.304-3.09,3.628-8.022,4.394-11.142l-30.019,29.906c-1.757,1.756-2.778,4.195-2.778,7.313
		C31.536,248.97,32.868,251.124,33.605,253.646z"/>
	<path stroke="#000000" stroke-miterlimit="10" d="M106.004,124.757c2.633-5.386,5.951-15.023,9.607-22.592
		c3.627-7.568,7.256-14.202,11.281-20.948c2.777-4.734,7.598-4.989,10.744-2.835c3.684,2.523-0.229,7.285-2.184,10.715
		c-9.299,16.299-15.336,33.166-22.279,50.514c-2.07,5.131-7.91,5.67-10.771,4.053c-1.476-0.85-2.297-3.203-3.206-4.848
		c-2.777-5.072-6.038-10.232-9.581-14.541c-1.162-1.389-3.146-2.863-1.956-5.641c1.389-3.345,7.058-5.669,10.97-3.004
		c1.078,0.736,4.423,5.186,5.472,6.773L106.004,124.757z M50.981,59.503c-0.935,30.841,6.265,55.388,23.839,77.81
		c1.474,1.9,2.863,3.316,4.337,5.131c0.822,0.965,1.389,1.758,2.324,2.58c1.304,1.162,1.446,1.162,2.495,2.41
		c1.729,2.125,18.454,16.355,22.311,15.959c0.17-0.029,2.578-1.135,3.059-1.418l2.92-1.984c1.078-0.793,1.844-1.049,2.807-1.701
		c1.189-0.822,1.701-1.502,2.664-2.268c0.938-0.736,1.844-1.076,2.75-1.785l11.168-10.488c1.93-2.438,2.693-2.807,3.348-3.686
		c0.51-0.709,0.395-0.766,0.936-1.475c4.619-5.697,5.074-6.094,9.156-12.557c11.848-18.68,16.525-41.188,15.959-66.585
		c-1.021-0.085-4.82,1.871-6.322,2.381c-2.494,0.851-4.875,1.474-7.596,1.928c-10.801,1.757-21.402-0.34-30.586-5.556
		c-2.07-1.19-4.025-2.551-5.613-3.855l-4.932-4.365c-12.56,12.557-30.503,18.028-48.475,11.934
		C56.253,61.459,52.03,59.333,50.981,59.503z"/>
	<path stroke="#000000" stroke-miterlimit="10" d="M26.887,173.966c3.94,0.396,6.435-1.246,7.483-4.025
		c1.474-3.883-1.247-6.803-2.693-8.701c-10.97-14.57-17.546-32.23-18.312-51.902C12.6,88.7,18.354,70.615,28.814,54.542
		C59.797,6.864,129.586-1.612,171.34,40.114c31.352,31.323,37.248,81.693,10.205,119.564c-1.275,1.787-4.055,4.621-4.281,7.342
		c-0.453,5.104,6.293,11.368,12.699,3.176c1.645-2.098,3.402-4.621,4.904-7.002c17.973-28.402,21.912-61.88,10.318-93.94
		c-6.379-17.66-16.186-28.063-16.951-30.132c-1.162-0.737-4.678-5.301-6.266-6.832c-17.574-16.923-35.971-27.723-62.105-31.209
		C96.761-1.98,73.771,2.81,54.156,13.78c-8.333,4.649-10.233,7.229-13.918,9.524c-1.36,0.822-8.73,7.541-10.403,9.524
		c-1.163,1.361-2.523,2.353-4.848,5.272C11.835,54.486,3.586,71.352,0.921,94.256c-2.693,23.131,2.806,45.864,13.805,65.026
		c3.373,5.869,4.96,7.398,8.079,11.877C23.797,172.606,24.704,173.343,26.887,173.966z"/>
	<path stroke="#000000" stroke-miterlimit="10" d="M174.203,260.647c2.947-2.238,7.398-6.832,7.881-12.982
		c0.566-6.945-4.225-10.205-7.201-13.125c-4.166-4.109-38.41-38.721-41.584-41.299c-2.012-1.615-3.713-3.457-6.293-4.195
		c-2.607-0.766-25.71,0.398-29.45,0.512c-20.921,0.594-21.516-1.391-28.008,13.803l-11.849,29.423
		c-2.239,6.491,0.567,11.991,5.216,14.032c6.888,3.004,10.715,1.843,14.57-2.666c1.871-2.211,7.483-17.063,9.382-21.713
		c0.964-2.323,2.183-4.961,2.919-7.198c10.858-0.087,21.771-0.029,32.653-0.029c3.998,0,5.67-0.596,7.371,1.135L174.203,260.647z"/>
	<path stroke="#000000" stroke-miterlimit="10" d="M134.404,184.511c1.049,5.188,4.734,7.908,7.285,10.488
		c3.061,3.061,5.924,5.838,8.93,8.928c5.895,6.01,11.707,11.678,17.631,17.66c3.061,3.061,5.896,5.867,8.957,8.928
		c2.779,2.808,5.414,6.066,11.68,6.322c9.723,0.426,18.453-8.617,16.326-18.992c-1.133-5.557-4.139-7.371-7.199-10.602
		c-2.75-2.92-5.895-5.98-8.898-8.957c-3.146-3.119-5.926-5.867-8.9-8.9l-17.66-17.688c-2.893-2.834-5.867-6.01-11.764-6.236
		C140.84,165.036,132.336,174.278,134.404,184.511z"/>
	<path stroke="#000000" stroke-miterlimit="10" d="M36.127,184.71L14.3,206.874c-3.09,3.063-8.022,6.889-7.795,14.373
		c0.284,9.268,7.313,12.727,8.164,13.689c7.257,2.184,8.419,2.75,15.052-0.113c1.502-0.65,2.353-1.473,3.345-2.551l9.127-9.41
		c5.726-4.99,15.59-15.307,21.628-21.373c1.927-1.9,4.45-4.111,6.038-6.209c1.021-1.33,1.474-2.322,2.693-3.598
		c1.105-1.134,2.693-1.955,3.402-2.92c1.672-2.238,2.268-6.746,1.729-9.923c-1.049-6.377-5.953-11.225-11.622-12.84
		c-8.958-2.551-13.946,3.033-17.49,6.604C46.559,174.647,37.743,183.888,36.127,184.71z"/>
	<path stroke="#000000" stroke-miterlimit="10" d="M41.032,262.489c-1.163,1.9-7.71,6.748-10.148,12.02
		c-3.77,8.193,3.6,11.793,5.5,13.918c7.455,1.73,9.779-0.963,14.003-4.563c4.366-3.715,12.671-11.736,9.128-18.625
		c-0.596-1.219-3.458-4.139-4.451-4.961c-1.757-1.502-5.017-2.154-7.824-1.219C44.405,259.995,42.902,261.81,41.032,262.489z"/>
	<path stroke="#000000" stroke-miterlimit="10" d="M47.183,299.255c0.595,0.596,0.624,0.879,1.276,1.561l4.734,4.224
		c5.13,1.219,7.398,0.396,10.913-2.183c4.054-2.948,11.14-9.895,12.501-14.77c1.446-5.188-1.105-7.313-3.373-9.609
		c-2.211-2.239-4.961-4.364-9.638-2.776c-4.932,1.7-11.537,8.446-14.57,12.782C46.417,292.198,46.049,294.237,47.183,299.255z"/>
	<path stroke="#000000" stroke-miterlimit="10" d="M64.021,316.376c0.34,0.229,2.381,2.297,2.834,2.75
		c0.454,0.453,2.58,2.297,2.75,2.523c8.759,2.012,11.934-2.721,18-8.617c3.6-3.486,7.739-8.93,5.159-14.543
		c-0.793-1.672-2.012-2.494-3.09-3.57c-2.778-2.836-5.697-4.168-10.261-2.297c-3.033,1.219-5.669,3.77-7.909,5.727
		c-1.871,1.701-4.706,4.849-6.293,7.342C62.858,309.347,62.575,311.927,64.021,316.376z"/>
	<path stroke="#000000" stroke-miterlimit="10" d="M80.405,332.478c0.595,0.511,0.539,0.767,1.275,1.56
		c0.567,0.596,0.992,0.965,1.616,1.562c1.333,1.274,1.389,1.756,3.458,2.748c4.734,1.219,7.341,0,10.545-2.296
		c3.686-2.666,11.111-9.809,12.473-14.77c1.418-5.103-1.078-7.343-3.289-9.554c-2.268-2.268-4.845-4.479-9.723-2.807
		c-2.749,0.965-6.718,3.969-8.106,5.529C84.231,319.382,77.967,323.464,80.405,332.478z"/>
</g>
</svg>
