<?xml version="1.0" encoding="UTF-8"?>
<!DOCTYPE svg PUBLIC "-//W3C//DTD SVG 1.1//EN" "http://www.w3.org/Graphics/SVG/1.1/DTD/svg11.dtd">
<!-- Creator: CorelDRAW 2017 -->
<svg xmlns="http://www.w3.org/2000/svg" xml:space="preserve" width="478px" height="627px" version="1.1" style="shape-rendering:geometricPrecision; text-rendering:geometricPrecision; image-rendering:optimizeQuality; fill-rule:evenodd; clip-rule:evenodd"
viewBox="0 0 478 627"
 xmlns:xlink="http://www.w3.org/1999/xlink"
 enable-background="new 0 0 259 280">
 <defs>
  <style type="text/css">
   <![CDATA[
    .fil0 {fill:#959595}
    .fil1 {fill:#2B2B2B;fill-opacity:0.501961}
   ]]>
  </style>
 </defs>
 <g id="Camada_x0020_1">
  <metadata id="CorelCorpID_0Corel-Layer"/>
  <g id="_1884712518160">
   <polygon class="fil0" points="128.65,389.05 128.74,386.26 128.66,346.12 128.92,217.08 91.85,217.08 92.67,388.71 "/>
   <polygon class="fil0" points="182.22,367.15 220.76,367.21 220.86,217.09 182.04,217.08 "/>
   <polygon class="fil0" points="370.96,388.71 392.6,388.77 392.58,217.12 370.8,217.07 "/>
   <path class="fil0" d="M338.05 487.06c7.33,-10.52 -1.66,-10.13 26.68,-10.13l3.63 10.09 17.73 -0.14c0.73,-8.5 -9.97,-29.44 -13.46,-37.67 -2.93,-6.9 -5.16,-12.13 -8.11,-19.43 -5.49,-13.59 -3.56,-13.63 -11.34,-17.19 -6.31,4.66 -25.99,53.47 -30.96,65.93 -4.82,12.07 3.43,8.36 15.83,8.54zm10.42 -24.87l9.33 -0.09 -3.67 -12.99 -5.66 13.08 0 0z"/>
   <path class="fil0" d="M148.29 425.97c-6.47,-14.08 -15.31,-14.31 -33.11,-13.18l-12.74 6c1.49,7.61 2.31,10.3 6.56,14.94 9.48,-2.47 9.65,-6.44 19.85,-2.16 4.38,15.73 -19.7,23.79 -24.62,38.82 -4.85,14.79 -1.84,16.85 10.66,16.81 11.22,-0.05 22.34,-0.28 33.6,-0.14 3.25,-21.62 -0.04,-17.34 -19.1,-17.58 6.34,-13.38 21.75,-18.39 18.9,-43.51z"/>
   <path class="fil0" d="M278.39 430.27l5.65 -17.51c-19.36,0.04 -19.59,-5.62 -31.19,36.05l-16.16 -35.71c-19.05,-0.91 -16.99,-1.47 -19.67,3.43 5.65,12.23 24.75,66.36 34.16,71.05 7.5,-3.99 10.93,-18.75 14.75,-27.65 4.29,-10.01 8.41,-20.19 12.46,-29.66l0 0z"/>
   <polygon class="fil0" points="242.71,281.52 271.5,281.54 271.62,217.08 242.56,217.08 "/>
   <polygon class="fil0" points="332.25,338.47 356.18,338.51 356.28,217.08 332.1,217.08 "/>
   <polygon class="fil0" points="288.69,346.05 310.29,346.13 310.4,217.09 288.46,217.08 "/>
   <polygon class="fil0" points="293.83,486.44 310.49,487.52 310.81,413.53 293.34,413.1 "/>
   <path class="fil0" d="M157.68 418.57l2.65 7.88 15.86 1.13c-8.86,4.24 -11.69,-0.69 -19.52,8.58 -4.91,23.69 16.6,18.85 32.57,19.74 0.42,-11.6 4.49,-28.41 -2.9,-37.16 -2.9,-3.45 -7.7,-5.63 -13.83,-5.98 -14.03,-0.81 -14.8,5.78 -14.83,5.81zm14.94 20.82c2.35,0 4.26,1.15 4.26,2.57 0,1.43 -1.91,2.57 -4.26,2.57 -2.36,0 -4.27,-1.14 -4.27,-2.57 0,-1.42 1.91,-2.57 4.27,-2.57z"/>
   <polygon class="fil0" points="153.18,313.7 167.42,313.74 167.53,217.08 152.95,217.08 "/>
   <path class="fil1" d="M0.13 35.25l0 556.51c0,15.89 15.89,35.34 32.43,35.34l412.19 0c15.33,0 26.13,-13.48 30.07,-25.88 4.58,-14.43 2.64,-349.38 2.64,-370.8l-44.47 -0.84 0 356.26 -388.67 0 0 -544.68 294.47 0c0,28.48 -3.26,67.64 2.92,94.21 20.4,9.79 61.66,5.85 91.28,5.85l0 88.36 44.48 0.76 -0.29 -109.72c0,-15.64 -15.39,-25.68 -24.29,-34.58l-60.39 -60.39c-9.09,-9.1 -20.22,-25.75 -36.04,-25.75l-320.98 0c-17.67,0 -35.35,17.68 -35.35,35.35l0 0z"/>
  </g>
 </g>
</svg>
