<?xml version="1.0" encoding="UTF-8"?>
<!DOCTYPE svg PUBLIC "-//W3C//DTD SVG 1.1//EN" "http://www.w3.org/Graphics/SVG/1.1/DTD/svg11.dtd">
<!-- Creator: CorelDRAW 2017 -->
<svg xmlns="http://www.w3.org/2000/svg" xml:space="preserve" width="100px" height="105px" version="1.1" style="shape-rendering:geometricPrecision; text-rendering:geometricPrecision; image-rendering:optimizeQuality; fill-rule:evenodd; clip-rule:evenodd"
viewBox="0 0 100 105"
 xmlns:xlink="http://www.w3.org/1999/xlink">
 <defs>
  <style type="text/css">
   <![CDATA[
    .fil1 {fill:#7E8487}
    .fil0 {fill:#7E8487;fill-rule:nonzero}
   ]]>
  </style>
 </defs>
 <g id="Camada_x0020_1">
  <metadata id="CorelCorpID_0Corel-Layer"/>
  <g id="_2203487231776">
   <g>
    <path class="fil0" d="M88.6 16.74l-66.03 0 0 -1.78 66.03 0 0.89 0.89 -0.89 0.89zm0 -1.78l0.89 0 0 0.89 -0.89 -0.89zm-0.89 84.74l0 -83.85 1.78 0 0 83.85 -0.89 0.9 -0.89 -0.9zm1.78 0l0 0.9 -0.89 0 0.89 -0.9zm-66.92 -0.89l66.03 0 0 1.79 -66.03 0 -0.89 -0.9 0.89 -0.89zm0 1.79l-0.89 0 0 -0.9 0.89 0.9zm0.9 -84.75l0 83.85 -1.79 0 0 -83.85 0.89 -0.89 0.9 0.89zm-1.79 0l0 -0.89 0.89 0 -0.89 0.89z"/>
   </g>
   <g>
    <path class="fil0" d="M22.85 18.11l-16.81 5.38 -0.54 -1.69 16.8 -5.39 1.17 0.85 -0.62 0.85zm-0.55 -1.7l1.17 -0.37 0 1.22 -1.17 -0.85zm-0.62 58.69l0 -57.84 1.79 0 0 57.84 -1.74 0.27 -0.05 -0.27zm1.79 0l0 5.7 -1.74 -5.43 1.74 -0.27zm-16.85 -52.73l16.8 52.45 -1.69 0.55 -16.81 -52.45 0.58 -1.12 1.12 0.57zm-1.7 0.55l-0.27 -0.85 0.85 -0.27 -0.58 1.12zm64 -19.57l-41.67 13.35 -0.55 -1.7 41.67 -13.35 1.12 0.58 -0.57 1.12zm-0.55 -1.7l0.85 -0.27 0.27 0.85 -1.12 -0.58zm3.7 14.47l-4.27 -13.35 1.69 -0.54 4.28 13.35 -0.85 1.16 -0.85 -0.62zm1.7 -0.54l0.38 1.16 -1.23 0 0.85 -1.16zm-46.79 -0.62l45.94 0 0 1.78 -45.94 0 -0.28 -1.74 0.28 -0.04zm0 1.78l-5.71 0 5.43 -1.74 0.28 1.74zm66.4 65.89l-5.63 -17.58 1.7 -0.54 5.63 17.57 -0.58 1.12 -1.12 -0.57zm1.7 -0.55l0.27 0.85 -0.85 0.27 0.58 -1.12zm-6.75 1.23l5.63 -1.81 0.54 1.7 -5.63 1.81 -1.16 -0.85 0.62 -0.85zm0.54 1.7l-1.16 0.37 0 -1.22 1.16 0.85zm0.62 -20.23l0 19.38 -1.78 0 0 -19.38 1.74 -0.27 0.04 0.27zm-1.78 0l0 -5.71 1.74 5.44 -1.74 0.27zm-56.63 36.87l8.73 -2.8 0.54 1.7 -8.72 2.8 -1.12 -0.58 0.57 -1.12zm0.55 1.7l-0.85 0.27 -0.27 -0.85 1.12 0.58zm-0.32 -3.92l0.89 2.8 -1.69 0.54 -0.9 -2.79 0.85 -1.17 0.85 0.62zm-1.7 0.55l-0.37 -1.17 1.22 0 -0.85 1.17zm10.47 0.62l-9.62 0 0 -1.79 9.62 0 0.27 1.74 -0.27 0.05zm0 -1.79l5.7 0 -5.43 1.74 -0.27 -1.74z"/>
   </g>
   <polygon class="fil1" points="44.9,77.66 46.04,77.66 46.04,92.5 44.9,92.5 "/>
   <polygon class="fil1" points="47.33,77.66 48.48,77.66 48.48,92.5 47.33,92.5 "/>
   <polygon class="fil1" points="49.74,77.66 52.07,77.66 52.07,92.5 49.74,92.5 "/>
   <polygon class="fil1" points="52.8,77.66 54.37,77.66 54.37,89.81 52.8,89.81 "/>
   <polygon class="fil1" points="55.97,77.66 57.92,77.66 57.92,90.58 55.97,90.58 "/>
   <polygon class="fil1" points="59.14,77.66 59.97,77.66 59.97,86.23 59.14,86.23 "/>
   <polygon class="fil1" points="61.47,77.66 63.04,77.66 63.04,89.81 61.47,89.81 "/>
   <polygon class="fil1" points="64.85,77.66 67.18,77.66 67.18,92.5 64.85,92.5 "/>
   <polygon class="fil1" points="32.85,67.32 80,67.32 80,70.03 32.85,70.03 "/>
   <path class="fil0" d="M46.37 62.18l0 1.85 -7.02 0c0.08,-0.71 0.31,-1.37 0.68,-2 0.38,-0.63 1.14,-1.47 2.25,-2.51 0.9,-0.84 1.46,-1.41 1.66,-1.71 0.27,-0.42 0.41,-0.82 0.41,-1.23 0,-0.45 -0.12,-0.79 -0.36,-1.03 -0.23,-0.24 -0.56,-0.36 -0.98,-0.36 -0.42,0 -0.75,0.13 -1,0.38 -0.25,0.25 -0.39,0.67 -0.43,1.25l-2 -0.2c0.12,-1.1 0.5,-1.89 1.12,-2.37 0.63,-0.48 1.41,-0.72 2.35,-0.72 1.03,0 1.84,0.28 2.43,0.83 0.59,0.56 0.89,1.25 0.89,2.08 0,0.47 -0.09,0.92 -0.26,1.35 -0.16,0.42 -0.43,0.87 -0.8,1.34 -0.24,0.31 -0.68,0.75 -1.31,1.33 -0.64,0.58 -1.04,0.97 -1.2,1.16 -0.17,0.19 -0.31,0.38 -0.41,0.56l3.98 0zm0.1 -6.52c0,-0.62 0.22,-1.16 0.66,-1.6 0.45,-0.44 0.98,-0.66 1.61,-0.66 0.62,0 1.15,0.22 1.6,0.66 0.44,0.44 0.66,0.98 0.66,1.6 0,0.63 -0.22,1.16 -0.66,1.61 -0.45,0.44 -0.98,0.66 -1.6,0.66 -0.63,0 -1.16,-0.22 -1.61,-0.66 -0.44,-0.45 -0.66,-0.98 -0.66,-1.61zm1.18 0c0,0.3 0.1,0.56 0.32,0.77 0.21,0.21 0.47,0.32 0.77,0.32 0.29,0 0.55,-0.11 0.76,-0.32 0.21,-0.21 0.32,-0.47 0.32,-0.77 0,-0.29 -0.11,-0.55 -0.32,-0.76 -0.21,-0.22 -0.47,-0.32 -0.76,-0.32 -0.3,0 -0.56,0.1 -0.77,0.32 -0.22,0.21 -0.32,0.47 -0.32,0.76zm10.58 8.37l-3.74 -10.44 2.29 0 2.65 7.73 2.54 -7.73 2.25 0 -3.71 10.44 -2.28 0zm5.74 0l0 -10.44 2.11 0 0 10.44 -2.11 0zm12.28 0l-2.27 0 -0.9 -2.38 -4.19 0 -0.87 2.38 -2.24 0 4.06 -10.44 2.23 0 4.18 10.44zm-3.86 -4.14l-1.45 -3.87 -1.41 3.87 2.86 0z"/>
  </g>
 </g>
</svg>
