<?xml version="1.0" encoding="UTF-8"?>
<!DOCTYPE svg PUBLIC "-//W3C//DTD SVG 1.1//EN" "http://www.w3.org/Graphics/SVG/1.1/DTD/svg11.dtd">
<!-- Creator: CorelDRAW 2017 -->
<svg xmlns="http://www.w3.org/2000/svg" xml:space="preserve" width="2528px" height="886px" version="1.1" style="shape-rendering:geometricPrecision; text-rendering:geometricPrecision; image-rendering:optimizeQuality; fill-rule:evenodd; clip-rule:evenodd"
viewBox="0 0 2528 885.62"
 xmlns:xlink="http://www.w3.org/1999/xlink">
 <defs>
  <style type="text/css">
   <![CDATA[
    .fil1 {fill:#394247}
    .fil0 {fill:#F47C36}
   ]]>
  </style>
 </defs>
 <g id="Camada_x0020_1">
  <metadata id="CorelCorpID_0Corel-Layer"/>
  <g id="_1884577191216">
   <g id="_1884712483664">
    <path class="fil0" d="M366.01 82.33l3.97 19.47c5.19,25.25 14,48.51 22.54,72.48 2.22,6.19 4.65,11.25 7.03,17.06l7.37 16.75c1.13,2.75 2.63,5.47 3.85,8.19l11.66 23.82c1.5,3 2.72,4.69 4.25,7.81 13.93,28.07 32.56,55.88 49.88,81.98 13.16,19.85 35.63,49.07 52.19,66.91 0.63,0.66 0.72,0.79 1.25,1.44l15.63 17.16c2.06,2.47 3.69,3.94 5.91,6.16 4.06,4.09 7.84,8.19 12.03,12.06 1.43,1.35 1.9,1.41 3.34,2.66l12.1 11.34c12.12,10.19 24.31,19.88 37.38,28.88 4.81,3.32 9.81,5.97 14.97,9.1l15.47 7.97c30.13,15.09 62.97,16.56 95.73,9.65 20.97,-4.43 45.72,-13.84 64.85,-22.81 2.56,-1.19 4.44,-2.03 6.91,-3.13l112.67 -54.66c2.37,-1.22 5.09,-1.72 6.47,-3.56 -34.51,0 -71.95,-21.94 -96.58,-42.66l-35.1 -34.51c-6.93,-7.47 -13.18,-16.13 -19,-24.5 -2.03,-2.94 -8.69,-14.75 -10.59,-16.16 1.59,6.88 5.81,16.35 7.97,26.16 3.31,14.97 9.12,43.66 -4.44,55.69 -6.47,5.72 -16.6,1.88 -22.82,-0.96 -8.31,-3.82 -15.69,-10.22 -22.38,-16.48l-10.37 -9c-6.66,-6.59 -22.29,-21.5 -28.25,-29.31 -8.51,-11.1 -16.41,-19.25 -25.44,-32.13l-15.54 -23.29c-2.5,-4 -5.06,-8.18 -7.22,-12.18l-29.34 -57.01c-1.13,-2.41 -2.1,-4.38 -3.22,-6.81 -10.22,-21.95 -19.19,-44.39 -30.69,-65.7 -17.29,-32.16 -33.01,-54.63 -69.83,-65.35 -36.28,-10.6 -66.47,-6.44 -101.79,2.75 -10.94,2.84 -21.41,7.16 -31.94,10.88l-10.88 3.84 0 0z"/>
    <path class="fil0" d="M0 60.92c0,16.53 6.41,35.72 12.91,50.66l10.88 25.94c6.25,13.72 13.4,27.04 20.37,40.54 1.44,2.78 2.82,4.97 4.25,7.81 1.57,3.13 2.72,4.85 4.32,7.72l6.72 12c0.75,1.35 1.43,2.47 2.22,3.82l11.37 18.75c1.03,1.5 1.44,2.72 2.47,4.22 9.16,13.28 19,30.16 28.88,44.07l47.1 63.32 39.79 45.91c3.75,4.72 13.18,13.75 18.12,18.66 6.41,6.4 15.6,15.62 22.51,21.03 5.56,4.34 10.59,9.69 16.34,13.75l7.16 5.57c11.84,8.81 23.91,16.93 36.72,24.19 1.38,0.78 2.5,1.37 3.91,2.09l4 2.03c27.88,14.32 56.41,17.35 87.42,13.03 31.75,-4.43 61.63,-19.56 82.32,-44.16l25.94 -32.28c2.31,-3.1 4.25,-5.6 6.53,-8.88 2.35,-3.44 4.35,-5.44 6.28,-9.12 -1.34,-1 -0.62,-0.44 -1.68,-1.63 -12.94,-14.25 -25.35,-29.47 -36.45,-45.22 -4,-5.66 -7.71,-11.1 -11.65,-17.13 -13.38,-20.41 -27.6,-47.1 -37.19,-69.23 -1.04,-2.44 -0.63,-3.15 -2.69,-4.69 0.34,3.85 2.94,10.47 4.09,14.66 6.91,24.76 12.75,71.17 -0.59,92.61 -6.35,10.22 -17.94,12.06 -30.26,6.53 -15.53,-6.97 -23.4,-17.75 -33.28,-30.97l-42.04 -66.35c-1.5,-2.54 -2.47,-4.32 -3.87,-6.88l-27.41 -48.19c-16.63,-29.98 -32.85,-60.07 -50.45,-89.48 -1.47,-2.44 -2.53,-4.32 -4.09,-6.6l-25.35 -34.22c-22.28,-26.32 -49.44,-48.66 -86.51,-48.66 -26.85,0 -40.66,3.28 -65.98,9.65 -9.34,2.35 -17.59,4.79 -26.66,7.47 -6.22,1.82 -20.91,7.54 -26.47,7.66l0 0z"/>
    <path class="fil1" d="M1108.07 174.03l-16.72 0 0 52.22c0,9.28 15.32,7.38 20.76,7.38 3.21,4.78 2,7.81 2,17.41 0,7.22 -30.7,4 -38.38,-0.44 -6.19,-3.6 -9.79,-11.82 -9.79,-19l0 -57.57c-18.37,0 -15.4,2.37 -15.4,-18.73 0,-4.75 10.4,-3.34 16.06,-3.34 0,-7.41 -1,-21.22 1.34,-26.13 5.04,-1.15 17.04,-1.15 22.07,0 2.34,4.91 1.34,18.72 1.34,26.13 23.91,0 22.1,-2.63 22.1,15.38 0,4 -1.37,6.69 -5.37,6.69l-0.01 0zm14.07 -13.38c7.81,0 21.28,-1.31 24.5,1.59 1.13,1 1.41,1.88 2,3.35l19 55.32c1.72,-1.97 5.26,-12.97 6.1,-15.32 1.91,-5.28 3.59,-10.25 5.53,-15.91 1.06,-3.18 8.47,-25.09 10.38,-27.09 3.12,-3.35 13.9,-1.94 22.16,-1.94 5.78,0 7.09,7.72 9,12.44l18.43 47.13 15.38 -46.85c4.69,-15.66 3.66,-12.72 27.44,-12.72 5.75,0 -3.06,18.16 -5.94,26.88l-20.53 58.41c-4,10.5 -2.78,8.44 -25.72,8.44 -6.84,0 -7.78,-5.28 -9.63,-10.47 -0.96,-2.78 -1.62,-4.53 -2.68,-7.35l-11.66 -29.81c-1.03,-2.75 -2.16,-5.19 -2.78,-7.94l-1.35 0c-0.22,2.69 -1.28,4.84 -2.22,7.16l-13.37 36.81c-1.03,2.66 -1.57,4.69 -2.72,7.32 -1.1,2.47 -2.57,4.28 -5.78,4.28 -28.57,0 -22.29,3.69 -31.91,-20.97l-18.38 -49.23c-2.22,-6.03 -11.04,-23.53 -5.25,-23.53l0 0zm-118.42 -27.44l0 119.83c0,26.47 22.31,49.03 48.82,48.88 97.6,-0.6 196.71,-0.03 294.44,-0.03 -1.53,-2.07 -0.85,-0.97 -6.32,-3.07l-19.34 -8.75c-3.85,-1.93 -8.69,-4.25 -11.85,-6.9 -9.22,-7.85 -1.34,-19.35 2.25,-26.57l12.47 -25c8.6,-16.72 22.16,-2.97 38.16,3.34 25.16,9.94 42.48,12.91 70.33,10.75 4,-0.28 7.71,-0.69 11.31,-0.69 0,-19.06 2.16,-14.56 -9.66,-16.43l-34.69 -4.82c-24.85,-3.28 -58.7,-9.5 -74.85,-29.53 -4.04,-4.97 -7.29,-9.66 -9.69,-16.41 -7.82,-21.97 -5.72,-53.41 9.31,-71.2 6.66,-7.87 13.91,-12.56 23,-17.16 5.25,-2.62 7.16,-2.03 8.94,-4.43l-300.47 0c-23.41,-0.1 -37.54,10.37 -47.23,27.72 -2.5,4.47 -4.93,13.72 -4.93,20.47l0 0z"/>
    <path class="fil0" d="M669.15 105.77c2.09,3.97 4.22,7.53 6.43,11.59 1.19,2.13 1.91,3.57 3.07,5.66l16.12 29.38c7.04,13.81 25.85,46 33.04,58.01 2.41,4 4.31,7.37 6.69,11.37 12.84,21.54 28.69,45.41 43.31,65.76 7.72,10.75 26.63,34.85 36.01,45.01l32.44 31.81 20.16 15.97c3.56,2.63 7.16,4.66 10.94,7.13 10.16,6.59 26.25,13.91 37.72,17.16 12.07,3.41 21.19,5.06 35.1,5.06 3.47,0 39.22,-24.35 44.13,-27.5l38.04 -24.85c2.65,-1.65 10.06,-5.94 11.5,-7.91l-32.51 -19.69c-14.84,-10.84 -42.19,-31.44 -52.56,-44.47 -1.66,-2.06 -2.16,-2.72 -4.1,-4.63l-31.44 -38.78c-12.85,-17.22 -23.85,-34.88 -35.57,-52.82l-20.47 -32.41c-2.41,-3.6 -4.56,-7.28 -7.19,-10.88 -1.34,-1.87 -2.03,-3.44 -3.4,-5.28l-11.1 -15.69c-7.66,-11.22 -23.56,-29.6 -33.97,-36.28 -3.5,-2.25 -7.47,-4.19 -11.44,-5.97 -4.35,-1.97 -8,-3.63 -12.85,-5.22 -28.59,-9.54 -60.57,-7.19 -86.79,6.9 -1.15,0.63 -1.06,0.6 -2.15,1.19 -8.44,4.69 -13.79,7.84 -21.54,13.94 -2.53,2 -5.25,4.84 -7.63,6.44l0.01 0z"/>
    <path class="fil1" d="M1672.17 251.04c-19.31,0 -33.69,-1.85 -47.34,-15.57 -15.41,-15.5 -21.48,-73.63 6.65,-92.1 19.6,-12.88 65.82,-13.19 81.98,6.09 4.28,5.1 7.28,10.72 9.19,18.28 2.19,8.66 1.84,10.57 2.44,18.32 0.97,12.75 0.15,4.72 -0.06,12.75l-1.22 12.16c-2.13,12.66 -8.07,24.22 -18.44,31.1 -9.32,6.18 -21.1,8.97 -33.19,8.97l-0.01 0zm-65.57 -155.99c0,-6.78 0.72,-9.38 -9.37,-9.38l-44.17 0c-7.75,0 -12.03,4.25 -12.03,12.07l0 275.12c0,6.25 4.35,11.38 10.69,11.38l46.19 0c3.13,0 6.19,-2.66 7.35,-4.69 1.75,-3.06 1.34,-6.69 1.34,-11.38l0 -74.97c3.1,0.25 8.13,2.18 11.63,3.06 2.53,0.66 3.66,1.13 5.85,1.53 26.84,4.94 28.65,4.09 55.47,4.09 26.38,0 63.23,-8.22 82.14,-26.91 6,-5.97 7.97,-8.28 12.47,-14.97 23.06,-34.47 22.13,-108.6 -3.82,-139.33 -13.5,-15.97 -26.22,-23.09 -48.56,-29.72 -25.82,-7.66 -74.42,-8.06 -101.36,-0.15 -4.81,1.4 -9.44,3.21 -13.81,4.25l-0.01 0z"/>
    <path class="fil1" d="M2401.55 253.04c-19.57,0 -43.32,-0.57 -55.11,-20.54 -9.81,-16.62 -10.59,-47.72 -2.46,-65.16 2.75,-5.85 5.37,-8.66 9.06,-13.03 9.59,-11.29 31.28,-19.1 46.51,-19.1 15.43,0 31.91,-0.47 45.5,9.34 1.53,1.13 2,1.82 3.63,3.1 2.46,1.9 1.84,1.4 3.62,3.72 15.38,19.59 16.78,58.16 1.63,78.44 -2.38,3.16 -4.57,5.29 -7.38,8 -10.25,9.91 -30.03,15.23 -45,15.23l0 0zm60.22 -159.99c-1.81,-0.97 -4.06,-1.63 -6.34,-2.38 -39.01,-12.69 -102.02,-10.59 -137.08,10.19 -15.29,9.03 -25.79,21.72 -33.01,37.94 -13.09,29.32 -12.59,79.54 -0.81,108.11 19.03,46.25 67.32,56.32 114.33,56.32 13.25,0 28.69,-2.81 40.91,-7.28 6.28,-2.28 17.44,-5.69 22,-8.1 0,18.35 -5.12,14.72 54.2,14.72 6.59,0 12.03,-3.59 12.03,-10.06l0 -283.16c0,-3.41 -3.97,-9.35 -10.03,-9.35l-46.17 0c-10.12,0 -10.06,9.22 -10.03,15.38l0 77.67 0 0z"/>
    <path class="fil1" d="M2101.76 172.03c1.09,-12.97 6.09,-24.54 16.47,-31.73 18.1,-12.59 60.26,-14.37 75.73,1.1 7.59,7.59 8.09,15.78 9.75,25.78 0.97,5.66 -0.03,4.94 -6.25,4.85 -31.79,-0.41 -63.88,0 -95.7,0l0 0zm-62.89 21.44c0,25.72 4.38,49.35 16.76,68.91 7.06,11.13 18.44,20.35 30.53,26.35 24.38,12.16 47.73,14.5 77.17,14.5 14.28,0 32.19,-1.31 43.91,-4.28 18.13,-4.6 34.38,-12.47 49.01,-23.91 6.81,-5.32 3,-7.6 -7.38,-20.57l-13.13 -17c-11.18,-11.53 -20.5,17.57 -65.07,17.57 -12.25,0 -26.44,0.81 -37.88,-2.91 -6.53,-2.13 -10.72,-4.28 -15.56,-7.88 -8.81,-6.62 -14.6,-20.19 -15.47,-30.72l161.27 0c0,-36.91 3.15,-78.82 -23.91,-105.92 -21.25,-21.28 -53.41,-23.94 -83.82,-23.94 -30.54,0 -54.67,4.97 -78.42,19.94 -7.84,4.94 -16.16,13.56 -21.44,21.41 -12.28,18.28 -16.56,44.25 -16.56,68.44l-0.01 0.01z"/>
    <path class="fil1" d="M1920.42 130.52c19.32,0 36.91,3.66 43.41,20.85 2.16,5.72 3.44,13.56 3.44,20.66l-101.7 0c0,-12.1 6.38,-24.88 16.22,-31.94 8.94,-6.44 23.44,-9.57 38.63,-9.57l0 0zm-117.76 56.23c0,21.69 0.53,38.94 8.12,59.47 2.94,7.94 10.16,20 16.13,26.07l4.82 4.53c0.12,0.09 0.25,0.22 0.37,0.31 0.69,0.6 1.35,1.16 2.19,1.82l12.5 8.25c23.13,13.34 50.82,16.03 78.98,16.03 30.63,0 54.94,-3.69 78.95,-18.1 24.15,-14.53 20.69,-13.65 12.72,-24.06l-14.22 -18.57c-16.82,-22.59 -17.32,12.54 -70.08,12.54 -23.44,0 -50.1,1.03 -62.47,-23.19 -2.1,-4.13 -5.1,-12.54 -5.1,-18.32l160.59 0c0.06,-3.03 0.65,-2.65 0.65,-6.03 0,-30.03 0.78,-67.23 -17.38,-92.39 -4.62,-6.37 -10.9,-11.75 -17.4,-16.06 -20.41,-13.57 -47.98,-15.38 -73.61,-15.38 -47.25,0 -91.79,15.57 -107.45,56.51 -4.25,11.12 -5.97,21.28 -7.47,33.38 -0.56,4.69 -0.84,8.25 -0.84,13.19l0 0z"/>
    <path class="fil1" d="M1322.22 147.93c0,11.63 0.13,20 4.69,30.13 8.66,19.22 28.85,29.69 50.23,34.1 19.84,4.06 40,6.37 60.94,9.28 7.76,1.09 15.51,2.16 21.88,6.25 5.94,3.81 8.85,18.6 -4.75,23.85 -9.81,3.75 -31.28,2.84 -42.66,2.84 -21.41,0 -37.91,-7.03 -55.82,-14.44 -8.56,-3.56 -11.88,-7.65 -18.44,-7.65 -2.63,0 -5.09,6.81 -6.25,9.15 -3.47,6.88 -15.19,27.88 -15.19,33.01 0,4.87 4.22,5.34 7.59,7.15l9.6 5.13c6.59,3.31 13.56,6.12 20.88,8.56 11.34,3.82 24.56,5.88 37,7.16 12.56,1.31 30.94,0.78 44.04,0.78 16.44,0 36.69,-2.59 51.91,-6.97 13.38,-3.84 28.35,-12.53 34.13,-25.44 7.03,-15.56 9.28,-45.35 1.72,-62.07 -3,-6.66 -7,-10.69 -11.97,-15.47 -22.69,-21.94 -82.95,-21.25 -110.45,-28.07 -8.16,-2.03 -14.85,-4.22 -14.85,-13.93 0,-15.01 25.13,-14.73 38.13,-14.73 19.28,0 39.63,1.44 56.73,7.54 23.59,8.44 18.25,10 33.53,-23.69 8.03,-17.63 5.85,-17.51 -18.38,-25.6 -13.94,-4.66 -29.66,-6.69 -44.38,-7.84 -5.22,-0.41 -10.9,-0.29 -16.78,-0.6 -5.06,-0.28 -10.56,-1.03 -16.72,-0.69 -3.13,0.16 -4.13,0.72 -8.03,0.69 -28.82,-0.12 -65.45,6.88 -81.39,33.07 -3.87,6.37 -6.94,18.38 -6.94,28.5l0 0z"/>
    <path class="fil0" d="M739.4 842.11c2.79,-4.16 9.04,-10.5 13.26,-16.88 2.03,-3.06 3.84,-5.66 5.68,-9l3.94 -7.44c0.75,-1.65 0.69,-0.87 1.19,-2.81 5.03,0.41 18.31,8.34 22.75,10.69 -3.09,4.62 -14.97,12.53 -20.5,15.63 -7.81,4.34 -16.72,7.59 -26.32,9.81l0 0zm-86.32 -25.44c5.35,-2.81 16.82,-10.22 22.75,-10.69 1.04,4.5 8.1,15.66 10.79,19.31l9.56 12.54c1.47,1.87 2.53,2.5 3.72,4.28 -11.69,-2.72 -15.91,-4.66 -26.32,-9.81 -5.78,-2.88 -17.34,-10.88 -20.5,-15.63zm72.26 22.1l0 -40.82c6.34,0 22.47,1.93 26.75,4 -1.68,7.34 -19.53,31.97 -26.75,36.82zm-38.82 -36.82c7.97,-1.85 17.1,-4 26.79,-4l0 40.16c-3.91,-2.63 -11.97,-12.35 -14.88,-16.6 -6,-8.87 -7.03,-10.34 -11.91,-19.56zm70.95 -11.38c-3.63,0 -4.13,-0.75 -7.31,-1.41 -2.5,-0.53 -4.91,-1.06 -7.79,-1.56 -4.84,-0.87 -12,-1.72 -17.03,-1.72l0 -32.13 38.82 0c0,18.04 -3.19,21.76 -6.69,36.82zm-133.83 -36.82l39.47 0c0,23.54 7.25,36.54 7.35,41.51 -5.66,0.47 -20.97,10 -26.1,12.72 -1.31,-1.97 -2.44,-3.5 -3.91,-5.44 -1.5,-1.97 -2.28,-3.5 -3.71,-5.65 -6.47,-9.79 -13.1,-30.26 -13.1,-43.14zm170.61 54.23l-8.78 -5.28c-4.65,-2.53 -11.5,-6.25 -16.63,-7.44 0.07,-3.84 1.38,-5.59 2.29,-9.09 2.93,-11.44 5.06,-19.88 5.06,-32.41l39.47 0c0,3.93 -1.5,12.59 -2.44,16.31 -1.34,5.34 -2.68,9.31 -4.62,14.1 -2.38,5.97 -10.1,20.68 -14.35,23.81l0 0zm-119.76 -54.23l38.82 0 0 32.13c-4.53,0 -11.91,0.91 -16.38,1.72l-15.09 2.97c-1.32,-5.75 -3.01,-8.69 -4.72,-17.34 -0.66,-3.22 -0.97,-5.32 -1.5,-9.22 -0.32,-2.32 -1.13,-7.57 -1.13,-10.25l0 -0.01zm50.85 -47.53c12.78,0 25.32,-4.22 30.78,-4.69 3.19,13.66 8.04,18.72 8.04,40.16l-38.82 0 0 -35.47zm-42.16 -4.69c2.5,0.22 4.5,1 7.09,1.62 2.66,0.6 4.5,0.91 7.35,1.35 4.5,0.72 11.16,1.72 15.69,1.72l0 35.47 -38.82 0c0,-2.97 0.88,-8.06 1.22,-10.81 2.19,-18.16 5.28,-19.91 7.47,-29.35l0 0zm84.32 -4l24.75 -12.07c2.44,1.66 2.69,2.44 4.41,4.97 8.16,11.94 12.5,18.88 16.22,34.01 1.1,4.41 2.78,12.28 2.78,17.25l-39.47 0c0,-23.38 -7.91,-38 -8.69,-44.16l0 0zm-104.39 40.82l0 3.34 -39.47 0c0,-17.31 12.69,-49.04 23.41,-56.23 4.91,3.32 19.09,10.76 24.75,12.07 -2.81,12.12 -8.69,22.44 -8.69,40.82zm62.23 -44.17l0 -36.81c4.78,1.25 24,27.31 25.44,33.47 -2.94,0.06 -8.94,1.44 -12,2.06 -3.25,0.69 -9.47,1.28 -13.44,1.28zm-12.03 -36.81l0 36.81c-5.38,0 -13.38,-1.22 -18.57,-2.18 -1.93,-0.38 -3.62,-1.13 -6.19,-1.16 1.66,-7.22 19.16,-29.75 24.76,-33.47zm26.09 -3.35c10.13,0.22 26.88,9.5 35.2,14.97 2,1.35 8.56,6.35 9.62,7.79 -3.15,0.84 -14.66,8.31 -22.06,10.03 -5.5,-10.41 -8.57,-15.94 -16.22,-25.29 -1.13,-1.37 -1.79,-2.37 -3.04,-3.68 -1.47,-1.54 -2.37,-2.13 -3.5,-3.82zm-62.22 32.79c-6.6,-1.53 -16.38,-7 -22.1,-10.03 1.13,-1.69 6.94,-6.16 9.1,-7.66 7.68,-5.31 13.09,-8.1 21.97,-11.47 3.65,-1.41 8.94,-3.28 13.09,-3.63l-12.06 15.38c-2.25,3.19 -9.1,13.47 -10,17.41l0 0zm-65.6 58.91c0,26.1 6.53,45.32 19.81,64.54l12.25 14.5c9.66,8.85 12.22,10.75 22.94,17.22 27.94,16.97 67.07,18.29 96.8,4.69 11.28,-5.16 15.62,-8.59 24.78,-15.34 10.72,-7.94 23.5,-25.13 29.32,-37.63 19.34,-41.76 10.68,-90.11 -21.38,-122.11 -16.13,-16.1 -42.16,-31.63 -74.11,-31.63 -27.09,0 -40.69,5.19 -60.69,16.94 -1.69,1 -2.5,1.5 -4.03,2.65 -5.63,4.25 -9.47,7.41 -14.41,12.38 -13.41,13.41 -23.47,30.72 -28.32,49.98 -1.81,7.22 -2.97,15.19 -2.97,23.81l0.01 0z"/>
    <path class="fil0" d="M2020.12 846.14l-287.06 0 0 -176.74c9.53,0 41.81,-3.41 54.22,-4l18.03 -1.38c10.66,-0.06 34.76,-3.09 44.85,-3.34 4.1,-0.09 6,-0.59 9.35,-0.66l36.16 -2.65c5.97,-0.28 12.5,-1.07 18.06,-1.35l99.08 -7.31c3.25,-0.25 6.72,-0.72 9.31,-0.72l0 196.12c0,1.56 -0.43,2.03 -2,2.03l0 0zm-300.44 -176.74l0 177.4c0,9.87 3.62,12.72 13.38,12.72l288.41 0c8.68,0 13.37,-2.57 13.37,-11.38l0 -201.49c0,-15.41 -14.62,-10.97 -26.12,-10.1 -7.29,0.6 -18.48,0.47 -26.45,1.69l-147.98 9.94c-13.13,1.78 -25.29,1.62 -36.94,2.53 -2.54,0.19 -2.32,0.56 -5.38,0.66 -4.25,0.09 -6.6,0.56 -10.03,0.65l-53.42 3.47c-7.75,1.1 -8.84,5.1 -8.84,13.91l0 0z"/>
    <polygon class="fil1" points="1331.57,795.26 1407.86,795.26 1407.86,772.51 1357.67,772.51 1357.67,757.79 1402.52,757.79 1402.52,737.03 1357.67,737.03 1357.67,722.97 1435.3,723.63 1435.3,795.26 1461.4,795.26 1461.4,723.63 1489.5,723.63 1489.5,700.18 1331.57,700.18 "/>
    <path class="fil1" d="M1794.63 728.31l28.09 0 0 70.95 26.79 0 0 -70.95 20.72 0c2.25,0 3.22,4.22 4.63,8.1l22.37 55.94c4.63,10.32 -1.06,8.25 25.88,8.25 2.72,0 5.1,-8.44 5.94,-10.78 1.53,-4.25 3.31,-7.62 4.85,-11.88l29.34 -73.07 -29.44 0c-1.16,4.97 -3.25,9.57 -4.94,14.51l-13.22 36.97c-0.84,2.62 -1.15,5.25 -3.25,6.78l-10.41 -29.75c-2,-5.13 -3.34,-9.66 -5.28,-14.82l-3.84 -10.87c-0.72,-1.72 -0.44,-2.82 -2.53,-2.82l-95.7 0 0 23.44 0 0z"/>
    <path class="fil1" d="M889.27 795.26l26.09 0 0 -50.88c2.47,1.65 32.6,41.19 37.57,48.13 0.91,1.25 1.35,2.75 3.25,2.75l22.1 0 0 -95.07 -26.1 0 0 48.88c-2.03,-1.38 -8.09,-9.66 -9.94,-12.16l-23.91 -30.97c-6.22,-7.97 -1.69,-5.75 -29.06,-5.75l0 95.07 0 0z"/>
    <path class="fil1" d="M1234.56 795.26l26.09 0 0 -50.88c2.72,1.81 16.94,21.38 20.07,25.44 1.66,2.16 3.28,4 5.06,6.31l12.41 16.38c0.91,1.25 1.38,2.75 3.28,2.75l22.07 0 0 -95.07 -26.07 0 0 48.88c-5.91,-3.94 -35.88,-48.88 -39.5,-48.88l-23.41 0 0 95.07 0 0z"/>
    <path class="fil1" d="M1187.71 745.72l-14.03 0 0 -22.75c14.75,0 30.09,-2.25 30.09,12.03 0,4.16 -2,6.97 -4.84,8.53 -3.1,1.69 -6.72,2.19 -11.22,2.19l0 0zm-40.82 49.54l24.76 0c1.56,0 2.03,-0.47 2.03,-2l0 -26.78c13.37,0 8.75,-2.57 19.66,13.78 3.43,5.16 6.43,10.03 9.78,15l30.09 0c-0.72,-3.09 -3.31,-5.63 -5.09,-8.31 -2.03,-3.07 -3.69,-5.41 -5.72,-8.32 -1,-1.44 -1.59,-2.75 -2.56,-4.12 -1,-1.41 -1.75,-2.25 -2.82,-3.88 -1.56,-2.34 -4.59,-6.22 -5.22,-8.84 2.72,-1.44 4.72,-2.19 7.19,-4.22l5.63 -5.72c7.22,-8.97 7.66,-24.38 2.59,-34.26 -6.4,-12.5 -20.12,-17.41 -34.81,-17.41l-45.51 0 0 95.08 0 0z"/>
    <polygon class="fil1" points="1065.94,795.26 1142.2,795.26 1142.2,772.51 1092.04,772.51 1092.04,757.79 1136.86,757.79 1136.86,737.03 1092.04,737.03 1092.04,722.97 1141.55,722.97 1141.55,700.18 1065.94,700.18 "/>
    <path class="fil1" d="M2288.44 432.43l0 95.73c0,3.1 3.78,2 11.4,2 3.04,0 2,-4.75 2,-8.03l0 -72.98c1.66,1.94 7.38,17.23 8.41,19.73 2.97,7.03 5.35,13.75 8.31,20.47l8.04 20.06c2.03,5.06 6.94,16.03 8.03,20.75l6 0c1.09,-4.65 5.81,-15.19 7.85,-20.28l24.72 -60.95c0.03,-0.09 0.15,-0.31 0.25,-0.43l0 81.66 12.69 0 0 -99.73 -18.07 0c-0.56,2.41 -2.47,6.66 -3.56,9.13l-19 47.29c-1.38,3.46 -2.47,6.06 -3.91,9.47 -1.16,2.68 -3.03,7.18 -3.62,9.75 -0.6,-0.69 -0.38,-0.19 -1.13,-1.57l-18.32 -45.28c-1.34,-3.03 -2.43,-6.22 -3.78,-9.57 -1.81,-4.56 -6.62,-15.25 -7.56,-19.22 -6.06,0 -18.75,-1.34 -18.75,2l0 0z"/>
    <polygon class="fil1" points="980.96,723.63 1009.06,723.63 1009.06,795.26 1035.16,795.26 1035.16,723.63 1063.26,723.63 1063.26,700.18 980.96,700.18 "/>
    <path class="fil1" d="M2147.92 520.13c-11.47,0 -18.53,-0.75 -27.32,-8.81 -18.34,-16.85 -16.56,-55.26 7.47,-67.29 20.98,-10.53 52.67,0.62 52.67,36.6 0,9.56 -3.32,20.66 -8.91,27.25 -5.53,6.53 -15.07,12.25 -23.91,12.25l0 0zm-52.85 -40.16c0,17.03 6.38,33.04 20.07,42.85 1.9,1.37 5.78,3.69 8.03,4.69 10.65,4.72 20.31,5.25 31.47,3.34 15.28,-2.59 29.19,-13.78 34.88,-28.03 6,-14.97 6.25,-29.44 0.19,-44.57 -2.53,-6.38 -5.75,-10.85 -10.16,-15.28 -7.16,-7.13 -14.41,-11.01 -24.41,-13.04 -32.66,-6.65 -60.07,15.82 -60.07,50.04l0 0z"/>
    <path class="fil1" d="M1761.84 530.16l63.57 0c3.1,0 2,-3.75 2,-11.37l-50.85 0c-1.53,0 -2,-0.47 -2,-2l0 -32.13 51.51 0 0 -11.38 -51.51 0 0 -31.47 52.85 0 0 -11.38 -65.57 0 0 99.73 0 0z"/>
    <polygon class="fil1" points="1452.02,530.16 1516.94,530.16 1516.94,518.79 1464.74,518.79 1464.74,484.66 1516.28,484.66 1516.28,473.28 1464.74,473.28 1464.74,441.81 1516.94,441.81 1516.94,430.43 1452.02,430.43 "/>
    <path class="fil0" d="M1782.59 876.27c0,4.19 1.03,9.34 6.69,9.34l175.99 0c8.32,0 11.54,-15.37 -3.34,-15.37l-169.3 0c-2.38,0 -5.25,0.53 -6.72,1.31 -1.13,0.62 -3.32,3.22 -3.32,4.72l0 0z"/>
    <path class="fil1" d="M1918.42 478.63c0,13.53 3.1,24 9.85,33 16.06,21.47 47.5,27.47 69.79,10.53 2.53,-1.93 8.5,-7.53 9.34,-10.75l-10.69 -5.34c-17.22,25.72 -64.91,15.94 -64.91,-26.1 0,-6.03 1.12,-11.47 2.75,-16 1.12,-3.13 4.81,-9.29 7.09,-11.63 14,-14.5 37.04,-16.19 50.92,-3.03 2.03,1.94 2.5,3.66 4.81,5.22 2.53,-1.35 7.44,-4.75 10.03,-5.38 -1.72,-6.47 -13.78,-14.72 -21.75,-17.69 -10.03,-3.75 -24.22,-3.34 -33.88,0.19 -19.66,7.25 -33.35,25.35 -33.35,46.98l0 0z"/>
    <polygon class="fil1" points="854.48,795.26 881.23,795.26 881.23,700.18 854.48,700.18 "/>
    <polygon class="fil1" points="1284.06,441.81 1315.54,441.81 1315.54,530.16 1328.23,530.16 1328.23,441.81 1359.7,441.81 1359.7,430.43 1284.06,430.43 "/>
    <path class="fil1" d="M1610.6 528.16c0,1.54 0.47,2 2.04,2l56.85 0 0 -11.37 -44.17 0c-1.53,0 -2,-0.47 -2,-2l0 -86.36 -12.72 0 0 97.73z"/>
   </g>
  </g>
 </g>
</svg>
